<svg xmlns="http://www.w3.org/2000/svg" viewBox="0 0 185 246"><defs><style>.cls-1{fill:#cccccb;}.cls-2,.cls-26{fill:none;stroke:#333;stroke-miterlimit:10;}.cls-2{stroke-width:0.75px;}.cls-3{fill:#4c4c4d;}.cls-4{font-size:14.5px;}.cls-22,.cls-4{fill:#333;}.cls-14,.cls-22,.cls-4{font-family:SourceSansPro-Bold, Source Sans Pro;font-weight:700;}.cls-5{letter-spacing:-0.01em;}.cls-6{letter-spacing:-0.01em;}.cls-7{letter-spacing:-0.01em;}.cls-8{letter-spacing:0em;}.cls-9{letter-spacing:-0.01em;}.cls-10{letter-spacing:-0.01em;}.cls-11{letter-spacing:-0.01em;}.cls-12{letter-spacing:0em;}.cls-13{letter-spacing:0em;}.cls-14{font-size:11px;fill:#fff;}.cls-15{letter-spacing:-0.03em;}.cls-16{letter-spacing:-0.01em;}.cls-17{letter-spacing:-0.02em;}.cls-18{letter-spacing:-0.01em;}.cls-19{letter-spacing:0em;}.cls-20{letter-spacing:0em;}.cls-21{letter-spacing:-0.01em;}.cls-22{font-size:13px;}.cls-23{letter-spacing:-0.01em;}.cls-24{letter-spacing:-0.03em;}.cls-25{letter-spacing:-0.02em;}.cls-26{stroke-width:4px;}</style></defs><title>levels-of-control</title><g id="Proxy_Frame" data-name="Proxy Frame"><rect class="cls-1" x="23.5" y="50" width="139" height="185" rx="2" transform="translate(-50 235.5) rotate(-90)"/><line class="cls-2" x1="153.5" y1="94.17" x2="153.5" y2="190.83"/></g><g id="Backgrounds"><rect class="cls-3" x="24.5" y="38" width="105" height="25" rx="2"/><rect class="cls-3" x="24.5" y="110.5" width="105" height="25" rx="2"/></g><g id="G_M_V_Control" data-name="G M V Control"><rect x="24.5" y="178" width="105" height="30" rx="2"/><rect x="24.5" y="58" width="105" height="30" rx="2"/><rect x="24.5" y="130.5" width="105" height="30" rx="2"/></g><g id="Text"><text class="cls-4" transform="translate(25.79 19.5)">High <tspan class="cls-5" x="32.7" y="0">L</tspan><tspan class="cls-6" x="40" y="0">e</tspan><tspan class="cls-7" x="47.43" y="0">v</tspan><tspan x="54.9" y="0">el </tspan><tspan class="cls-8" x="69.45" y="0">o</tspan><tspan x="77.43" y="0">f Cont</tspan><tspan class="cls-9" x="115.61" y="0">r</tspan><tspan x="121.23" y="0">ol</tspan></text><text class="cls-4" transform="translate(23.56 238.5)"><tspan class="cls-10">L</tspan><tspan class="cls-7" x="7.31" y="0">o</tspan><tspan x="15.24" y="0">w </tspan><tspan class="cls-10" x="29.39" y="0">L</tspan><tspan class="cls-11" x="36.7" y="0">e</tspan><tspan class="cls-7" x="44.12" y="0">v</tspan><tspan class="cls-12" x="51.59" y="0">el </tspan><tspan class="cls-8" x="66.15" y="0">o</tspan><tspan class="cls-13" x="74.12" y="0">f Cont</tspan><tspan class="cls-9" x="112.3" y="0">r</tspan><tspan x="117.93" y="0">ol</tspan></text><text class="cls-14" transform="translate(44.62 52)"><tspan class="cls-15">S</tspan><tspan x="5.81" y="0">tyle P</tspan><tspan class="cls-16" x="33.35" y="0">r</tspan><tspan x="37.62" y="0">es</tspan><tspan class="cls-16" x="48.19" y="0">et</tspan><tspan x="57.88" y="0">s</tspan></text><text class="cls-14" transform="translate(37.9 124.5)">M<tspan class="cls-17" x="8.38" y="0">at</tspan><tspan x="18" y="0">erial P</tspan><tspan class="cls-18" x="48.81" y="0">r</tspan><tspan class="cls-19" x="53.07" y="0">es</tspan><tspan class="cls-16" x="63.65" y="0">et</tspan><tspan class="cls-20" x="73.34" y="0">s</tspan></text><text class="cls-14" transform="translate(41.94 77)">Glo<tspan class="cls-21" x="16.27" y="0">b</tspan><tspan x="22.45" y="0">al Cont</tspan><tspan class="cls-16" x="56.61" y="0">r</tspan><tspan class="cls-20" x="60.87" y="0">ol</tspan></text><text class="cls-22" transform="translate(161.33 103.15) rotate(90)">P<tspan class="cls-23" x="7.75" y="0">r</tspan><tspan class="cls-24" x="12.79" y="0">o</tspan><tspan class="cls-25" x="19.67" y="0">x</tspan><tspan x="26.16" y="0">y Cont</tspan><tspan class="cls-23" x="62.72" y="0">r</tspan><tspan x="67.77" y="0">ol</tspan></text><text class="cls-14" transform="translate(38.24 197)">Mapped Cont<tspan class="cls-16" x="64" y="0">r</tspan><tspan x="68.27" y="0">ol</tspan></text><text class="cls-14" transform="translate(37.61 149.58)">M<tspan class="cls-17" x="8.38" y="0">at</tspan><tspan x="18" y="0">erial Cont</tspan><tspan class="cls-16" x="65.26" y="0">r</tspan><tspan x="69.53" y="0">ol</tspan></text></g><g id="Level_Line" data-name="Level Line"><line class="cls-26" x1="10.5" y1="1" x2="10.5" y2="245"/><polyline class="cls-26" points="18 2 3 2 10.5 2 10.5 14"/><polyline class="cls-26" points="3 244 18 244 10.5 244 10.5 232"/><line class="cls-26" x1="10.5" y1="48" x2="22.5" y2="48"/><line class="cls-26" x1="10.5" y1="120.5" x2="22.5" y2="120.5"/><line class="cls-26" x1="10.5" y1="73" x2="22.5" y2="73"/><line class="cls-26" x1="10.5" y1="145.5" x2="22.5" y2="145.5"/><line class="cls-26" x1="10.5" y1="193" x2="22.5" y2="193"/></g></svg>