<?xml version="1.0" encoding="utf-8"?>
<!-- Generator: Adobe Illustrator 23.0.3, SVG Export Plug-In . SVG Version: 6.00 Build 0)  -->
<svg version="1.1" xmlns="http://www.w3.org/2000/svg" xmlns:xlink="http://www.w3.org/1999/xlink" x="0px" y="0px"
	 viewBox="0 0 186 246" style="enable-background:new 0 0 186 246;" xml:space="preserve">
<style type="text/css">
	.st0{fill:#CCCCCB;}
	.st1{fill:none;stroke:#333333;stroke-width:0.75;stroke-miterlimit:10;}
	.st2{fill:#4C4C4D;}
	.st3{fill:#333333;}
	.st4{fill:#FFFFFF;}
	.st5{fill:none;stroke:#333333;stroke-width:4;stroke-miterlimit:10;}
</style>
<g id="Proxy_Frame">
	<path id="XMLID_4_" class="st0" d="M185.5,75v135c0,1.1-0.9,2-2,2H2.5c-1.1,0-2-0.9-2-2l0-135c0-1.1,0.9-2,2-2h181
		C184.6,73,185.5,73.9,185.5,75z"/>
	<line id="XMLID_29_" class="st1" x1="154" y1="94.2" x2="154" y2="190.8"/>
</g>
<g id="Backgrounds">
	<path id="XMLID_22_" class="st2" d="M128,63H27c-1.1,0-2-0.9-2-2V40c0-1.1,0.9-2,2-2h101c1.1,0,2,0.9,2,2v21
		C130,62.1,129.1,63,128,63z"/>
	<path id="XMLID_24_" class="st2" d="M128,135.5H27c-1.1,0-2-0.9-2-2v-21c0-1.1,0.9-2,2-2h101c1.1,0,2,0.9,2,2v21
		C130,134.6,129.1,135.5,128,135.5z"/>
</g>
<g id="G_M_V_Control">
	<path id="XMLID_118_" d="M128,208H27c-1.1,0-2-0.9-2-2v-26c0-1.1,0.9-2,2-2h101c1.1,0,2,0.9,2,2v26C130,207.1,129.1,208,128,208z"
		/>
	<path id="XMLID_39_" d="M128,88H27c-1.1,0-2-0.9-2-2V60c0-1.1,0.9-2,2-2h101c1.1,0,2,0.9,2,2v26C130,87.1,129.1,88,128,88z"/>
	<path id="XMLID_49_" d="M128,160.5H27c-1.1,0-2-0.9-2-2v-26c0-1.1,0.9-2,2-2h101c1.1,0,2,0.9,2,2v26
		C130,159.6,129.1,160.5,128,160.5z"/>
</g>
<g id="Text">
	<g>
		<g>
			<path class="st3" d="M27.4,19.5V10h2.1v3.6h3.3V10h2.1v9.5h-2.1v-3.9h-3.3v3.9H27.4z"/>
			<path class="st3" d="M38.1,11.2c-0.4,0-0.7-0.1-0.9-0.3c-0.2-0.2-0.3-0.5-0.3-0.8c0-0.3,0.1-0.6,0.3-0.8C37.4,9.1,37.7,9,38.1,9
				c0.4,0,0.7,0.1,0.9,0.3s0.3,0.5,0.3,0.8c0,0.3-0.1,0.6-0.3,0.8C38.7,11.1,38.4,11.2,38.1,11.2z M37,19.5v-7.2h2.1v7.2H37z"/>
			<path class="st3" d="M43.6,22.6c-0.4,0-0.8,0-1.2-0.1c-0.4-0.1-0.7-0.2-1-0.3s-0.5-0.3-0.6-0.6c-0.2-0.2-0.2-0.5-0.2-0.8
				c0-0.6,0.3-1.1,1-1.4v-0.1c-0.2-0.1-0.4-0.3-0.5-0.5s-0.2-0.4-0.2-0.7c0-0.3,0.1-0.5,0.2-0.7s0.3-0.4,0.6-0.6v-0.1
				c-0.3-0.2-0.5-0.4-0.7-0.7c-0.2-0.3-0.3-0.7-0.3-1.1c0-0.4,0.1-0.8,0.2-1.1s0.4-0.6,0.7-0.8c0.3-0.2,0.6-0.4,0.9-0.5
				c0.4-0.1,0.7-0.2,1.1-0.2c0.4,0,0.8,0.1,1.1,0.2h2.6v1.6h-1.1c0.1,0.1,0.1,0.2,0.2,0.4s0.1,0.3,0.1,0.5c0,0.4-0.1,0.8-0.2,1.1
				c-0.1,0.3-0.3,0.6-0.6,0.8c-0.3,0.2-0.6,0.3-0.9,0.4c-0.3,0.1-0.7,0.1-1.1,0.1c-0.3,0-0.6,0-0.9-0.1c-0.1,0.1-0.2,0.2-0.2,0.2
				c0,0.1-0.1,0.2-0.1,0.3c0,0.2,0.1,0.3,0.2,0.4c0.2,0.1,0.4,0.1,0.8,0.1h1.2c0.9,0,1.6,0.1,2,0.4c0.5,0.3,0.7,0.8,0.7,1.4
				c0,0.4-0.1,0.7-0.3,1s-0.5,0.6-0.8,0.8s-0.8,0.4-1.3,0.5C44.7,22.5,44.2,22.6,43.6,22.6z M43.9,21.2c0.5,0,0.9-0.1,1.2-0.3
				c0.3-0.2,0.5-0.4,0.5-0.6c0-0.2-0.1-0.4-0.3-0.4c-0.2-0.1-0.5-0.1-0.8-0.1h-0.7c-0.3,0-0.5,0-0.6,0c-0.2,0-0.3,0-0.4-0.1
				c-0.3,0.2-0.4,0.5-0.4,0.7c0,0.3,0.1,0.5,0.4,0.6S43.4,21.2,43.9,21.2z M43.7,15.9c0.3,0,0.5-0.1,0.7-0.3s0.3-0.5,0.3-0.9
				c0-0.4-0.1-0.7-0.3-0.9c-0.2-0.2-0.4-0.3-0.7-0.3s-0.5,0.1-0.7,0.3c-0.2,0.2-0.3,0.5-0.3,0.9c0,0.4,0.1,0.7,0.3,0.9
				S43.4,15.9,43.7,15.9z"/>
			<path class="st3" d="M48.7,19.5V9.3h2.1v2.5l-0.1,1.3c0.3-0.2,0.6-0.5,0.9-0.7c0.4-0.2,0.8-0.3,1.3-0.3c0.8,0,1.4,0.3,1.7,0.8
				c0.4,0.5,0.5,1.2,0.5,2.1v4.5h-2.1v-4.2c0-0.5-0.1-0.9-0.2-1.1c-0.1-0.2-0.4-0.3-0.7-0.3c-0.3,0-0.5,0.1-0.7,0.2
				c-0.2,0.1-0.4,0.3-0.6,0.5v4.9H48.7z"/>
			<path class="st3" d="M60.1,19.5V10h2.1v7.7H66v1.8H60.1z"/>
			<path class="st3" d="M70.5,19.7c-0.5,0-1-0.1-1.4-0.3c-0.4-0.2-0.8-0.4-1.2-0.7c-0.3-0.3-0.6-0.7-0.8-1.2s-0.3-1-0.3-1.6
				c0-0.6,0.1-1.1,0.3-1.6c0.2-0.5,0.4-0.9,0.8-1.2c0.3-0.3,0.7-0.6,1.1-0.7c0.4-0.2,0.8-0.3,1.3-0.3c0.5,0,1,0.1,1.3,0.3
				c0.4,0.2,0.7,0.4,1,0.7c0.3,0.3,0.4,0.7,0.6,1.1c0.1,0.4,0.2,0.9,0.2,1.4c0,0.2,0,0.4,0,0.6c0,0.2,0,0.3-0.1,0.4h-4.3
				c0.1,0.5,0.3,0.9,0.6,1.2s0.7,0.4,1.2,0.4c0.5,0,1-0.2,1.6-0.5l0.7,1.3c-0.4,0.3-0.8,0.4-1.2,0.6S70.9,19.7,70.5,19.7z
				 M68.9,15.1h2.6c0-0.4-0.1-0.7-0.3-1c-0.2-0.3-0.5-0.4-0.9-0.4c-0.3,0-0.6,0.1-0.9,0.3C69.1,14.3,68.9,14.7,68.9,15.1z"/>
			<path class="st3" d="M76.3,19.5l-2.4-7.2H76l0.9,3.4c0.1,0.4,0.2,0.7,0.3,1.1s0.2,0.7,0.3,1.1h0.1c0.1-0.4,0.2-0.8,0.3-1.1
				s0.2-0.7,0.3-1.1l0.9-3.4h2l-2.3,7.2H76.3z"/>
			<path class="st3" d="M85.3,19.7c-0.5,0-1-0.1-1.4-0.3c-0.4-0.2-0.8-0.4-1.2-0.7c-0.3-0.3-0.6-0.7-0.8-1.2s-0.3-1-0.3-1.6
				c0-0.6,0.1-1.1,0.3-1.6c0.2-0.5,0.4-0.9,0.8-1.2c0.3-0.3,0.7-0.6,1.1-0.7c0.4-0.2,0.8-0.3,1.3-0.3c0.5,0,1,0.1,1.3,0.3
				c0.4,0.2,0.7,0.4,1,0.7c0.3,0.3,0.4,0.7,0.6,1.1c0.1,0.4,0.2,0.9,0.2,1.4c0,0.2,0,0.4,0,0.6c0,0.2,0,0.3-0.1,0.4h-4.3
				c0.1,0.5,0.3,0.9,0.6,1.2s0.7,0.4,1.2,0.4c0.5,0,1-0.2,1.6-0.5l0.7,1.3c-0.4,0.3-0.8,0.4-1.2,0.6S85.8,19.7,85.3,19.7z
				 M83.7,15.1h2.6c0-0.4-0.1-0.7-0.3-1c-0.2-0.3-0.5-0.4-0.9-0.4c-0.3,0-0.6,0.1-0.9,0.3C84,14.3,83.8,14.7,83.7,15.1z"/>
			<path class="st3" d="M91.6,19.7c-0.4,0-0.7-0.1-0.9-0.2c-0.3-0.1-0.5-0.3-0.6-0.5c-0.1-0.2-0.3-0.5-0.3-0.8
				c-0.1-0.3-0.1-0.6-0.1-1V9.3h2.1v8c0,0.2,0,0.4,0.1,0.5s0.2,0.1,0.3,0.1c0,0,0.1,0,0.1,0c0,0,0.1,0,0.1,0l0.3,1.6
				c-0.1,0-0.3,0.1-0.4,0.1C92,19.7,91.8,19.7,91.6,19.7z"/>
			<path class="st3" d="M99.8,19.7c-0.5,0-0.9-0.1-1.3-0.3s-0.8-0.4-1.1-0.7c-0.3-0.3-0.6-0.7-0.8-1.2s-0.3-1-0.3-1.6
				c0-0.6,0.1-1.1,0.3-1.6s0.5-0.9,0.8-1.2c0.3-0.3,0.7-0.6,1.1-0.7c0.4-0.2,0.9-0.3,1.3-0.3c0.5,0,0.9,0.1,1.3,0.3
				c0.4,0.2,0.8,0.4,1.1,0.7c0.3,0.3,0.6,0.7,0.8,1.2s0.3,1,0.3,1.6c0,0.6-0.1,1.1-0.3,1.6s-0.5,0.9-0.8,1.2
				c-0.3,0.3-0.7,0.6-1.1,0.7S100.2,19.7,99.8,19.7z M99.8,17.9c0.4,0,0.8-0.2,1-0.6c0.2-0.4,0.3-0.9,0.3-1.5c0-0.6-0.1-1.1-0.3-1.5
				c-0.2-0.4-0.6-0.6-1-0.6c-0.4,0-0.8,0.2-1,0.6c-0.2,0.4-0.3,0.9-0.3,1.5c0,0.6,0.1,1.1,0.3,1.5C99,17.8,99.3,17.9,99.8,17.9z"/>
			<path class="st3" d="M105,19.5V14h-1v-1.6l1-0.1v-0.4c0-0.4,0-0.7,0.1-1.1c0.1-0.3,0.2-0.6,0.5-0.9c0.2-0.3,0.5-0.4,0.8-0.6
				s0.7-0.2,1.2-0.2c0.3,0,0.6,0,0.8,0.1s0.5,0.1,0.6,0.2l-0.4,1.6c-0.3-0.1-0.5-0.1-0.7-0.1c-0.3,0-0.5,0.1-0.6,0.2
				c-0.1,0.2-0.2,0.4-0.2,0.8v0.4h1.3V14h-1.3v5.5H105z"/>
			<path class="st3" d="M116.6,19.7c-0.6,0-1.2-0.1-1.7-0.3c-0.5-0.2-1-0.5-1.4-0.9c-0.4-0.4-0.7-0.9-0.9-1.5s-0.3-1.3-0.3-2.1
				c0-0.8,0.1-1.5,0.4-2.1s0.6-1.1,1-1.6c0.4-0.4,0.9-0.7,1.4-1c0.5-0.2,1.1-0.3,1.7-0.3c0.6,0,1.2,0.1,1.6,0.4s0.9,0.5,1.2,0.9
				l-1.1,1.4c-0.2-0.2-0.5-0.4-0.8-0.5c-0.3-0.1-0.6-0.2-0.9-0.2c-0.3,0-0.6,0.1-0.9,0.2s-0.5,0.3-0.7,0.6c-0.2,0.3-0.4,0.6-0.5,1
				c-0.1,0.4-0.2,0.8-0.2,1.3c0,1,0.2,1.7,0.6,2.3s1,0.8,1.7,0.8c0.4,0,0.7-0.1,1-0.3c0.3-0.2,0.6-0.4,0.8-0.6l1.1,1.3
				C118.9,19.2,117.9,19.7,116.6,19.7z"/>
			<path class="st3" d="M124,19.7c-0.5,0-0.9-0.1-1.3-0.3s-0.8-0.4-1.1-0.7c-0.3-0.3-0.6-0.7-0.8-1.2s-0.3-1-0.3-1.6
				c0-0.6,0.1-1.1,0.3-1.6s0.5-0.9,0.8-1.2c0.3-0.3,0.7-0.6,1.1-0.7c0.4-0.2,0.9-0.3,1.3-0.3c0.5,0,0.9,0.1,1.3,0.3
				c0.4,0.2,0.8,0.4,1.1,0.7c0.3,0.3,0.6,0.7,0.8,1.2s0.3,1,0.3,1.6c0,0.6-0.1,1.1-0.3,1.6s-0.5,0.9-0.8,1.2
				c-0.3,0.3-0.7,0.6-1.1,0.7S124.5,19.7,124,19.7z M124,17.9c0.4,0,0.8-0.2,1-0.6c0.2-0.4,0.3-0.9,0.3-1.5c0-0.6-0.1-1.1-0.3-1.5
				c-0.2-0.4-0.6-0.6-1-0.6c-0.4,0-0.8,0.2-1,0.6c-0.2,0.4-0.3,0.9-0.3,1.5c0,0.6,0.1,1.1,0.3,1.5C123.3,17.8,123.6,17.9,124,17.9z"
				/>
			<path class="st3" d="M129,19.5v-7.2h1.7l0.1,0.9h0.1c0.3-0.3,0.6-0.5,1-0.8c0.4-0.2,0.8-0.3,1.3-0.3c0.8,0,1.4,0.3,1.7,0.8
				c0.4,0.5,0.5,1.2,0.5,2.1v4.5h-2.1v-4.2c0-0.5-0.1-0.9-0.2-1.1c-0.1-0.2-0.4-0.3-0.7-0.3c-0.3,0-0.5,0.1-0.7,0.2
				c-0.2,0.1-0.4,0.3-0.6,0.5v4.9H129z"/>
			<path class="st3" d="M140.1,19.7c-0.4,0-0.8-0.1-1.1-0.2c-0.3-0.1-0.6-0.3-0.8-0.6c-0.2-0.2-0.3-0.5-0.4-0.9s-0.1-0.7-0.1-1.1V14
				h-1v-1.6l1.1-0.1l0.2-1.9h1.8v1.9h1.7V14h-1.7v2.9c0,0.4,0.1,0.7,0.3,0.9s0.4,0.3,0.7,0.3c0.1,0,0.2,0,0.4,0
				c0.1,0,0.2-0.1,0.3-0.1l0.3,1.6c-0.2,0.1-0.4,0.1-0.7,0.2S140.4,19.7,140.1,19.7z"/>
			<path class="st3" d="M142.8,19.5v-7.2h1.7l0.1,1.3h0.1c0.3-0.5,0.6-0.9,0.9-1.1c0.4-0.2,0.7-0.3,1.1-0.3c0.2,0,0.4,0,0.5,0
				c0.1,0,0.2,0.1,0.4,0.1l-0.3,1.8c-0.1,0-0.3-0.1-0.4-0.1c-0.1,0-0.3,0-0.4,0c-0.3,0-0.6,0.1-0.8,0.3s-0.5,0.5-0.7,1v4.2H142.8z"
				/>
			<path class="st3" d="M151.6,19.7c-0.5,0-0.9-0.1-1.3-0.3s-0.8-0.4-1.1-0.7c-0.3-0.3-0.6-0.7-0.8-1.2s-0.3-1-0.3-1.6
				c0-0.6,0.1-1.1,0.3-1.6s0.5-0.9,0.8-1.2c0.3-0.3,0.7-0.6,1.1-0.7c0.4-0.2,0.9-0.3,1.3-0.3c0.5,0,0.9,0.1,1.3,0.3
				c0.4,0.2,0.8,0.4,1.1,0.7c0.3,0.3,0.6,0.7,0.8,1.2s0.3,1,0.3,1.6c0,0.6-0.1,1.1-0.3,1.6s-0.5,0.9-0.8,1.2
				c-0.3,0.3-0.7,0.6-1.1,0.7S152,19.7,151.6,19.7z M151.6,17.9c0.4,0,0.8-0.2,1-0.6c0.2-0.4,0.3-0.9,0.3-1.5c0-0.6-0.1-1.1-0.3-1.5
				c-0.2-0.4-0.6-0.6-1-0.6c-0.4,0-0.8,0.2-1,0.6c-0.2,0.4-0.3,0.9-0.3,1.5c0,0.6,0.1,1.1,0.3,1.5C150.8,17.8,151.1,17.9,151.6,17.9
				z"/>
			<path class="st3" d="M158.5,19.7c-0.4,0-0.7-0.1-0.9-0.2c-0.3-0.1-0.5-0.3-0.6-0.5c-0.1-0.2-0.3-0.5-0.3-0.8
				c-0.1-0.3-0.1-0.6-0.1-1V9.3h2.1v8c0,0.2,0,0.4,0.1,0.5s0.2,0.1,0.3,0.1c0,0,0.1,0,0.1,0c0,0,0.1,0,0.1,0l0.3,1.6
				c-0.1,0-0.3,0.1-0.4,0.1C158.9,19.7,158.7,19.7,158.5,19.7z"/>
		</g>
	</g>
	<g>
		<g>
			<path class="st3" d="M25.2,238.5V229h2.1v7.7h3.7v1.8H25.2z"/>
			<path class="st3" d="M35.4,238.7c-0.5,0-0.9-0.1-1.3-0.3s-0.8-0.4-1.1-0.7c-0.3-0.3-0.6-0.7-0.8-1.2c-0.2-0.5-0.3-1-0.3-1.6
				c0-0.6,0.1-1.1,0.3-1.6c0.2-0.5,0.5-0.9,0.8-1.2c0.3-0.3,0.7-0.6,1.1-0.7s0.9-0.3,1.3-0.3c0.5,0,0.9,0.1,1.3,0.3s0.8,0.4,1.1,0.7
				c0.3,0.3,0.6,0.7,0.8,1.2s0.3,1,0.3,1.6c0,0.6-0.1,1.1-0.3,1.6s-0.5,0.9-0.8,1.2c-0.3,0.3-0.7,0.6-1.1,0.7S35.9,238.7,35.4,238.7
				z M35.4,236.9c0.4,0,0.8-0.2,1-0.6c0.2-0.4,0.3-0.9,0.3-1.5c0-0.6-0.1-1.1-0.3-1.5c-0.2-0.4-0.6-0.6-1-0.6c-0.4,0-0.8,0.2-1,0.6
				c-0.2,0.4-0.3,0.9-0.3,1.5c0,0.6,0.1,1.1,0.3,1.5C34.6,236.8,35,236.9,35.4,236.9z"/>
			<path class="st3" d="M41.5,238.5l-1.8-7.2h2.1l0.7,3.3c0.1,0.4,0.1,0.7,0.2,1.1s0.1,0.7,0.2,1.1h0.1c0.1-0.4,0.1-0.7,0.2-1.1
				c0.1-0.4,0.1-0.7,0.2-1l0.8-3.3h1.8l0.8,3.3c0.1,0.4,0.2,0.7,0.2,1.1c0.1,0.3,0.1,0.7,0.2,1.1h0.1c0.1-0.4,0.1-0.7,0.2-1.1
				c0-0.3,0.1-0.7,0.2-1.1l0.7-3.3h2l-1.7,7.2H46l-0.7-2.9c-0.1-0.3-0.1-0.7-0.2-1c-0.1-0.3-0.1-0.7-0.2-1.1h-0.1
				c-0.1,0.4-0.1,0.7-0.2,1.1c-0.1,0.3-0.1,0.7-0.2,1l-0.6,2.9H41.5z"/>
			<path class="st3" d="M54.6,238.5V229h2.1v7.7h3.7v1.8H54.6z"/>
			<path class="st3" d="M64.9,238.7c-0.5,0-1-0.1-1.4-0.3c-0.4-0.2-0.8-0.4-1.2-0.7s-0.6-0.7-0.8-1.2s-0.3-1-0.3-1.6
				c0-0.6,0.1-1.1,0.3-1.6c0.2-0.5,0.4-0.9,0.8-1.2c0.3-0.3,0.7-0.6,1.1-0.7c0.4-0.2,0.8-0.3,1.3-0.3c0.5,0,1,0.1,1.3,0.3
				c0.4,0.2,0.7,0.4,1,0.7c0.3,0.3,0.4,0.7,0.6,1.1c0.1,0.4,0.2,0.9,0.2,1.4c0,0.2,0,0.4,0,0.6s0,0.3-0.1,0.4h-4.3
				c0.1,0.5,0.3,0.9,0.6,1.2c0.3,0.2,0.7,0.4,1.2,0.4c0.5,0,1-0.2,1.6-0.5l0.7,1.3c-0.4,0.3-0.8,0.5-1.2,0.6
				C65.8,238.6,65.4,238.7,64.9,238.7z M63.3,234.1h2.6c0-0.4-0.1-0.7-0.3-1c-0.2-0.3-0.5-0.4-0.9-0.4c-0.3,0-0.6,0.1-0.9,0.3
				C63.6,233.3,63.4,233.7,63.3,234.1z"/>
			<path class="st3" d="M70.8,238.5l-2.4-7.2h2.1l0.9,3.4c0.1,0.4,0.2,0.7,0.3,1.1s0.2,0.7,0.3,1.1h0.1c0.1-0.4,0.2-0.8,0.3-1.1
				s0.2-0.7,0.3-1.1l0.9-3.4h2l-2.3,7.2H70.8z"/>
			<path class="st3" d="M79.8,238.7c-0.5,0-1-0.1-1.4-0.3c-0.4-0.2-0.8-0.4-1.2-0.7s-0.6-0.7-0.8-1.2s-0.3-1-0.3-1.6
				c0-0.6,0.1-1.1,0.3-1.6c0.2-0.5,0.4-0.9,0.8-1.2c0.3-0.3,0.7-0.6,1.1-0.7c0.4-0.2,0.8-0.3,1.3-0.3c0.5,0,1,0.1,1.3,0.3
				c0.4,0.2,0.7,0.4,1,0.7c0.3,0.3,0.4,0.7,0.6,1.1c0.1,0.4,0.2,0.9,0.2,1.4c0,0.2,0,0.4,0,0.6s0,0.3-0.1,0.4h-4.3
				c0.1,0.5,0.3,0.9,0.6,1.2c0.3,0.2,0.7,0.4,1.2,0.4c0.5,0,1-0.2,1.6-0.5l0.7,1.3c-0.4,0.3-0.8,0.5-1.2,0.6
				C80.7,238.6,80.3,238.7,79.8,238.7z M78.2,234.1h2.6c0-0.4-0.1-0.7-0.3-1c-0.2-0.3-0.5-0.4-0.9-0.4c-0.3,0-0.6,0.1-0.9,0.3
				C78.5,233.3,78.3,233.7,78.2,234.1z"/>
			<path class="st3" d="M86.1,238.7c-0.4,0-0.7-0.1-0.9-0.2c-0.3-0.1-0.5-0.3-0.6-0.5c-0.1-0.2-0.3-0.5-0.3-0.8
				c-0.1-0.3-0.1-0.6-0.1-1v-7.9h2.1v8c0,0.2,0,0.4,0.1,0.5s0.2,0.1,0.3,0.1c0,0,0.1,0,0.1,0c0,0,0.1,0,0.1,0l0.3,1.6
				c-0.1,0-0.3,0.1-0.4,0.1C86.5,238.7,86.3,238.7,86.1,238.7z"/>
			<path class="st3" d="M94.2,238.7c-0.5,0-0.9-0.1-1.3-0.3s-0.8-0.4-1.1-0.7c-0.3-0.3-0.6-0.7-0.8-1.2s-0.3-1-0.3-1.6
				c0-0.6,0.1-1.1,0.3-1.6s0.5-0.9,0.8-1.2c0.3-0.3,0.7-0.6,1.1-0.7s0.9-0.3,1.3-0.3c0.5,0,0.9,0.1,1.3,0.3s0.8,0.4,1.1,0.7
				c0.3,0.3,0.6,0.7,0.8,1.2s0.3,1,0.3,1.6c0,0.6-0.1,1.1-0.3,1.6s-0.5,0.9-0.8,1.2c-0.3,0.3-0.7,0.6-1.1,0.7S94.7,238.7,94.2,238.7
				z M94.2,236.9c0.4,0,0.8-0.2,1-0.6c0.2-0.4,0.3-0.9,0.3-1.5c0-0.6-0.1-1.1-0.3-1.5c-0.2-0.4-0.6-0.6-1-0.6c-0.4,0-0.8,0.2-1,0.6
				c-0.2,0.4-0.3,0.9-0.3,1.5c0,0.6,0.1,1.1,0.3,1.5C93.5,236.8,93.8,236.9,94.2,236.9z"/>
			<path class="st3" d="M99.5,238.5V233h-1v-1.6l1-0.1v-0.4c0-0.4,0-0.7,0.1-1.1c0.1-0.3,0.2-0.6,0.5-0.9c0.2-0.3,0.5-0.5,0.8-0.6
				c0.3-0.1,0.7-0.2,1.2-0.2c0.3,0,0.6,0,0.8,0.1c0.2,0.1,0.5,0.1,0.6,0.2l-0.4,1.6c-0.3-0.1-0.5-0.1-0.7-0.1
				c-0.3,0-0.5,0.1-0.6,0.2c-0.1,0.2-0.2,0.4-0.2,0.8v0.4h1.3v1.7h-1.3v5.5H99.5z"/>
			<path class="st3" d="M111.1,238.7c-0.6,0-1.2-0.1-1.7-0.3c-0.5-0.2-1-0.5-1.4-0.9c-0.4-0.4-0.7-0.9-0.9-1.5
				c-0.2-0.6-0.3-1.3-0.3-2.1c0-0.8,0.1-1.5,0.4-2.1c0.2-0.6,0.6-1.1,1-1.6c0.4-0.4,0.9-0.7,1.4-1c0.5-0.2,1.1-0.3,1.7-0.3
				c0.6,0,1.2,0.1,1.6,0.4c0.5,0.2,0.9,0.5,1.2,0.9l-1.1,1.4c-0.2-0.2-0.5-0.4-0.8-0.5c-0.3-0.1-0.6-0.2-0.9-0.2
				c-0.3,0-0.6,0.1-0.9,0.2c-0.3,0.1-0.5,0.3-0.7,0.6c-0.2,0.3-0.4,0.6-0.5,1c-0.1,0.4-0.2,0.8-0.2,1.3c0,1,0.2,1.7,0.6,2.3
				c0.4,0.5,1,0.8,1.7,0.8c0.4,0,0.7-0.1,1-0.3c0.3-0.2,0.6-0.4,0.8-0.6l1.1,1.3C113.4,238.2,112.3,238.7,111.1,238.7z"/>
			<path class="st3" d="M118.5,238.7c-0.5,0-0.9-0.1-1.3-0.3s-0.8-0.4-1.1-0.7c-0.3-0.3-0.6-0.7-0.8-1.2s-0.3-1-0.3-1.6
				c0-0.6,0.1-1.1,0.3-1.6s0.5-0.9,0.8-1.2c0.3-0.3,0.7-0.6,1.1-0.7s0.9-0.3,1.3-0.3c0.5,0,0.9,0.1,1.3,0.3s0.8,0.4,1.1,0.7
				c0.3,0.3,0.6,0.7,0.8,1.2s0.3,1,0.3,1.6c0,0.6-0.1,1.1-0.3,1.6s-0.5,0.9-0.8,1.2c-0.3,0.3-0.7,0.6-1.1,0.7S119,238.7,118.5,238.7
				z M118.5,236.9c0.4,0,0.8-0.2,1-0.6c0.2-0.4,0.3-0.9,0.3-1.5c0-0.6-0.1-1.1-0.3-1.5c-0.2-0.4-0.6-0.6-1-0.6c-0.4,0-0.8,0.2-1,0.6
				c-0.2,0.4-0.3,0.9-0.3,1.5c0,0.6,0.1,1.1,0.3,1.5C117.7,236.8,118.1,236.9,118.5,236.9z"/>
			<path class="st3" d="M123.5,238.5v-7.2h1.7l0.1,0.9h0.1c0.3-0.3,0.6-0.5,1-0.8s0.8-0.3,1.3-0.3c0.8,0,1.4,0.3,1.7,0.8
				c0.4,0.5,0.5,1.2,0.5,2.1v4.5h-2.1v-4.2c0-0.5-0.1-0.9-0.2-1.1s-0.4-0.3-0.7-0.3c-0.3,0-0.5,0.1-0.7,0.2
				c-0.2,0.1-0.4,0.3-0.6,0.5v4.9H123.5z"/>
			<path class="st3" d="M134.5,238.7c-0.4,0-0.8-0.1-1.1-0.2c-0.3-0.1-0.6-0.3-0.8-0.6c-0.2-0.2-0.3-0.5-0.4-0.9
				c-0.1-0.3-0.1-0.7-0.1-1.1V233h-1v-1.6l1.1-0.1l0.2-1.9h1.8v1.9h1.7v1.7h-1.7v2.9c0,0.4,0.1,0.7,0.3,0.9s0.4,0.3,0.7,0.3
				c0.1,0,0.2,0,0.4,0c0.1,0,0.2-0.1,0.3-0.1l0.3,1.6c-0.2,0.1-0.4,0.1-0.7,0.2C135.2,238.6,134.9,238.7,134.5,238.7z"/>
			<path class="st3" d="M137.3,238.5v-7.2h1.7l0.1,1.3h0.1c0.3-0.5,0.6-0.9,0.9-1.1c0.4-0.2,0.7-0.3,1.1-0.3c0.2,0,0.4,0,0.5,0
				s0.2,0.1,0.4,0.1l-0.3,1.8c-0.1,0-0.3-0.1-0.4-0.1c-0.1,0-0.3,0-0.4,0c-0.3,0-0.6,0.1-0.8,0.3s-0.5,0.5-0.7,1v4.2H137.3z"/>
			<path class="st3" d="M146,238.7c-0.5,0-0.9-0.1-1.3-0.3s-0.8-0.4-1.1-0.7c-0.3-0.3-0.6-0.7-0.8-1.2s-0.3-1-0.3-1.6
				c0-0.6,0.1-1.1,0.3-1.6s0.5-0.9,0.8-1.2c0.3-0.3,0.7-0.6,1.1-0.7s0.9-0.3,1.3-0.3c0.5,0,0.9,0.1,1.3,0.3s0.8,0.4,1.1,0.7
				c0.3,0.3,0.6,0.7,0.8,1.2s0.3,1,0.3,1.6c0,0.6-0.1,1.1-0.3,1.6s-0.5,0.9-0.8,1.2c-0.3,0.3-0.7,0.6-1.1,0.7S146.5,238.7,146,238.7
				z M146,236.9c0.4,0,0.8-0.2,1-0.6c0.2-0.4,0.3-0.9,0.3-1.5c0-0.6-0.1-1.1-0.3-1.5c-0.2-0.4-0.6-0.6-1-0.6c-0.4,0-0.8,0.2-1,0.6
				c-0.2,0.4-0.3,0.9-0.3,1.5c0,0.6,0.1,1.1,0.3,1.5C145.2,236.8,145.6,236.9,146,236.9z"/>
			<path class="st3" d="M152.9,238.7c-0.4,0-0.7-0.1-0.9-0.2c-0.3-0.1-0.5-0.3-0.6-0.5c-0.1-0.2-0.3-0.5-0.3-0.8
				c-0.1-0.3-0.1-0.6-0.1-1v-7.9h2.1v8c0,0.2,0,0.4,0.1,0.5s0.2,0.1,0.3,0.1c0,0,0.1,0,0.1,0c0,0,0.1,0,0.1,0l0.3,1.6
				c-0.1,0-0.3,0.1-0.4,0.1C153.4,238.7,153.2,238.7,152.9,238.7z"/>
		</g>
	</g>
	<g>
		<g>
			<path class="st4" d="M48.2,52.1c-0.5,0-0.9-0.1-1.4-0.3c-0.5-0.2-0.9-0.4-1.2-0.8l0.9-1.1c0.3,0.2,0.5,0.4,0.9,0.5
				c0.3,0.1,0.6,0.2,0.9,0.2c0.3,0,0.6-0.1,0.8-0.2c0.2-0.1,0.2-0.3,0.2-0.5c0-0.1,0-0.2-0.1-0.3c0-0.1-0.1-0.2-0.2-0.2
				c-0.1-0.1-0.2-0.1-0.3-0.2c-0.1-0.1-0.3-0.1-0.4-0.2l-0.9-0.4c-0.2-0.1-0.4-0.2-0.5-0.3c-0.2-0.1-0.3-0.3-0.5-0.4
				c-0.1-0.2-0.2-0.3-0.3-0.6s-0.1-0.4-0.1-0.7c0-0.3,0.1-0.6,0.2-0.8c0.1-0.3,0.3-0.5,0.5-0.7c0.2-0.2,0.5-0.3,0.8-0.5
				c0.3-0.1,0.7-0.2,1-0.2c0.4,0,0.8,0.1,1.2,0.2c0.4,0.2,0.8,0.4,1.1,0.7l-0.8,1c-0.2-0.2-0.5-0.3-0.7-0.4
				c-0.2-0.1-0.5-0.1-0.8-0.1c-0.3,0-0.5,0.1-0.7,0.2c-0.2,0.1-0.2,0.3-0.2,0.5c0,0.1,0,0.2,0.1,0.3c0.1,0.1,0.1,0.1,0.2,0.2
				s0.2,0.1,0.3,0.2c0.1,0.1,0.3,0.1,0.4,0.2l0.9,0.4c0.4,0.2,0.8,0.4,1,0.7c0.3,0.3,0.4,0.7,0.4,1.2c0,0.3-0.1,0.6-0.2,0.9
				s-0.3,0.5-0.5,0.7c-0.2,0.2-0.5,0.4-0.9,0.5C49,52.1,48.6,52.1,48.2,52.1z"/>
			<path class="st4" d="M53.7,52.1c-0.3,0-0.6-0.1-0.9-0.2c-0.2-0.1-0.4-0.2-0.6-0.4c-0.2-0.2-0.3-0.4-0.3-0.7
				c-0.1-0.3-0.1-0.5-0.1-0.9v-2.2h-0.7v-1.2l0.8-0.1l0.2-1.5h1.3v1.5h1.3v1.3h-1.3V50c0,0.3,0.1,0.5,0.2,0.7
				c0.1,0.1,0.3,0.2,0.5,0.2c0.1,0,0.2,0,0.3,0s0.2,0,0.2-0.1l0.3,1.2c-0.1,0-0.3,0.1-0.5,0.1C54.2,52.1,54,52.1,53.7,52.1z"/>
			<path class="st4" d="M56.5,54.1c-0.2,0-0.3,0-0.4,0c-0.1,0-0.2,0-0.3-0.1l0.3-1.2c0.1,0,0.1,0,0.2,0c0.1,0,0.1,0,0.2,0
				c0.3,0,0.5-0.1,0.6-0.2c0.1-0.1,0.3-0.3,0.3-0.5l0.1-0.3l-2.1-5.3h1.6l0.8,2.3c0.1,0.3,0.2,0.5,0.2,0.8c0.1,0.3,0.1,0.5,0.2,0.8
				h0c0.1-0.3,0.1-0.5,0.2-0.8c0.1-0.3,0.1-0.5,0.2-0.8l0.7-2.3h1.6l-1.9,5.5c-0.1,0.3-0.3,0.6-0.4,0.9c-0.1,0.3-0.3,0.5-0.5,0.6
				c-0.2,0.2-0.4,0.3-0.6,0.4S56.8,54.1,56.5,54.1z"/>
			<path class="st4" d="M63.1,52.1c-0.3,0-0.5,0-0.7-0.1c-0.2-0.1-0.3-0.2-0.5-0.4c-0.1-0.2-0.2-0.3-0.2-0.6s-0.1-0.5-0.1-0.8v-6
				h1.6v6.1c0,0.2,0,0.3,0.1,0.4c0.1,0.1,0.1,0.1,0.2,0.1c0,0,0.1,0,0.1,0s0.1,0,0.1,0l0.2,1.2c-0.1,0-0.2,0.1-0.3,0.1
				C63.4,52.1,63.3,52.1,63.1,52.1z"/>
			<path class="st4" d="M67.2,52.1c-0.4,0-0.8-0.1-1.1-0.2s-0.6-0.3-0.9-0.6c-0.2-0.2-0.4-0.5-0.6-0.9c-0.1-0.4-0.2-0.8-0.2-1.2
				c0-0.4,0.1-0.8,0.2-1.2c0.1-0.4,0.3-0.7,0.6-0.9c0.2-0.2,0.5-0.4,0.8-0.6c0.3-0.1,0.6-0.2,1-0.2c0.4,0,0.7,0.1,1,0.2
				c0.3,0.1,0.5,0.3,0.7,0.5s0.3,0.5,0.4,0.8c0.1,0.3,0.1,0.7,0.1,1c0,0.1,0,0.3,0,0.4s0,0.2,0,0.3H66c0.1,0.4,0.2,0.7,0.5,0.9
				c0.3,0.2,0.6,0.3,0.9,0.3c0.4,0,0.8-0.1,1.2-0.4l0.5,1c-0.3,0.2-0.6,0.3-0.9,0.5C67.8,52.1,67.5,52.1,67.2,52.1z M66,48.7h2
				c0-0.3-0.1-0.6-0.2-0.7c-0.1-0.2-0.4-0.3-0.7-0.3c-0.3,0-0.5,0.1-0.7,0.3C66.2,48.1,66,48.3,66,48.7z"/>
			<path class="st4" d="M72.8,52v-7.2h2.5c0.4,0,0.8,0,1.1,0.1s0.6,0.2,0.9,0.4c0.3,0.2,0.5,0.4,0.6,0.7c0.2,0.3,0.2,0.7,0.2,1.1
				c0,0.4-0.1,0.8-0.2,1.1c-0.2,0.3-0.4,0.6-0.6,0.8c-0.3,0.2-0.6,0.3-0.9,0.4c-0.3,0.1-0.7,0.1-1.1,0.1h-0.9V52H72.8z M74.4,48.3
				h0.8c0.9,0,1.3-0.4,1.3-1.1c0-0.4-0.1-0.6-0.4-0.8c-0.2-0.2-0.6-0.2-1-0.2h-0.7V48.3z"/>
			<path class="st4" d="M79.2,52v-5.5h1.3l0.1,1h0c0.2-0.4,0.4-0.6,0.7-0.8s0.6-0.3,0.8-0.3c0.2,0,0.3,0,0.4,0c0.1,0,0.2,0,0.3,0.1
				l-0.3,1.4c-0.1,0-0.2-0.1-0.3-0.1c-0.1,0-0.2,0-0.3,0c-0.2,0-0.4,0.1-0.6,0.2c-0.2,0.1-0.4,0.4-0.6,0.8V52H79.2z"/>
			<path class="st4" d="M85.9,52.1c-0.4,0-0.8-0.1-1.1-0.2s-0.6-0.3-0.9-0.6c-0.2-0.2-0.4-0.5-0.6-0.9c-0.1-0.4-0.2-0.8-0.2-1.2
				c0-0.4,0.1-0.8,0.2-1.2c0.1-0.4,0.3-0.7,0.6-0.9c0.2-0.2,0.5-0.4,0.8-0.6c0.3-0.1,0.6-0.2,1-0.2c0.4,0,0.7,0.1,1,0.2
				c0.3,0.1,0.5,0.3,0.7,0.5s0.3,0.5,0.4,0.8c0.1,0.3,0.1,0.7,0.1,1c0,0.1,0,0.3,0,0.4s0,0.2,0,0.3h-3.3c0.1,0.4,0.2,0.7,0.5,0.9
				c0.3,0.2,0.6,0.3,0.9,0.3c0.4,0,0.8-0.1,1.2-0.4l0.5,1c-0.3,0.2-0.6,0.3-0.9,0.5C86.6,52.1,86.2,52.1,85.9,52.1z M84.7,48.7h2
				c0-0.3-0.1-0.6-0.2-0.7c-0.1-0.2-0.4-0.3-0.7-0.3c-0.3,0-0.5,0.1-0.7,0.3C84.9,48.1,84.7,48.3,84.7,48.7z"/>
			<path class="st4" d="M90.8,52.1c-0.4,0-0.7-0.1-1.1-0.2c-0.4-0.1-0.7-0.3-1-0.5l0.7-1c0.2,0.2,0.5,0.3,0.7,0.4
				c0.2,0.1,0.5,0.1,0.7,0.1c0.2,0,0.4,0,0.5-0.1c0.1-0.1,0.2-0.2,0.2-0.3c0-0.1,0-0.2-0.1-0.2c-0.1-0.1-0.1-0.1-0.3-0.2
				s-0.2-0.1-0.4-0.2s-0.3-0.1-0.4-0.2c-0.2-0.1-0.3-0.1-0.5-0.2s-0.3-0.2-0.5-0.3c-0.1-0.1-0.3-0.3-0.3-0.5
				c-0.1-0.2-0.1-0.4-0.1-0.6c0-0.2,0-0.5,0.1-0.7c0.1-0.2,0.2-0.4,0.4-0.5c0.2-0.1,0.4-0.3,0.7-0.3c0.3-0.1,0.5-0.1,0.9-0.1
				c0.4,0,0.8,0.1,1.1,0.2c0.3,0.1,0.6,0.3,0.8,0.5l-0.7,1c-0.2-0.1-0.4-0.3-0.6-0.3c-0.2-0.1-0.4-0.1-0.6-0.1
				c-0.4,0-0.6,0.1-0.6,0.4c0,0.1,0,0.2,0.1,0.2s0.1,0.1,0.2,0.2c0.1,0.1,0.2,0.1,0.3,0.1c0.1,0,0.3,0.1,0.4,0.1
				c0.2,0.1,0.4,0.1,0.5,0.2c0.2,0.1,0.3,0.2,0.5,0.3c0.1,0.1,0.3,0.3,0.3,0.5s0.1,0.4,0.1,0.6s0,0.5-0.1,0.7
				c-0.1,0.2-0.2,0.4-0.4,0.6c-0.2,0.2-0.4,0.3-0.7,0.4C91.5,52.1,91.1,52.1,90.8,52.1z"/>
			<path class="st4" d="M96.5,52.1c-0.4,0-0.8-0.1-1.1-0.2s-0.6-0.3-0.9-0.6c-0.2-0.2-0.4-0.5-0.6-0.9c-0.1-0.4-0.2-0.8-0.2-1.2
				c0-0.4,0.1-0.8,0.2-1.2c0.1-0.4,0.3-0.7,0.6-0.9c0.2-0.2,0.5-0.4,0.8-0.6c0.3-0.1,0.6-0.2,1-0.2c0.4,0,0.7,0.1,1,0.2
				c0.3,0.1,0.5,0.3,0.7,0.5s0.3,0.5,0.4,0.8c0.1,0.3,0.1,0.7,0.1,1c0,0.1,0,0.3,0,0.4s0,0.2,0,0.3h-3.3c0.1,0.4,0.2,0.7,0.5,0.9
				c0.3,0.2,0.6,0.3,0.9,0.3c0.4,0,0.8-0.1,1.2-0.4l0.5,1c-0.3,0.2-0.6,0.3-0.9,0.5C97.1,52.1,96.8,52.1,96.5,52.1z M95.3,48.7h2
				c0-0.3-0.1-0.6-0.2-0.7c-0.1-0.2-0.4-0.3-0.7-0.3c-0.3,0-0.5,0.1-0.7,0.3C95.4,48.1,95.3,48.3,95.3,48.7z"/>
			<path class="st4" d="M101.7,52.1c-0.3,0-0.6-0.1-0.9-0.2c-0.2-0.1-0.4-0.2-0.6-0.4c-0.2-0.2-0.3-0.4-0.3-0.7
				c-0.1-0.3-0.1-0.5-0.1-0.9v-2.2h-0.7v-1.2l0.8-0.1l0.2-1.5h1.3v1.5h1.3v1.3h-1.3V50c0,0.3,0.1,0.5,0.2,0.7
				c0.1,0.1,0.3,0.2,0.5,0.2c0.1,0,0.2,0,0.3,0s0.2,0,0.2-0.1l0.3,1.2c-0.1,0-0.3,0.1-0.5,0.1C102.2,52.1,102,52.1,101.7,52.1z"/>
			<path class="st4" d="M105.3,52.1c-0.4,0-0.7-0.1-1.1-0.2c-0.4-0.1-0.7-0.3-1-0.5l0.7-1c0.2,0.2,0.5,0.3,0.7,0.4
				c0.2,0.1,0.5,0.1,0.7,0.1c0.2,0,0.4,0,0.5-0.1c0.1-0.1,0.2-0.2,0.2-0.3c0-0.1,0-0.2-0.1-0.2c-0.1-0.1-0.1-0.1-0.3-0.2
				s-0.2-0.1-0.4-0.2s-0.3-0.1-0.4-0.2c-0.2-0.1-0.3-0.1-0.5-0.2s-0.3-0.2-0.5-0.3c-0.1-0.1-0.3-0.3-0.3-0.5
				c-0.1-0.2-0.1-0.4-0.1-0.6c0-0.2,0-0.5,0.1-0.7c0.1-0.2,0.2-0.4,0.4-0.5c0.2-0.1,0.4-0.3,0.7-0.3c0.3-0.1,0.5-0.1,0.9-0.1
				c0.4,0,0.8,0.1,1.1,0.2c0.3,0.1,0.6,0.3,0.8,0.5l-0.7,1c-0.2-0.1-0.4-0.3-0.6-0.3c-0.2-0.1-0.4-0.1-0.6-0.1
				c-0.4,0-0.6,0.1-0.6,0.4c0,0.1,0,0.2,0.1,0.2s0.1,0.1,0.2,0.2c0.1,0.1,0.2,0.1,0.3,0.1c0.1,0,0.3,0.1,0.4,0.1
				c0.2,0.1,0.4,0.1,0.5,0.2c0.2,0.1,0.3,0.2,0.5,0.3c0.1,0.1,0.3,0.3,0.3,0.5s0.1,0.4,0.1,0.6s0,0.5-0.1,0.7
				c-0.1,0.2-0.2,0.4-0.4,0.6c-0.2,0.2-0.4,0.3-0.7,0.4C106,52.1,105.7,52.1,105.3,52.1z"/>
		</g>
	</g>
	<g>
		<g>
			<path class="st4" d="M39.2,124.5v-7.2H41l1.2,3.2c0.1,0.2,0.1,0.4,0.2,0.7s0.1,0.4,0.2,0.7h0c0.1-0.2,0.1-0.4,0.2-0.7
				c0.1-0.2,0.1-0.4,0.2-0.7l1.1-3.2h1.8v7.2h-1.5v-2.6c0-0.2,0-0.4,0-0.6s0-0.4,0.1-0.6c0-0.2,0-0.4,0.1-0.6s0-0.4,0.1-0.6h0
				l-0.6,1.7l-1,2.7h-0.9l-1-2.7l-0.6-1.7h0c0,0.2,0,0.4,0.1,0.6c0,0.2,0,0.4,0.1,0.6c0,0.2,0,0.4,0.1,0.6s0,0.4,0,0.6v2.6H39.2z"/>
			<path class="st4" d="M48.9,124.6c-0.2,0-0.5,0-0.7-0.1c-0.2-0.1-0.4-0.2-0.5-0.4s-0.2-0.3-0.3-0.5c-0.1-0.2-0.1-0.4-0.1-0.6
				c0-0.6,0.2-1,0.7-1.3c0.5-0.3,1.3-0.5,2.3-0.6c0-0.2-0.1-0.4-0.2-0.6c-0.1-0.1-0.3-0.2-0.6-0.2c-0.2,0-0.5,0-0.7,0.1
				s-0.5,0.2-0.7,0.4l-0.6-1.1c0.4-0.2,0.7-0.4,1.1-0.5c0.4-0.1,0.8-0.2,1.2-0.2c0.7,0,1.2,0.2,1.6,0.6c0.4,0.4,0.6,1,0.6,1.9v3.1
				h-1.3l-0.1-0.6h0c-0.2,0.2-0.5,0.4-0.7,0.5S49.2,124.6,48.9,124.6z M49.4,123.4c0.2,0,0.3,0,0.5-0.1c0.1-0.1,0.3-0.2,0.4-0.3v-1
				c-0.6,0.1-1,0.2-1.2,0.4c-0.2,0.2-0.3,0.3-0.3,0.6c0,0.2,0.1,0.3,0.2,0.4C49.1,123.3,49.2,123.4,49.4,123.4z"/>
			<path class="st4" d="M55.2,124.6c-0.3,0-0.6-0.1-0.9-0.2c-0.2-0.1-0.4-0.2-0.6-0.4c-0.2-0.2-0.3-0.4-0.3-0.7
				c-0.1-0.3-0.1-0.5-0.1-0.9v-2.2h-0.7v-1.2l0.8-0.1l0.2-1.5h1.3v1.5h1.3v1.3h-1.3v2.2c0,0.3,0.1,0.5,0.2,0.7
				c0.1,0.1,0.3,0.2,0.5,0.2c0.1,0,0.2,0,0.3,0s0.2,0,0.2-0.1l0.3,1.2c-0.1,0-0.3,0.1-0.5,0.1C55.7,124.6,55.5,124.6,55.2,124.6z"/>
			<path class="st4" d="M59.5,124.6c-0.4,0-0.8-0.1-1.1-0.2s-0.6-0.3-0.9-0.6c-0.2-0.2-0.4-0.5-0.6-0.9c-0.1-0.4-0.2-0.8-0.2-1.2
				c0-0.4,0.1-0.8,0.2-1.2c0.1-0.4,0.3-0.7,0.6-0.9c0.2-0.2,0.5-0.4,0.8-0.6c0.3-0.1,0.6-0.2,1-0.2c0.4,0,0.7,0.1,1,0.2
				c0.3,0.1,0.5,0.3,0.7,0.5s0.3,0.5,0.4,0.8c0.1,0.3,0.1,0.7,0.1,1c0,0.1,0,0.3,0,0.4s0,0.2,0,0.3h-3.3c0.1,0.4,0.2,0.7,0.5,0.9
				c0.3,0.2,0.6,0.3,0.9,0.3c0.4,0,0.8-0.1,1.2-0.4l0.5,1c-0.3,0.2-0.6,0.3-0.9,0.5C60.2,124.6,59.9,124.6,59.5,124.6z M58.3,121.2
				h2c0-0.3-0.1-0.6-0.2-0.7c-0.1-0.2-0.4-0.3-0.7-0.3c-0.3,0-0.5,0.1-0.7,0.3C58.5,120.6,58.4,120.8,58.3,121.2z"/>
			<path class="st4" d="M62.8,124.5V119h1.3l0.1,1h0c0.2-0.4,0.4-0.6,0.7-0.8s0.6-0.3,0.8-0.3c0.2,0,0.3,0,0.4,0
				c0.1,0,0.2,0,0.3,0.1l-0.3,1.4c-0.1,0-0.2-0.1-0.3-0.1c-0.1,0-0.2,0-0.3,0c-0.2,0-0.4,0.1-0.6,0.2c-0.2,0.1-0.4,0.4-0.6,0.8v3.2
				H62.8z"/>
			<path class="st4" d="M68,118.2c-0.3,0-0.5-0.1-0.7-0.2c-0.2-0.2-0.3-0.4-0.3-0.6c0-0.2,0.1-0.5,0.3-0.6c0.2-0.2,0.4-0.2,0.7-0.2
				c0.3,0,0.5,0.1,0.7,0.2s0.3,0.4,0.3,0.6c0,0.3-0.1,0.5-0.3,0.6C68.5,118.2,68.3,118.2,68,118.2z M67.2,124.5V119h1.6v5.5H67.2z"
				/>
			<path class="st4" d="M71.6,124.6c-0.2,0-0.5,0-0.7-0.1c-0.2-0.1-0.4-0.2-0.5-0.4s-0.2-0.3-0.3-0.5c-0.1-0.2-0.1-0.4-0.1-0.6
				c0-0.6,0.2-1,0.7-1.3c0.5-0.3,1.3-0.5,2.3-0.6c0-0.2-0.1-0.4-0.2-0.6c-0.1-0.1-0.3-0.2-0.6-0.2c-0.2,0-0.5,0-0.7,0.1
				s-0.5,0.2-0.7,0.4l-0.6-1.1c0.4-0.2,0.7-0.4,1.1-0.5c0.4-0.1,0.8-0.2,1.2-0.2c0.7,0,1.2,0.2,1.6,0.6c0.4,0.4,0.6,1,0.6,1.9v3.1
				h-1.3l-0.1-0.6h0c-0.2,0.2-0.5,0.4-0.7,0.5S71.9,124.6,71.6,124.6z M72.1,123.4c0.2,0,0.3,0,0.5-0.1c0.1-0.1,0.3-0.2,0.4-0.3v-1
				c-0.6,0.1-1,0.2-1.2,0.4c-0.2,0.2-0.3,0.3-0.3,0.6c0,0.2,0.1,0.3,0.2,0.4C71.8,123.3,72,123.4,72.1,123.4z"/>
			<path class="st4" d="M77.5,124.6c-0.3,0-0.5,0-0.7-0.1c-0.2-0.1-0.3-0.2-0.5-0.4c-0.1-0.2-0.2-0.3-0.2-0.6s-0.1-0.5-0.1-0.8v-6
				h1.6v6.1c0,0.2,0,0.3,0.1,0.4c0.1,0.1,0.1,0.1,0.2,0.1c0,0,0.1,0,0.1,0s0.1,0,0.1,0l0.2,1.2c-0.1,0-0.2,0.1-0.3,0.1
				C77.8,124.6,77.7,124.6,77.5,124.6z"/>
			<path class="st4" d="M81.5,124.5v-7.2H84c0.4,0,0.8,0,1.1,0.1s0.6,0.2,0.9,0.4c0.3,0.2,0.5,0.4,0.6,0.7c0.2,0.3,0.2,0.7,0.2,1.1
				c0,0.4-0.1,0.8-0.2,1.1c-0.2,0.3-0.4,0.6-0.6,0.8c-0.3,0.2-0.6,0.3-0.9,0.4c-0.3,0.1-0.7,0.1-1.1,0.1h-0.9v2.4H81.5z M83.1,120.8
				h0.8c0.9,0,1.3-0.4,1.3-1.1c0-0.4-0.1-0.6-0.4-0.8c-0.2-0.2-0.6-0.2-1-0.2h-0.7V120.8z"/>
			<path class="st4" d="M87.9,124.5V119h1.3l0.1,1h0c0.2-0.4,0.4-0.6,0.7-0.8s0.6-0.3,0.8-0.3c0.2,0,0.3,0,0.4,0
				c0.1,0,0.2,0,0.3,0.1l-0.3,1.4c-0.1,0-0.2-0.1-0.3-0.1c-0.1,0-0.2,0-0.3,0c-0.2,0-0.4,0.1-0.6,0.2c-0.2,0.1-0.4,0.4-0.6,0.8v3.2
				H87.9z"/>
			<path class="st4" d="M94.6,124.6c-0.4,0-0.8-0.1-1.1-0.2s-0.6-0.3-0.9-0.6c-0.2-0.2-0.4-0.5-0.6-0.9c-0.1-0.4-0.2-0.8-0.2-1.2
				c0-0.4,0.1-0.8,0.2-1.2c0.1-0.4,0.3-0.7,0.6-0.9c0.2-0.2,0.5-0.4,0.8-0.6c0.3-0.1,0.6-0.2,1-0.2c0.4,0,0.7,0.1,1,0.2
				c0.3,0.1,0.5,0.3,0.7,0.5s0.3,0.5,0.4,0.8c0.1,0.3,0.1,0.7,0.1,1c0,0.1,0,0.3,0,0.4s0,0.2,0,0.3h-3.3c0.1,0.4,0.2,0.7,0.5,0.9
				c0.3,0.2,0.6,0.3,0.9,0.3c0.4,0,0.8-0.1,1.2-0.4l0.5,1c-0.3,0.2-0.6,0.3-0.9,0.5C95.3,124.6,95,124.6,94.6,124.6z M93.4,121.2h2
				c0-0.3-0.1-0.6-0.2-0.7c-0.1-0.2-0.4-0.3-0.7-0.3c-0.3,0-0.5,0.1-0.7,0.3C93.6,120.6,93.5,120.8,93.4,121.2z"/>
			<path class="st4" d="M99.5,124.6c-0.4,0-0.7-0.1-1.1-0.2c-0.4-0.1-0.7-0.3-1-0.5l0.7-1c0.2,0.2,0.5,0.3,0.7,0.4
				c0.2,0.1,0.5,0.1,0.7,0.1c0.2,0,0.4,0,0.5-0.1c0.1-0.1,0.2-0.2,0.2-0.3c0-0.1,0-0.2-0.1-0.2c-0.1-0.1-0.1-0.1-0.3-0.2
				s-0.2-0.1-0.4-0.2s-0.3-0.1-0.4-0.2c-0.2-0.1-0.3-0.1-0.5-0.2s-0.3-0.2-0.5-0.3c-0.1-0.1-0.3-0.3-0.3-0.5
				c-0.1-0.2-0.1-0.4-0.1-0.6c0-0.2,0-0.5,0.1-0.7c0.1-0.2,0.2-0.4,0.4-0.5c0.2-0.1,0.4-0.3,0.7-0.3c0.3-0.1,0.5-0.1,0.9-0.1
				c0.4,0,0.8,0.1,1.1,0.2c0.3,0.1,0.6,0.3,0.8,0.5l-0.7,1c-0.2-0.1-0.4-0.3-0.6-0.3c-0.2-0.1-0.4-0.1-0.6-0.1
				c-0.4,0-0.6,0.1-0.6,0.4c0,0.1,0,0.2,0.1,0.2s0.1,0.1,0.2,0.2c0.1,0.1,0.2,0.1,0.3,0.1c0.1,0,0.3,0.1,0.4,0.1
				c0.2,0.1,0.4,0.1,0.5,0.2c0.2,0.1,0.3,0.2,0.5,0.3c0.1,0.1,0.3,0.3,0.3,0.5s0.1,0.4,0.1,0.6s0,0.5-0.1,0.7
				c-0.1,0.2-0.2,0.4-0.4,0.6c-0.2,0.2-0.4,0.3-0.7,0.4C100.2,124.6,99.9,124.6,99.5,124.6z"/>
			<path class="st4" d="M105.2,124.6c-0.4,0-0.8-0.1-1.1-0.2s-0.6-0.3-0.9-0.6c-0.2-0.2-0.4-0.5-0.6-0.9c-0.1-0.4-0.2-0.8-0.2-1.2
				c0-0.4,0.1-0.8,0.2-1.2c0.1-0.4,0.3-0.7,0.6-0.9c0.2-0.2,0.5-0.4,0.8-0.6c0.3-0.1,0.6-0.2,1-0.2c0.4,0,0.7,0.1,1,0.2
				c0.3,0.1,0.5,0.3,0.7,0.5s0.3,0.5,0.4,0.8c0.1,0.3,0.1,0.7,0.1,1c0,0.1,0,0.3,0,0.4s0,0.2,0,0.3H104c0.1,0.4,0.2,0.7,0.5,0.9
				c0.3,0.2,0.6,0.3,0.9,0.3c0.4,0,0.8-0.1,1.2-0.4l0.5,1c-0.3,0.2-0.6,0.3-0.9,0.5C105.9,124.6,105.5,124.6,105.2,124.6z
				 M104,121.2h2c0-0.3-0.1-0.6-0.2-0.7c-0.1-0.2-0.4-0.3-0.7-0.3c-0.3,0-0.5,0.1-0.7,0.3C104.2,120.6,104,120.8,104,121.2z"/>
			<path class="st4" d="M110.4,124.6c-0.3,0-0.6-0.1-0.9-0.2c-0.2-0.1-0.4-0.2-0.6-0.4c-0.2-0.2-0.3-0.4-0.3-0.7
				c-0.1-0.3-0.1-0.5-0.1-0.9v-2.2h-0.7v-1.2l0.8-0.1l0.2-1.5h1.3v1.5h1.3v1.3h-1.3v2.2c0,0.3,0.1,0.5,0.2,0.7
				c0.1,0.1,0.3,0.2,0.5,0.2c0.1,0,0.2,0,0.3,0s0.2,0,0.2-0.1l0.3,1.2c-0.1,0-0.3,0.1-0.5,0.1C110.9,124.6,110.7,124.6,110.4,124.6z
				"/>
			<path class="st4" d="M114.1,124.6c-0.4,0-0.7-0.1-1.1-0.2c-0.4-0.1-0.7-0.3-1-0.5l0.7-1c0.2,0.2,0.5,0.3,0.7,0.4
				c0.2,0.1,0.5,0.1,0.7,0.1c0.2,0,0.4,0,0.5-0.1c0.1-0.1,0.2-0.2,0.2-0.3c0-0.1,0-0.2-0.1-0.2c-0.1-0.1-0.1-0.1-0.3-0.2
				s-0.2-0.1-0.4-0.2s-0.3-0.1-0.4-0.2c-0.2-0.1-0.3-0.1-0.5-0.2s-0.3-0.2-0.5-0.3c-0.1-0.1-0.3-0.3-0.3-0.5
				c-0.1-0.2-0.1-0.4-0.1-0.6c0-0.2,0-0.5,0.1-0.7c0.1-0.2,0.2-0.4,0.4-0.5c0.2-0.1,0.4-0.3,0.7-0.3c0.3-0.1,0.5-0.1,0.9-0.1
				c0.4,0,0.8,0.1,1.1,0.2c0.3,0.1,0.6,0.3,0.8,0.5l-0.7,1c-0.2-0.1-0.4-0.3-0.6-0.3c-0.2-0.1-0.4-0.1-0.6-0.1
				c-0.4,0-0.6,0.1-0.6,0.4c0,0.1,0,0.2,0.1,0.2s0.1,0.1,0.2,0.2c0.1,0.1,0.2,0.1,0.3,0.1c0.1,0,0.3,0.1,0.4,0.1
				c0.2,0.1,0.4,0.1,0.5,0.2c0.2,0.1,0.3,0.2,0.5,0.3c0.1,0.1,0.3,0.3,0.3,0.5s0.1,0.4,0.1,0.6s0,0.5-0.1,0.7
				c-0.1,0.2-0.2,0.4-0.4,0.6c-0.2,0.2-0.4,0.3-0.7,0.4C114.7,124.6,114.4,124.6,114.1,124.6z"/>
		</g>
	</g>
	<g>
		<g>
			<path class="st4" d="M46.5,77.1c-0.5,0-1-0.1-1.4-0.2c-0.4-0.2-0.8-0.4-1.1-0.7c-0.3-0.3-0.6-0.7-0.7-1.1c-0.2-0.5-0.3-1-0.3-1.6
				c0-0.6,0.1-1.1,0.3-1.6c0.2-0.5,0.4-0.9,0.8-1.2c0.3-0.3,0.7-0.6,1.1-0.7s0.9-0.3,1.4-0.3c0.5,0,1,0.1,1.3,0.3
				c0.4,0.2,0.7,0.4,0.9,0.6l-0.8,1c-0.2-0.2-0.4-0.3-0.6-0.4c-0.2-0.1-0.5-0.2-0.8-0.2c-0.3,0-0.5,0.1-0.8,0.2s-0.4,0.3-0.6,0.5
				c-0.2,0.2-0.3,0.4-0.4,0.7c-0.1,0.3-0.1,0.6-0.1,1c0,0.7,0.2,1.3,0.5,1.7c0.3,0.4,0.8,0.6,1.5,0.6c0.1,0,0.3,0,0.4-0.1
				c0.1,0,0.3-0.1,0.3-0.2v-1.2h-1.2V73h2.6v3.3c-0.2,0.2-0.6,0.4-1,0.6C47.4,77,47,77.1,46.5,77.1z"/>
			<path class="st4" d="M51.7,77.1c-0.3,0-0.5,0-0.7-0.1c-0.2-0.1-0.3-0.2-0.5-0.4c-0.1-0.2-0.2-0.3-0.2-0.6s-0.1-0.5-0.1-0.8v-6
				h1.6v6.1c0,0.2,0,0.3,0.1,0.4c0.1,0.1,0.1,0.1,0.2,0.1c0,0,0.1,0,0.1,0s0.1,0,0.1,0l0.2,1.2c-0.1,0-0.2,0.1-0.3,0.1
				C52,77.1,51.8,77.1,51.7,77.1z"/>
			<path class="st4" d="M55.7,77.1c-0.3,0-0.7-0.1-1-0.2c-0.3-0.1-0.6-0.3-0.9-0.6c-0.2-0.2-0.4-0.5-0.6-0.9
				c-0.1-0.4-0.2-0.8-0.2-1.2c0-0.5,0.1-0.9,0.2-1.2c0.1-0.4,0.3-0.7,0.6-0.9c0.2-0.2,0.5-0.4,0.9-0.6c0.3-0.1,0.7-0.2,1-0.2
				s0.7,0.1,1,0.2c0.3,0.1,0.6,0.3,0.8,0.6s0.4,0.5,0.6,0.9c0.1,0.4,0.2,0.8,0.2,1.2c0,0.5-0.1,0.9-0.2,1.2
				c-0.1,0.4-0.3,0.7-0.6,0.9s-0.5,0.4-0.8,0.6C56.3,77.1,56,77.1,55.7,77.1z M55.7,75.8c0.3,0,0.6-0.1,0.7-0.4
				c0.2-0.3,0.3-0.7,0.3-1.1c0-0.5-0.1-0.9-0.3-1.1c-0.2-0.3-0.4-0.4-0.7-0.4c-0.3,0-0.6,0.1-0.8,0.4c-0.2,0.3-0.2,0.7-0.2,1.1
				c0,0.5,0.1,0.9,0.2,1.1C55.1,75.7,55.3,75.8,55.7,75.8z"/>
			<path class="st4" d="M62.3,77.1c-0.2,0-0.5-0.1-0.7-0.2s-0.5-0.3-0.7-0.5h0L60.7,77h-1.3v-7.7H61v1.9l0,0.8
				c0.2-0.2,0.4-0.3,0.7-0.4c0.2-0.1,0.5-0.2,0.8-0.2c0.3,0,0.6,0.1,0.9,0.2c0.3,0.1,0.5,0.3,0.7,0.6c0.2,0.2,0.3,0.5,0.4,0.9
				c0.1,0.3,0.1,0.7,0.1,1.1c0,0.5-0.1,0.9-0.2,1.3c-0.1,0.4-0.3,0.7-0.5,0.9c-0.2,0.3-0.5,0.4-0.7,0.6
				C62.9,77.1,62.6,77.1,62.3,77.1z M61.9,75.8c0.3,0,0.5-0.1,0.7-0.4c0.2-0.3,0.3-0.7,0.3-1.2c0-1-0.3-1.5-0.9-1.5
				c-0.3,0-0.6,0.2-0.9,0.5v2.2c0.1,0.1,0.3,0.2,0.4,0.3C61.6,75.8,61.8,75.8,61.9,75.8z"/>
			<path class="st4" d="M67,77.1c-0.2,0-0.5,0-0.7-0.1c-0.2-0.1-0.4-0.2-0.5-0.4s-0.2-0.3-0.3-0.5c-0.1-0.2-0.1-0.4-0.1-0.6
				c0-0.6,0.2-1,0.7-1.3c0.5-0.3,1.3-0.5,2.3-0.6c0-0.2-0.1-0.4-0.2-0.6c-0.1-0.1-0.3-0.2-0.6-0.2c-0.2,0-0.5,0-0.7,0.1
				s-0.5,0.2-0.7,0.4l-0.6-1.1c0.4-0.2,0.7-0.4,1.1-0.5c0.4-0.1,0.8-0.2,1.2-0.2c0.7,0,1.2,0.2,1.6,0.6c0.4,0.4,0.6,1,0.6,1.9V77
				h-1.3l-0.1-0.6h0c-0.2,0.2-0.5,0.4-0.7,0.5S67.3,77.1,67,77.1z M67.5,75.9c0.2,0,0.3,0,0.5-0.1c0.1-0.1,0.3-0.2,0.4-0.3v-1
				c-0.6,0.1-1,0.2-1.2,0.4c-0.2,0.2-0.3,0.3-0.3,0.6c0,0.2,0.1,0.3,0.2,0.4C67.2,75.8,67.3,75.9,67.5,75.9z"/>
			<path class="st4" d="M72.9,77.1c-0.3,0-0.5,0-0.7-0.1c-0.2-0.1-0.3-0.2-0.5-0.4c-0.1-0.2-0.2-0.3-0.2-0.6s-0.1-0.5-0.1-0.8v-6H73
				v6.1c0,0.2,0,0.3,0.1,0.4c0.1,0.1,0.1,0.1,0.2,0.1c0,0,0.1,0,0.1,0s0.1,0,0.1,0l0.2,1.2c-0.1,0-0.2,0.1-0.3,0.1
				C73.2,77.1,73.1,77.1,72.9,77.1z"/>
			<path class="st4" d="M79.9,77.1c-0.5,0-0.9-0.1-1.3-0.2s-0.8-0.4-1.1-0.7c-0.3-0.3-0.5-0.7-0.7-1.1c-0.2-0.5-0.3-1-0.3-1.6
				c0-0.6,0.1-1.1,0.3-1.6c0.2-0.5,0.4-0.9,0.7-1.2c0.3-0.3,0.7-0.6,1.1-0.7c0.4-0.2,0.8-0.3,1.3-0.3c0.5,0,0.9,0.1,1.2,0.3
				c0.4,0.2,0.7,0.4,0.9,0.7l-0.9,1c-0.2-0.2-0.4-0.3-0.6-0.4s-0.4-0.2-0.7-0.2c-0.2,0-0.5,0.1-0.7,0.2s-0.4,0.3-0.6,0.5
				c-0.2,0.2-0.3,0.4-0.4,0.7c-0.1,0.3-0.1,0.6-0.1,1c0,0.7,0.2,1.3,0.5,1.7c0.3,0.4,0.7,0.6,1.3,0.6c0.3,0,0.6-0.1,0.8-0.2
				c0.2-0.1,0.4-0.3,0.6-0.5l0.9,1C81.6,76.8,80.8,77.1,79.9,77.1z"/>
			<path class="st4" d="M85.5,77.1c-0.3,0-0.7-0.1-1-0.2c-0.3-0.1-0.6-0.3-0.9-0.6c-0.2-0.2-0.4-0.5-0.6-0.9
				c-0.1-0.4-0.2-0.8-0.2-1.2c0-0.5,0.1-0.9,0.2-1.2c0.1-0.4,0.3-0.7,0.6-0.9c0.2-0.2,0.5-0.4,0.9-0.6c0.3-0.1,0.7-0.2,1-0.2
				s0.7,0.1,1,0.2c0.3,0.1,0.6,0.3,0.8,0.6s0.4,0.5,0.6,0.9c0.1,0.4,0.2,0.8,0.2,1.2c0,0.5-0.1,0.9-0.2,1.2
				c-0.1,0.4-0.3,0.7-0.6,0.9s-0.5,0.4-0.8,0.6C86.2,77.1,85.8,77.1,85.5,77.1z M85.5,75.8c0.3,0,0.6-0.1,0.7-0.4
				c0.2-0.3,0.3-0.7,0.3-1.1c0-0.5-0.1-0.9-0.3-1.1c-0.2-0.3-0.4-0.4-0.7-0.4c-0.3,0-0.6,0.1-0.8,0.4c-0.2,0.3-0.2,0.7-0.2,1.1
				c0,0.5,0.1,0.9,0.2,1.1C84.9,75.7,85.2,75.8,85.5,75.8z"/>
			<path class="st4" d="M89.3,77v-5.5h1.3l0.1,0.7h0c0.2-0.2,0.5-0.4,0.8-0.6s0.6-0.2,1-0.2c0.6,0,1,0.2,1.3,0.6s0.4,0.9,0.4,1.6V77
				h-1.6v-3.2c0-0.4-0.1-0.7-0.2-0.8s-0.3-0.2-0.5-0.2c-0.2,0-0.4,0-0.5,0.1s-0.3,0.2-0.5,0.4V77H89.3z"/>
			<path class="st4" d="M97.6,77.1c-0.3,0-0.6-0.1-0.9-0.2c-0.2-0.1-0.4-0.2-0.6-0.4c-0.2-0.2-0.3-0.4-0.3-0.7
				c-0.1-0.3-0.1-0.5-0.1-0.9v-2.2H95v-1.2l0.8-0.1l0.2-1.5h1.3v1.5h1.3v1.3h-1.3V75c0,0.3,0.1,0.5,0.2,0.7c0.1,0.1,0.3,0.2,0.5,0.2
				c0.1,0,0.2,0,0.3,0s0.2,0,0.2-0.1l0.3,1.2c-0.1,0-0.3,0.1-0.5,0.1C98.1,77.1,97.9,77.1,97.6,77.1z"/>
			<path class="st4" d="M99.8,77v-5.5h1.3l0.1,1h0c0.2-0.4,0.4-0.6,0.7-0.8s0.6-0.3,0.8-0.3c0.2,0,0.3,0,0.4,0c0.1,0,0.2,0,0.3,0.1
				l-0.3,1.4c-0.1,0-0.2-0.1-0.3-0.1c-0.1,0-0.2,0-0.3,0c-0.2,0-0.4,0.1-0.6,0.2c-0.2,0.1-0.4,0.4-0.6,0.8V77H99.8z"/>
			<path class="st4" d="M106.4,77.1c-0.3,0-0.7-0.1-1-0.2c-0.3-0.1-0.6-0.3-0.9-0.6c-0.2-0.2-0.4-0.5-0.6-0.9
				c-0.1-0.4-0.2-0.8-0.2-1.2c0-0.5,0.1-0.9,0.2-1.2c0.1-0.4,0.3-0.7,0.6-0.9c0.2-0.2,0.5-0.4,0.9-0.6c0.3-0.1,0.7-0.2,1-0.2
				s0.7,0.1,1,0.2c0.3,0.1,0.6,0.3,0.8,0.6s0.4,0.5,0.6,0.9c0.1,0.4,0.2,0.8,0.2,1.2c0,0.5-0.1,0.9-0.2,1.2
				c-0.1,0.4-0.3,0.7-0.6,0.9s-0.5,0.4-0.8,0.6C107,77.1,106.7,77.1,106.4,77.1z M106.4,75.8c0.3,0,0.6-0.1,0.7-0.4
				c0.2-0.3,0.3-0.7,0.3-1.1c0-0.5-0.1-0.9-0.3-1.1c-0.2-0.3-0.4-0.4-0.7-0.4c-0.3,0-0.6,0.1-0.8,0.4c-0.2,0.3-0.2,0.7-0.2,1.1
				c0,0.5,0.1,0.9,0.2,1.1C105.8,75.7,106,75.8,106.4,75.8z"/>
			<path class="st4" d="M111.6,77.1c-0.3,0-0.5,0-0.7-0.1c-0.2-0.1-0.3-0.2-0.5-0.4c-0.1-0.2-0.2-0.3-0.2-0.6s-0.1-0.5-0.1-0.8v-6
				h1.6v6.1c0,0.2,0,0.3,0.1,0.4c0.1,0.1,0.1,0.1,0.2,0.1c0,0,0.1,0,0.1,0s0.1,0,0.1,0l0.2,1.2c-0.1,0-0.2,0.1-0.3,0.1
				C112,77.1,111.8,77.1,111.6,77.1z"/>
		</g>
	</g>
	<g>
		<g>
			<path class="st3" d="M161.8,104.2h8.5v2.9c0,0.5,0,0.9-0.1,1.3c-0.1,0.4-0.2,0.8-0.5,1.1c-0.2,0.3-0.5,0.5-0.8,0.7
				c-0.4,0.2-0.8,0.3-1.3,0.3c-0.5,0-0.9-0.1-1.3-0.3c-0.4-0.2-0.7-0.4-0.9-0.7c-0.2-0.3-0.4-0.7-0.5-1.1c-0.1-0.4-0.2-0.8-0.2-1.3
				v-1.1h-2.9V104.2z M166.2,106.1v0.9c0,1,0.5,1.6,1.4,1.6c0.4,0,0.8-0.1,0.9-0.4c0.2-0.3,0.3-0.7,0.3-1.2v-0.9H166.2z"/>
			<path class="st3" d="M161.8,111.7h6.4v1.6l-1.1,0.1v0.1c0.4,0.2,0.8,0.5,1,0.8c0.2,0.3,0.3,0.7,0.3,1c0,0.2,0,0.3,0,0.4
				c0,0.1-0.1,0.2-0.1,0.3l-1.7-0.3c0-0.1,0.1-0.2,0.1-0.3c0-0.1,0-0.2,0-0.4c0-0.2-0.1-0.5-0.3-0.8c-0.2-0.3-0.5-0.5-0.9-0.7h-3.7
				V111.7z"/>
			<path class="st3" d="M161.7,119.6c0-0.4,0.1-0.8,0.2-1.2c0.2-0.4,0.4-0.7,0.7-1c0.3-0.3,0.6-0.5,1.1-0.7c0.4-0.2,0.9-0.3,1.4-0.3
				c0.5,0,1,0.1,1.4,0.3c0.4,0.2,0.8,0.4,1.1,0.7s0.5,0.6,0.7,1c0.2,0.4,0.2,0.8,0.2,1.2c0,0.4-0.1,0.8-0.2,1.2
				c-0.2,0.4-0.4,0.7-0.7,1c-0.3,0.3-0.6,0.5-1.1,0.7c-0.4,0.2-0.9,0.3-1.4,0.3c-0.5,0-1-0.1-1.4-0.3c-0.4-0.2-0.8-0.4-1.1-0.7
				c-0.3-0.3-0.5-0.6-0.7-1S161.7,120,161.7,119.6z M163.2,119.6c0,0.4,0.2,0.7,0.5,0.9c0.3,0.2,0.8,0.3,1.3,0.3s1-0.1,1.3-0.3
				c0.3-0.2,0.5-0.5,0.5-0.9c0-0.4-0.2-0.7-0.5-0.9c-0.3-0.2-0.8-0.3-1.3-0.3s-1,0.1-1.3,0.3C163.4,118.9,163.2,119.2,163.2,119.6z"
				/>
			<path class="st3" d="M161.8,123l3.4,2l3.1-1.9v2.1l-1,0.6c-0.2,0.1-0.4,0.2-0.6,0.3c-0.2,0.1-0.4,0.2-0.6,0.3v0.1
				c0.2,0.1,0.4,0.1,0.6,0.2c0.2,0.1,0.4,0.2,0.6,0.2l1,0.4v2l-3.3-1.9l-3.1,2v-2.1l1.1-0.6c0.2-0.1,0.4-0.2,0.6-0.3
				s0.4-0.2,0.6-0.3V126c-0.2-0.1-0.4-0.2-0.6-0.2c-0.2-0.1-0.4-0.2-0.6-0.2l-1.1-0.5V123z"/>
			<path class="st3" d="M159.3,130.9c0-0.2,0-0.4,0-0.5c0-0.1,0.1-0.3,0.1-0.4l1.5,0.3c0,0.1,0,0.1-0.1,0.2c0,0.1,0,0.2,0,0.2
				c0,0.3,0.1,0.6,0.2,0.7c0.2,0.2,0.4,0.3,0.6,0.4l0.3,0.1l6.3-2.5v1.9l-2.8,0.9c-0.3,0.1-0.6,0.2-0.9,0.3
				c-0.3,0.1-0.6,0.2-0.9,0.2v0.1c0.3,0.1,0.6,0.1,0.9,0.2s0.6,0.1,0.9,0.2l2.8,0.8v1.8l-6.5-2.2c-0.4-0.2-0.8-0.3-1.1-0.5
				s-0.6-0.4-0.8-0.6c-0.2-0.2-0.4-0.5-0.5-0.8C159.4,131.6,159.3,131.2,159.3,130.9z"/>
			<path class="st3" d="M161.7,143.2c0-0.5,0.1-1,0.3-1.5c0.2-0.5,0.5-0.9,0.8-1.3c0.4-0.4,0.8-0.6,1.4-0.9c0.5-0.2,1.2-0.3,1.9-0.3
				c0.7,0,1.3,0.1,1.9,0.3s1,0.5,1.4,0.9c0.4,0.4,0.7,0.8,0.9,1.3s0.3,1,0.3,1.5c0,0.5-0.1,1-0.3,1.5c-0.2,0.4-0.5,0.8-0.8,1.1
				l-1.2-1c0.2-0.2,0.4-0.4,0.5-0.7c0.1-0.2,0.2-0.5,0.2-0.8c0-0.3-0.1-0.6-0.2-0.8c-0.1-0.3-0.3-0.5-0.5-0.7
				c-0.2-0.2-0.5-0.3-0.9-0.4c-0.3-0.1-0.7-0.2-1.1-0.2c-0.9,0-1.6,0.2-2,0.6c-0.5,0.4-0.7,0.9-0.7,1.5c0,0.3,0.1,0.7,0.2,0.9
				c0.2,0.3,0.3,0.5,0.6,0.7l-1.2,1C162.1,145.2,161.7,144.3,161.7,143.2z"/>
			<path class="st3" d="M161.7,149.9c0-0.4,0.1-0.8,0.2-1.2c0.2-0.4,0.4-0.7,0.7-1c0.3-0.3,0.6-0.5,1.1-0.7c0.4-0.2,0.9-0.3,1.4-0.3
				c0.5,0,1,0.1,1.4,0.3c0.4,0.2,0.8,0.4,1.1,0.7s0.5,0.6,0.7,1c0.2,0.4,0.2,0.8,0.2,1.2c0,0.4-0.1,0.8-0.2,1.2
				c-0.2,0.4-0.4,0.7-0.7,1c-0.3,0.3-0.6,0.5-1.1,0.7c-0.4,0.2-0.9,0.3-1.4,0.3c-0.5,0-1-0.1-1.4-0.3c-0.4-0.2-0.8-0.4-1.1-0.7
				c-0.3-0.3-0.5-0.6-0.7-1S161.7,150.3,161.7,149.9z M163.2,149.9c0,0.4,0.2,0.7,0.5,0.9c0.3,0.2,0.8,0.3,1.3,0.3s1-0.1,1.3-0.3
				c0.3-0.2,0.5-0.5,0.5-0.9c0-0.4-0.2-0.7-0.5-0.9c-0.3-0.2-0.8-0.3-1.3-0.3s-1,0.1-1.3,0.3C163.4,149.2,163.2,149.5,163.2,149.9z"
				/>
			<path class="st3" d="M161.8,154.3h6.4v1.6l-0.8,0.1v0.1c0.3,0.3,0.5,0.6,0.7,0.9c0.2,0.3,0.3,0.7,0.3,1.2c0,0.7-0.2,1.2-0.7,1.5
				c-0.5,0.3-1.1,0.5-1.9,0.5h-4v-1.9h3.8c0.5,0,0.8-0.1,1-0.2c0.2-0.1,0.3-0.3,0.3-0.6c0-0.2-0.1-0.5-0.2-0.6
				c-0.1-0.2-0.3-0.4-0.5-0.6h-4.4V154.3z"/>
			<path class="st3" d="M161.7,164.2c0-0.4,0.1-0.7,0.2-1c0.1-0.3,0.3-0.5,0.5-0.7c0.2-0.2,0.5-0.3,0.8-0.4c0.3-0.1,0.6-0.1,1-0.1
				h2.6v-0.9h1.4l0.1,1l1.7,0.2v1.6h-1.7v1.5h-1.5v-1.5h-2.6c-0.4,0-0.6,0.1-0.8,0.2c-0.2,0.2-0.2,0.4-0.2,0.6c0,0.1,0,0.2,0,0.3
				s0.1,0.2,0.1,0.3l-1.4,0.3c-0.1-0.2-0.1-0.4-0.2-0.6C161.7,164.8,161.7,164.5,161.7,164.2z"/>
			<path class="st3" d="M161.8,166.7h6.4v1.6l-1.1,0.1v0.1c0.4,0.2,0.8,0.5,1,0.8s0.3,0.7,0.3,1c0,0.2,0,0.3,0,0.4s-0.1,0.2-0.1,0.3
				l-1.7-0.3c0-0.1,0.1-0.2,0.1-0.3c0-0.1,0-0.2,0-0.4c0-0.2-0.1-0.5-0.3-0.8c-0.2-0.3-0.5-0.5-0.9-0.7h-3.7V166.7z"/>
			<path class="st3" d="M161.7,174.5c0-0.4,0.1-0.8,0.2-1.2s0.4-0.7,0.7-1c0.3-0.3,0.6-0.5,1.1-0.7c0.4-0.2,0.9-0.3,1.4-0.3
				c0.5,0,1,0.1,1.4,0.3c0.4,0.2,0.8,0.4,1.1,0.7c0.3,0.3,0.5,0.6,0.7,1c0.2,0.4,0.2,0.8,0.2,1.2c0,0.4-0.1,0.8-0.2,1.2
				c-0.2,0.4-0.4,0.7-0.7,1s-0.6,0.5-1.1,0.7c-0.4,0.2-0.9,0.3-1.4,0.3c-0.5,0-1-0.1-1.4-0.3c-0.4-0.2-0.8-0.4-1.1-0.7
				c-0.3-0.3-0.5-0.6-0.7-1S161.7,174.9,161.7,174.5z M163.2,174.5c0,0.4,0.2,0.7,0.5,0.9c0.3,0.2,0.8,0.3,1.3,0.3s1-0.1,1.3-0.3
				c0.3-0.2,0.5-0.5,0.5-0.9c0-0.4-0.2-0.7-0.5-0.9c-0.3-0.2-0.8-0.3-1.3-0.3s-1,0.1-1.3,0.3C163.4,173.8,163.2,174.1,163.2,174.5z"
				/>
			<path class="st3" d="M161.7,180.7c0-0.3,0.1-0.6,0.2-0.8s0.2-0.4,0.4-0.5c0.2-0.1,0.4-0.2,0.7-0.3s0.6-0.1,0.9-0.1h7.1v1.9h-7.2
				c-0.2,0-0.3,0-0.4,0.1s-0.1,0.1-0.1,0.2c0,0,0,0.1,0,0.1s0,0.1,0,0.1l-1.4,0.2c0-0.1-0.1-0.2-0.1-0.4S161.7,181,161.7,180.7z"/>
		</g>
	</g>
	<g>
		<g>
			<path class="st4" d="M39.6,197v-7.2h1.8l1.2,3.2c0.1,0.2,0.1,0.4,0.2,0.7s0.1,0.4,0.2,0.7h0c0.1-0.2,0.1-0.4,0.2-0.7
				c0.1-0.2,0.1-0.4,0.2-0.7l1.1-3.2h1.8v7.2h-1.5v-2.6c0-0.2,0-0.4,0-0.6s0-0.4,0.1-0.6c0-0.2,0-0.4,0.1-0.6s0-0.4,0.1-0.6h0
				l-0.6,1.7l-1,2.7h-0.9l-1-2.7l-0.6-1.7h0c0,0.2,0,0.4,0.1,0.6c0,0.2,0,0.4,0.1,0.6c0,0.2,0,0.4,0.1,0.6s0,0.4,0,0.6v2.6H39.6z"/>
			<path class="st4" d="M49.2,197.1c-0.2,0-0.5,0-0.7-0.1c-0.2-0.1-0.4-0.2-0.5-0.4s-0.2-0.3-0.3-0.5c-0.1-0.2-0.1-0.4-0.1-0.6
				c0-0.6,0.2-1,0.7-1.3c0.5-0.3,1.3-0.5,2.3-0.6c0-0.2-0.1-0.4-0.2-0.6c-0.1-0.1-0.3-0.2-0.6-0.2c-0.2,0-0.5,0-0.7,0.1
				s-0.5,0.2-0.7,0.4l-0.6-1.1c0.4-0.2,0.7-0.4,1.1-0.5c0.4-0.1,0.8-0.2,1.2-0.2c0.7,0,1.2,0.2,1.6,0.6c0.4,0.4,0.6,1,0.6,1.9v3.1
				H51l-0.1-0.6h0c-0.2,0.2-0.5,0.4-0.7,0.5S49.5,197.1,49.2,197.1z M49.8,195.9c0.2,0,0.3,0,0.5-0.1c0.1-0.1,0.3-0.2,0.4-0.3v-1
				c-0.6,0.1-1,0.2-1.2,0.4c-0.2,0.2-0.3,0.3-0.3,0.6c0,0.2,0.1,0.3,0.2,0.4C49.4,195.8,49.6,195.9,49.8,195.9z"/>
			<path class="st4" d="M53.6,199v-7.5H55l0.1,0.5h0c0.2-0.2,0.5-0.4,0.7-0.5c0.3-0.1,0.5-0.2,0.8-0.2c0.3,0,0.6,0.1,0.9,0.2
				c0.3,0.1,0.5,0.3,0.7,0.6c0.2,0.2,0.3,0.5,0.4,0.9c0.1,0.3,0.1,0.7,0.1,1.1c0,0.5-0.1,0.9-0.2,1.2c-0.1,0.4-0.3,0.7-0.5,0.9
				s-0.5,0.4-0.7,0.6c-0.3,0.1-0.6,0.2-0.9,0.2c-0.2,0-0.5,0-0.7-0.1c-0.2-0.1-0.4-0.2-0.6-0.4l0.1,0.9v1.6H53.6z M56.1,195.8
				c0.3,0,0.5-0.1,0.7-0.4c0.2-0.3,0.3-0.7,0.3-1.2c0-1-0.3-1.5-0.9-1.5c-0.3,0-0.6,0.2-0.9,0.5v2.2c0.1,0.1,0.3,0.2,0.4,0.3
				C55.8,195.8,56,195.8,56.1,195.8z"/>
			<path class="st4" d="M59.9,199v-7.5h1.3l0.1,0.5h0c0.2-0.2,0.5-0.4,0.7-0.5c0.3-0.1,0.5-0.2,0.8-0.2c0.3,0,0.6,0.1,0.9,0.2
				c0.3,0.1,0.5,0.3,0.7,0.6c0.2,0.2,0.3,0.5,0.4,0.9c0.1,0.3,0.1,0.7,0.1,1.1c0,0.5-0.1,0.9-0.2,1.2c-0.1,0.4-0.3,0.7-0.5,0.9
				s-0.5,0.4-0.7,0.6c-0.3,0.1-0.6,0.2-0.9,0.2c-0.2,0-0.5,0-0.7-0.1c-0.2-0.1-0.4-0.2-0.6-0.4l0.1,0.9v1.6H59.9z M62.4,195.8
				c0.3,0,0.5-0.1,0.7-0.4c0.2-0.3,0.3-0.7,0.3-1.2c0-1-0.3-1.5-0.9-1.5c-0.3,0-0.6,0.2-0.9,0.5v2.2c0.1,0.1,0.3,0.2,0.4,0.3
				C62.1,195.8,62.3,195.8,62.4,195.8z"/>
			<path class="st4" d="M68.7,197.1c-0.4,0-0.8-0.1-1.1-0.2s-0.6-0.3-0.9-0.6c-0.2-0.2-0.4-0.5-0.6-0.9c-0.1-0.4-0.2-0.8-0.2-1.2
				c0-0.4,0.1-0.8,0.2-1.2c0.1-0.4,0.3-0.7,0.6-0.9c0.2-0.2,0.5-0.4,0.8-0.6c0.3-0.1,0.6-0.2,1-0.2c0.4,0,0.7,0.1,1,0.2
				c0.3,0.1,0.5,0.3,0.7,0.5s0.3,0.5,0.4,0.8c0.1,0.3,0.1,0.7,0.1,1c0,0.1,0,0.3,0,0.4s0,0.2,0,0.3h-3.3c0.1,0.4,0.2,0.7,0.5,0.9
				c0.3,0.2,0.6,0.3,0.9,0.3c0.4,0,0.8-0.1,1.2-0.4l0.5,1c-0.3,0.2-0.6,0.3-0.9,0.5C69.3,197.1,69,197.1,68.7,197.1z M67.5,193.7h2
				c0-0.3-0.1-0.6-0.2-0.7c-0.1-0.2-0.4-0.3-0.7-0.3c-0.3,0-0.5,0.1-0.7,0.3C67.7,193.1,67.5,193.3,67.5,193.7z"/>
			<path class="st4" d="M73.9,197.1c-0.3,0-0.6-0.1-0.9-0.2c-0.3-0.1-0.5-0.3-0.7-0.6c-0.2-0.2-0.3-0.5-0.5-0.9
				c-0.1-0.4-0.2-0.8-0.2-1.2s0.1-0.8,0.2-1.2c0.1-0.4,0.3-0.7,0.5-0.9c0.2-0.2,0.5-0.4,0.7-0.6c0.3-0.1,0.6-0.2,0.8-0.2
				c0.3,0,0.6,0.1,0.8,0.2c0.2,0.1,0.4,0.2,0.6,0.4l-0.1-0.8v-1.9h1.6v7.7h-1.3l-0.1-0.5h0c-0.2,0.2-0.4,0.4-0.7,0.5
				S74.2,197.1,73.9,197.1z M74.3,195.8c0.2,0,0.3,0,0.5-0.1s0.3-0.2,0.4-0.4v-2.2c-0.1-0.1-0.3-0.2-0.5-0.3
				c-0.2-0.1-0.3-0.1-0.5-0.1c-0.3,0-0.5,0.1-0.7,0.4c-0.2,0.2-0.3,0.6-0.3,1.1c0,0.5,0.1,0.9,0.3,1.2
				C73.7,195.7,74,195.8,74.3,195.8z"/>
			<path class="st4" d="M83.6,197.1c-0.5,0-0.9-0.1-1.3-0.2s-0.8-0.4-1.1-0.7c-0.3-0.3-0.5-0.7-0.7-1.1c-0.2-0.5-0.3-1-0.3-1.6
				c0-0.6,0.1-1.1,0.3-1.6c0.2-0.5,0.4-0.9,0.7-1.2c0.3-0.3,0.7-0.6,1.1-0.7c0.4-0.2,0.8-0.3,1.3-0.3c0.5,0,0.9,0.1,1.2,0.3
				c0.4,0.2,0.7,0.4,0.9,0.7l-0.9,1c-0.2-0.2-0.4-0.3-0.6-0.4s-0.4-0.2-0.7-0.2c-0.2,0-0.5,0.1-0.7,0.2s-0.4,0.3-0.6,0.5
				c-0.2,0.2-0.3,0.4-0.4,0.7c-0.1,0.3-0.1,0.6-0.1,1c0,0.7,0.2,1.3,0.5,1.7c0.3,0.4,0.7,0.6,1.3,0.6c0.3,0,0.6-0.1,0.8-0.2
				c0.2-0.1,0.4-0.3,0.6-0.5l0.9,1C85.3,196.8,84.5,197.1,83.6,197.1z"/>
			<path class="st4" d="M89.2,197.1c-0.3,0-0.7-0.1-1-0.2c-0.3-0.1-0.6-0.3-0.9-0.6c-0.2-0.2-0.4-0.5-0.6-0.9
				c-0.1-0.4-0.2-0.8-0.2-1.2c0-0.5,0.1-0.9,0.2-1.2c0.1-0.4,0.3-0.7,0.6-0.9c0.2-0.2,0.5-0.4,0.9-0.6c0.3-0.1,0.7-0.2,1-0.2
				s0.7,0.1,1,0.2c0.3,0.1,0.6,0.3,0.8,0.6s0.4,0.5,0.6,0.9c0.1,0.4,0.2,0.8,0.2,1.2c0,0.5-0.1,0.9-0.2,1.2
				c-0.1,0.4-0.3,0.7-0.6,0.9s-0.5,0.4-0.8,0.6C89.9,197.1,89.5,197.1,89.2,197.1z M89.2,195.8c0.3,0,0.6-0.1,0.7-0.4
				c0.2-0.3,0.3-0.7,0.3-1.1c0-0.5-0.1-0.9-0.3-1.1c-0.2-0.3-0.4-0.4-0.7-0.4c-0.3,0-0.6,0.1-0.8,0.4c-0.2,0.3-0.2,0.7-0.2,1.1
				c0,0.5,0.1,0.9,0.2,1.1C88.6,195.7,88.9,195.8,89.2,195.8z"/>
			<path class="st4" d="M92.9,197v-5.5h1.3l0.1,0.7h0c0.2-0.2,0.5-0.4,0.8-0.6s0.6-0.2,1-0.2c0.6,0,1,0.2,1.3,0.6s0.4,0.9,0.4,1.6
				v3.4h-1.6v-3.2c0-0.4-0.1-0.7-0.2-0.8s-0.3-0.2-0.5-0.2c-0.2,0-0.4,0-0.5,0.1s-0.3,0.2-0.5,0.4v3.7H92.9z"/>
			<path class="st4" d="M101.3,197.1c-0.3,0-0.6-0.1-0.9-0.2c-0.2-0.1-0.4-0.2-0.6-0.4c-0.2-0.2-0.3-0.4-0.3-0.7
				c-0.1-0.3-0.1-0.5-0.1-0.9v-2.2h-0.7v-1.2l0.8-0.1l0.2-1.5h1.3v1.5h1.3v1.3h-1.3v2.2c0,0.3,0.1,0.5,0.2,0.7
				c0.1,0.1,0.3,0.2,0.5,0.2c0.1,0,0.2,0,0.3,0s0.2,0,0.2-0.1l0.3,1.2c-0.1,0-0.3,0.1-0.5,0.1C101.8,197.1,101.6,197.1,101.3,197.1z
				"/>
			<path class="st4" d="M103.5,197v-5.5h1.3l0.1,1h0c0.2-0.4,0.4-0.6,0.7-0.8s0.6-0.3,0.8-0.3c0.2,0,0.3,0,0.4,0
				c0.1,0,0.2,0,0.3,0.1l-0.3,1.4c-0.1,0-0.2-0.1-0.3-0.1c-0.1,0-0.2,0-0.3,0c-0.2,0-0.4,0.1-0.6,0.2c-0.2,0.1-0.4,0.4-0.6,0.8v3.2
				H103.5z"/>
			<path class="st4" d="M110.1,197.1c-0.3,0-0.7-0.1-1-0.2c-0.3-0.1-0.6-0.3-0.9-0.6c-0.2-0.2-0.4-0.5-0.6-0.9
				c-0.1-0.4-0.2-0.8-0.2-1.2c0-0.5,0.1-0.9,0.2-1.2c0.1-0.4,0.3-0.7,0.6-0.9c0.2-0.2,0.5-0.4,0.9-0.6c0.3-0.1,0.7-0.2,1-0.2
				s0.7,0.1,1,0.2c0.3,0.1,0.6,0.3,0.8,0.6s0.4,0.5,0.6,0.9c0.1,0.4,0.2,0.8,0.2,1.2c0,0.5-0.1,0.9-0.2,1.2
				c-0.1,0.4-0.3,0.7-0.6,0.9s-0.5,0.4-0.8,0.6C110.7,197.1,110.4,197.1,110.1,197.1z M110.1,195.8c0.3,0,0.6-0.1,0.7-0.4
				c0.2-0.3,0.3-0.7,0.3-1.1c0-0.5-0.1-0.9-0.3-1.1c-0.2-0.3-0.4-0.4-0.7-0.4c-0.3,0-0.6,0.1-0.8,0.4c-0.2,0.3-0.2,0.7-0.2,1.1
				c0,0.5,0.1,0.9,0.2,1.1C109.5,195.7,109.7,195.8,110.1,195.8z"/>
			<path class="st4" d="M115.3,197.1c-0.3,0-0.5,0-0.7-0.1c-0.2-0.1-0.3-0.2-0.5-0.4c-0.1-0.2-0.2-0.3-0.2-0.6s-0.1-0.5-0.1-0.8v-6
				h1.6v6.1c0,0.2,0,0.3,0.1,0.4c0.1,0.1,0.1,0.1,0.2,0.1c0,0,0.1,0,0.1,0s0.1,0,0.1,0l0.2,1.2c-0.1,0-0.2,0.1-0.3,0.1
				C115.7,197.1,115.5,197.1,115.3,197.1z"/>
		</g>
	</g>
	<g>
		<g>
			<path class="st4" d="M39,149.6v-7.2h1.8l1.2,3.2c0.1,0.2,0.1,0.4,0.2,0.7s0.1,0.4,0.2,0.7h0c0.1-0.2,0.1-0.4,0.2-0.7
				c0.1-0.2,0.1-0.4,0.2-0.7l1.1-3.2h1.8v7.2h-1.5V147c0-0.2,0-0.4,0-0.6s0-0.4,0.1-0.6c0-0.2,0-0.4,0.1-0.6s0-0.4,0.1-0.6h0
				l-0.6,1.7l-1,2.7h-0.9l-1-2.7l-0.6-1.7h0c0,0.2,0,0.4,0.1,0.6c0,0.2,0,0.4,0.1,0.6c0,0.2,0,0.4,0.1,0.6s0,0.4,0,0.6v2.6H39z"/>
			<path class="st4" d="M48.6,149.7c-0.2,0-0.5,0-0.7-0.1c-0.2-0.1-0.4-0.2-0.5-0.4s-0.2-0.3-0.3-0.5c-0.1-0.2-0.1-0.4-0.1-0.6
				c0-0.6,0.2-1,0.7-1.3c0.5-0.3,1.3-0.5,2.3-0.6c0-0.2-0.1-0.4-0.2-0.6c-0.1-0.1-0.3-0.2-0.6-0.2c-0.2,0-0.5,0-0.7,0.1
				s-0.5,0.2-0.7,0.4l-0.6-1.1c0.4-0.2,0.7-0.4,1.1-0.5c0.4-0.1,0.8-0.2,1.2-0.2c0.7,0,1.2,0.2,1.6,0.6c0.4,0.4,0.6,1,0.6,1.9v3.1
				h-1.3l-0.1-0.6h0c-0.2,0.2-0.5,0.4-0.7,0.5S48.9,149.7,48.6,149.7z M49.1,148.5c0.2,0,0.3,0,0.5-0.1c0.1-0.1,0.3-0.2,0.4-0.3v-1
				c-0.6,0.1-1,0.2-1.2,0.4c-0.2,0.2-0.3,0.3-0.3,0.6c0,0.2,0.1,0.3,0.2,0.4C48.8,148.4,48.9,148.5,49.1,148.5z"/>
			<path class="st4" d="M54.9,149.7c-0.3,0-0.6-0.1-0.9-0.2c-0.2-0.1-0.4-0.2-0.6-0.4c-0.2-0.2-0.3-0.4-0.3-0.7
				c-0.1-0.3-0.1-0.5-0.1-0.9v-2.2h-0.7v-1.2l0.8-0.1l0.2-1.5h1.3v1.5H56v1.3h-1.3v2.2c0,0.3,0.1,0.5,0.2,0.7
				c0.1,0.1,0.3,0.2,0.5,0.2c0.1,0,0.2,0,0.3,0s0.2,0,0.2-0.1l0.3,1.2c-0.1,0-0.3,0.1-0.5,0.1C55.4,149.7,55.2,149.7,54.9,149.7z"/>
			<path class="st4" d="M59.3,149.7c-0.4,0-0.8-0.1-1.1-0.2s-0.6-0.3-0.9-0.6c-0.2-0.2-0.4-0.5-0.6-0.9c-0.1-0.4-0.2-0.8-0.2-1.2
				c0-0.4,0.1-0.8,0.2-1.2c0.1-0.4,0.3-0.7,0.6-0.9c0.2-0.2,0.5-0.4,0.8-0.6c0.3-0.1,0.6-0.2,1-0.2c0.4,0,0.7,0.1,1,0.2
				c0.3,0.1,0.5,0.3,0.7,0.5s0.3,0.5,0.4,0.8c0.1,0.3,0.1,0.7,0.1,1c0,0.1,0,0.3,0,0.4s0,0.2,0,0.3h-3.3c0.1,0.4,0.2,0.7,0.5,0.9
				c0.3,0.2,0.6,0.3,0.9,0.3c0.4,0,0.8-0.1,1.2-0.4l0.5,1c-0.3,0.2-0.6,0.3-0.9,0.5C59.9,149.7,59.6,149.7,59.3,149.7z M58.1,146.3
				h2c0-0.3-0.1-0.6-0.2-0.7c-0.1-0.2-0.4-0.3-0.7-0.3c-0.3,0-0.5,0.1-0.7,0.3C58.2,145.6,58.1,145.9,58.1,146.3z"/>
			<path class="st4" d="M62.5,149.6v-5.5h1.3l0.1,1h0c0.2-0.4,0.4-0.6,0.7-0.8s0.6-0.3,0.8-0.3c0.2,0,0.3,0,0.4,0
				c0.1,0,0.2,0,0.3,0.1l-0.3,1.4c-0.1,0-0.2-0.1-0.3-0.1c-0.1,0-0.2,0-0.3,0c-0.2,0-0.4,0.1-0.6,0.2c-0.2,0.1-0.4,0.4-0.6,0.8v3.2
				H62.5z"/>
			<path class="st4" d="M67.7,143.3c-0.3,0-0.5-0.1-0.7-0.2c-0.2-0.2-0.3-0.4-0.3-0.6c0-0.2,0.1-0.5,0.3-0.6
				c0.2-0.2,0.4-0.2,0.7-0.2c0.3,0,0.5,0.1,0.7,0.2s0.3,0.4,0.3,0.6c0,0.3-0.1,0.5-0.3,0.6C68.2,143.2,68,143.3,67.7,143.3z
				 M66.9,149.6v-5.5h1.6v5.5H66.9z"/>
			<path class="st4" d="M71.3,149.7c-0.2,0-0.5,0-0.7-0.1c-0.2-0.1-0.4-0.2-0.5-0.4s-0.2-0.3-0.3-0.5c-0.1-0.2-0.1-0.4-0.1-0.6
				c0-0.6,0.2-1,0.7-1.3c0.5-0.3,1.3-0.5,2.3-0.6c0-0.2-0.1-0.4-0.2-0.6c-0.1-0.1-0.3-0.2-0.6-0.2c-0.2,0-0.5,0-0.7,0.1
				s-0.5,0.2-0.7,0.4l-0.6-1.1c0.4-0.2,0.7-0.4,1.1-0.5c0.4-0.1,0.8-0.2,1.2-0.2c0.7,0,1.2,0.2,1.6,0.6c0.4,0.4,0.6,1,0.6,1.9v3.1
				H73l-0.1-0.6h0c-0.2,0.2-0.5,0.4-0.7,0.5S71.6,149.7,71.3,149.7z M71.9,148.5c0.2,0,0.3,0,0.5-0.1c0.1-0.1,0.3-0.2,0.4-0.3v-1
				c-0.6,0.1-1,0.2-1.2,0.4c-0.2,0.2-0.3,0.3-0.3,0.6c0,0.2,0.1,0.3,0.2,0.4C71.5,148.4,71.7,148.5,71.9,148.5z"/>
			<path class="st4" d="M77.2,149.7c-0.3,0-0.5,0-0.7-0.1c-0.2-0.1-0.3-0.2-0.5-0.4c-0.1-0.2-0.2-0.3-0.2-0.6s-0.1-0.5-0.1-0.8v-6
				h1.6v6.1c0,0.2,0,0.3,0.1,0.4c0.1,0.1,0.1,0.1,0.2,0.1c0,0,0.1,0,0.1,0s0.1,0,0.1,0l0.2,1.2c-0.1,0-0.2,0.1-0.3,0.1
				C77.6,149.7,77.4,149.7,77.2,149.7z"/>
			<path class="st4" d="M84.2,149.7c-0.5,0-0.9-0.1-1.3-0.2s-0.8-0.4-1.1-0.7c-0.3-0.3-0.5-0.7-0.7-1.1c-0.2-0.5-0.3-1-0.3-1.6
				c0-0.6,0.1-1.1,0.3-1.6c0.2-0.5,0.4-0.9,0.7-1.2c0.3-0.3,0.7-0.6,1.1-0.7c0.4-0.2,0.8-0.3,1.3-0.3c0.5,0,0.9,0.1,1.2,0.3
				c0.4,0.2,0.7,0.4,0.9,0.7l-0.9,1c-0.2-0.2-0.4-0.3-0.6-0.4s-0.4-0.2-0.7-0.2c-0.2,0-0.5,0.1-0.7,0.2s-0.4,0.3-0.6,0.5
				c-0.2,0.2-0.3,0.4-0.4,0.7c-0.1,0.3-0.1,0.6-0.1,1c0,0.7,0.2,1.3,0.5,1.7c0.3,0.4,0.7,0.6,1.3,0.6c0.3,0,0.6-0.1,0.8-0.2
				c0.2-0.1,0.4-0.3,0.6-0.5l0.9,1C85.9,149.4,85.1,149.7,84.2,149.7z"/>
			<path class="st4" d="M89.8,149.7c-0.3,0-0.7-0.1-1-0.2c-0.3-0.1-0.6-0.3-0.9-0.6c-0.2-0.2-0.4-0.5-0.6-0.9
				c-0.1-0.4-0.2-0.8-0.2-1.2c0-0.5,0.1-0.9,0.2-1.2c0.1-0.4,0.3-0.7,0.6-0.9c0.2-0.2,0.5-0.4,0.9-0.6c0.3-0.1,0.7-0.2,1-0.2
				s0.7,0.1,1,0.2c0.3,0.1,0.6,0.3,0.8,0.6s0.4,0.5,0.6,0.9c0.1,0.4,0.2,0.8,0.2,1.2c0,0.5-0.1,0.9-0.2,1.2
				c-0.1,0.4-0.3,0.7-0.6,0.9s-0.5,0.4-0.8,0.6C90.5,149.7,90.2,149.7,89.8,149.7z M89.8,148.4c0.3,0,0.6-0.1,0.7-0.4
				c0.2-0.3,0.3-0.7,0.3-1.1c0-0.5-0.1-0.9-0.3-1.1c-0.2-0.3-0.4-0.4-0.7-0.4c-0.3,0-0.6,0.1-0.8,0.4c-0.2,0.3-0.2,0.7-0.2,1.1
				c0,0.5,0.1,0.9,0.2,1.1C89.2,148.3,89.5,148.4,89.8,148.4z"/>
			<path class="st4" d="M93.6,149.6v-5.5h1.3l0.1,0.7h0c0.2-0.2,0.5-0.4,0.8-0.6s0.6-0.2,1-0.2c0.6,0,1,0.2,1.3,0.6s0.4,0.9,0.4,1.6
				v3.4h-1.6v-3.2c0-0.4-0.1-0.7-0.2-0.8s-0.3-0.2-0.5-0.2c-0.2,0-0.4,0-0.5,0.1s-0.3,0.2-0.5,0.4v3.7H93.6z"/>
			<path class="st4" d="M102,149.7c-0.3,0-0.6-0.1-0.9-0.2c-0.2-0.1-0.4-0.2-0.6-0.4c-0.2-0.2-0.3-0.4-0.3-0.7
				c-0.1-0.3-0.1-0.5-0.1-0.9v-2.2h-0.7v-1.2l0.8-0.1l0.2-1.5h1.3v1.5h1.3v1.3h-1.3v2.2c0,0.3,0.1,0.5,0.2,0.7
				c0.1,0.1,0.3,0.2,0.5,0.2c0.1,0,0.2,0,0.3,0s0.2,0,0.2-0.1l0.3,1.2c-0.1,0-0.3,0.1-0.5,0.1C102.5,149.7,102.2,149.7,102,149.7z"
				/>
			<path class="st4" d="M104.1,149.6v-5.5h1.3l0.1,1h0c0.2-0.4,0.4-0.6,0.7-0.8s0.6-0.3,0.8-0.3c0.2,0,0.3,0,0.4,0
				c0.1,0,0.2,0,0.3,0.1l-0.3,1.4c-0.1,0-0.2-0.1-0.3-0.1c-0.1,0-0.2,0-0.3,0c-0.2,0-0.4,0.1-0.6,0.2c-0.2,0.1-0.4,0.4-0.6,0.8v3.2
				H104.1z"/>
			<path class="st4" d="M110.7,149.7c-0.3,0-0.7-0.1-1-0.2c-0.3-0.1-0.6-0.3-0.9-0.6c-0.2-0.2-0.4-0.5-0.6-0.9
				c-0.1-0.4-0.2-0.8-0.2-1.2c0-0.5,0.1-0.9,0.2-1.2c0.1-0.4,0.3-0.7,0.6-0.9c0.2-0.2,0.5-0.4,0.9-0.6c0.3-0.1,0.7-0.2,1-0.2
				s0.7,0.1,1,0.2c0.3,0.1,0.6,0.3,0.8,0.6s0.4,0.5,0.6,0.9c0.1,0.4,0.2,0.8,0.2,1.2c0,0.5-0.1,0.9-0.2,1.2
				c-0.1,0.4-0.3,0.7-0.6,0.9s-0.5,0.4-0.8,0.6C111.4,149.7,111,149.7,110.7,149.7z M110.7,148.4c0.3,0,0.6-0.1,0.7-0.4
				c0.2-0.3,0.3-0.7,0.3-1.1c0-0.5-0.1-0.9-0.3-1.1c-0.2-0.3-0.4-0.4-0.7-0.4c-0.3,0-0.6,0.1-0.8,0.4c-0.2,0.3-0.2,0.7-0.2,1.1
				c0,0.5,0.1,0.9,0.2,1.1C110.1,148.3,110.4,148.4,110.7,148.4z"/>
			<path class="st4" d="M115.9,149.7c-0.3,0-0.5,0-0.7-0.1c-0.2-0.1-0.3-0.2-0.5-0.4c-0.1-0.2-0.2-0.3-0.2-0.6s-0.1-0.5-0.1-0.8v-6
				h1.6v6.1c0,0.2,0,0.3,0.1,0.4c0.1,0.1,0.1,0.1,0.2,0.1c0,0,0.1,0,0.1,0s0.1,0,0.1,0l0.2,1.2c-0.1,0-0.2,0.1-0.3,0.1
				C116.3,149.7,116.1,149.7,115.9,149.7z"/>
		</g>
	</g>
</g>
<g id="Level_Line">
	<line id="XMLID_30_" class="st5" x1="11" y1="1" x2="11" y2="245"/>
	<polyline id="XMLID_32_" class="st5" points="18.5,2 3.5,2 11,2 11,14 	"/>
	<polyline id="XMLID_33_" class="st5" points="3.5,244 18.5,244 11,244 11,232 	"/>
	<line id="XMLID_34_" class="st5" x1="11" y1="48" x2="23" y2="48"/>
	<line id="XMLID_35_" class="st5" x1="11" y1="120.5" x2="23" y2="120.5"/>
	<line id="XMLID_36_" class="st5" x1="11" y1="73" x2="23" y2="73"/>
	<line id="XMLID_37_" class="st5" x1="11" y1="145.5" x2="23" y2="145.5"/>
	<line id="XMLID_38_" class="st5" x1="11" y1="193" x2="23" y2="193"/>
</g>
</svg>
