<?xml version="1.0" encoding="UTF-8"?>
<svg width="7680px" height="4320px" viewBox="0 0 7680 4320" version="1.1" xmlns="http://www.w3.org/2000/svg" xmlns:xlink="http://www.w3.org/1999/xlink">
    <!-- Generator: Sketch 42 (36781) - http://www.bohemiancoding.com/sketch -->
    <title>SD, Full HD, 4K Ultra HD &amp; 8K Ultra HD</title>
    <desc>Created with Sketch.</desc>
    <defs></defs>
    <g id="Page-1" stroke="none" stroke-width="1" fill="none" fill-rule="evenodd">
        <g id="SD,-Full-HD,-4K-Ultra-HD-&amp;-8K-Ultra-HD">
            <rect id="長方形_6" fill="#AED0F6" fill-rule="nonzero" x="0" y="0" width="7680" height="4320"></rect>
            <rect id="長方形_2" fill="#7AB5F7" fill-rule="nonzero" x="0" y="2160" width="3840" height="2160"></rect>
            <rect id="長方形_4" fill="#4087D6" fill-rule="nonzero" x="0" y="3240" width="1920" height="1080"></rect>
            <rect id="長方形_5" fill="#074B98" fill-rule="nonzero" x="0" y="3840" width="640" height="480"></rect>
            <path d="M250.629,4006.94 C241.127,4000.04 228.977,3996.59 214.179,3996.59 C208.233033,3996.5844 202.302113,3997.18754 196.479,3998.39 C191.015375,3999.46292 185.784726,4001.49424 181.029,4004.39 C176.547313,4007.18087 172.834694,4011.04818 170.229,4015.64 C167.529,4020.35 166.179,4026.2 166.179,4033.19 C166.179,4039.79 168.129,4045.14 172.029,4049.24 C176.437576,4053.68299 181.760948,4057.11247 187.629,4059.29 C194.772836,4062.09065 202.152014,4064.24919 209.679,4065.74 C217.879,4067.45 226.229,4069.3 234.729,4071.29 C243.227,4073.3 251.577,4075.65 259.779,4078.34 C267.632553,4080.87337 275.064317,4084.56397 281.829,4089.29 C288.273885,4093.8402 293.606792,4099.78844 297.429,4106.69 C301.329,4113.7 303.279,4122.5 303.279,4133.09 C303.279,4144.49 300.729,4154.24 295.629,4162.34 C290.64106,4170.3256 283.926434,4177.09148 275.979,4182.14 C267.729618,4187.34822 258.647909,4191.10267 249.129,4193.24 C239.443112,4195.51493 229.528443,4196.67248 219.579,4196.69 C208.076466,4196.75661 196.619322,4195.24246 185.529,4192.19 C175.355175,4189.45138 165.788342,4184.82063 157.329,4178.54 C149.163487,4172.37339 142.582281,4164.35254 138.129,4155.14 C133.427,4145.65 131.077,4134.4 131.079,4121.39 L158.079,4121.39 C158.079,4130.39 159.829,4138.14 163.329,4144.64 C166.666288,4150.9578 171.382857,4156.44337 177.129,4160.69 C183.124629,4165.03463 189.89648,4168.19144 197.079,4169.99 C204.716002,4172 212.581941,4173.00845 220.479,4172.99 C226.970396,4172.98136 233.44739,4172.37884 239.829,4171.19 C245.977139,4170.11807 251.906591,4168.04023 257.379,4165.04 C262.509359,4162.21336 266.843225,4158.13746 269.979,4153.19 C273.179,4148.2 274.779,4141.8 274.779,4133.99 C274.779,4126.6 272.829,4120.6 268.929,4115.99 C264.639297,4111.11665 259.307474,4107.27159 253.329,4104.74 C246.23486,4101.65427 238.847435,4099.2923 231.279,4097.69 C223.079,4095.89 214.729,4094.04 206.229,4092.14 C197.725667,4090.25 189.375667,4088.05 181.179,4085.54 C173.416473,4083.24868 165.999314,4079.91852 159.129,4075.64 C152.735592,4071.65969 147.386821,4066.20806 143.529,4059.74 C139.629,4053.25 137.679,4045.1 137.679,4035.29 C137.679,4024.49 139.879,4015.14 144.279,4007.24 C148.554758,3999.47913 154.559843,3992.80681 161.829,3987.74 C169.401781,3982.51893 177.828449,3978.66094 186.729,3976.34 C196.073235,3973.83905 205.705875,3972.57823 215.379,3972.59 C225.707932,3972.50865 236.000669,3973.82047 245.979,3976.49 C254.967715,3978.89579 263.383327,3983.07809 270.729,3988.79 C277.874506,3994.4607 283.622237,4001.69668 287.529,4009.94 C291.625667,4018.45 293.875667,4028.6 294.279,4040.39 L267.279,4040.39 C265.676333,4025 260.126333,4013.85 250.629,4006.94 Z M407.857,4167.89 C411.867232,4167.84641 415.872549,4167.59608 419.857,4167.14 C425.081764,4166.55126 430.217888,4165.34276 435.157,4163.54 C440.842574,4161.49868 446.237978,4158.72534 451.207,4155.29 C456.850116,4151.34257 461.686869,4146.35308 465.457,4140.59 C469.657,4134.4 473.107,4126.65 475.807,4117.34 C478.507,4108.03 479.857,4096.78 479.857,4083.59 C479.994629,4072.03078 478.73551,4060.49724 476.107,4049.24 C473.939656,4039.84518 469.741326,4031.03893 463.807,4023.44 C457.963155,4016.24338 450.37132,4010.6657 441.757,4007.24 C432.757,4003.55 421.657,4001.7 408.457,4001.69 L360.457,4001.69 L360.457,4167.89 L407.857,4167.89 L407.857,4167.89 Z M405.457,3977.69 C438.457,3977.69 463.857,3986.09 481.657,4002.89 C499.457,4019.69 508.357,4045.29 508.357,4079.69 C508.357,4097.69 506.357,4113.64 502.357,4127.54 C498.357,4141.44 492.157,4153.14 483.757,4162.64 C475.357,4172.15 464.657,4179.4 451.657,4184.39 C438.657,4189.4 423.257,4191.9 405.457,4191.89 L331.957,4191.89 L331.957,3977.69 L405.457,3977.69 L405.457,3977.69 Z" id="SD" fill="#FFFFFF"></path>
            <path d="M914.442,3380.4 L914.442,3408.4 L783.542,3408.4 L783.542,3487.85 L898.342,3487.85 L898.342,3515.85 L783.542,3515.85 L783.542,3630.3 L750.292,3630.3 L750.292,3380.4 L914.442,3380.4 Z M1049.85,3630.3 L1049.85,3601.6 L1049.15,3601.6 C1042.85,3612.8 1034.8,3621.02667 1025,3626.28 C1015.2,3631.53333 1003.651,3634.15667 990.353,3634.15 C978.453,3634.15 968.536333,3632.57667 960.603,3629.43 C953.155941,3626.6249 946.535557,3621.98891 941.353,3615.95 C936.341576,3609.90574 932.806554,3602.77749 931.028,3595.13 C928.961609,3586.35569 927.962707,3577.36389 928.053,3568.35 L928.053,3449.35 L957.8,3449.35 L957.8,3571.85 C957.8,3583.05 961.066667,3591.91667 967.6,3598.45 C974.133333,3604.98333 983.116667,3608.25 994.55,3608.25 C1003.64667,3608.25 1011.52233,3606.85 1018.177,3604.05 C1024.57107,3601.43707 1030.26341,3597.36133 1034.797,3592.15 C1039.30635,3586.87887 1042.70128,3580.74895 1044.777,3574.13 C1047.05325,3566.82226 1048.17343,3559.20366 1048.097,3551.55 L1048.097,3449.35 L1077.847,3449.35 L1077.847,3630.3 L1049.847,3630.3 L1049.85,3630.3 Z M1146.24,3380.4 L1146.24,3630.3 L1116.49,3630.3 L1116.49,3380.4 L1146.24,3380.4 Z M1215.5,3380.4 L1215.5,3630.3 L1185.75,3630.3 L1185.75,3380.4 L1215.5,3380.4 Z M1362.15,3380.4 L1362.15,3487.85 L1493.75,3487.85 L1493.75,3380.4 L1527,3380.4 L1527,3630.3 L1493.75,3630.3 L1493.75,3515.85 L1362.15,3515.85 L1362.15,3630.3 L1328.9,3630.3 L1328.9,3380.4 L1362.15,3380.4 Z M1662.62,3602.3 C1666.35333,3602.3 1671.02,3602.01 1676.62,3601.43 C1682.71416,3600.7351 1688.70537,3599.3254 1694.47,3597.23 C1701.09945,3594.84135 1707.39175,3591.60444 1713.19,3587.6 C1719.7741,3582.99359 1725.41843,3577.17276 1729.82,3570.45 C1734.72,3563.22 1738.74333,3554.18 1741.89,3543.33 C1745.03667,3532.48 1746.61333,3519.35333 1746.62,3503.95 C1746.62,3489.02 1745.16,3475.66333 1742.24,3463.88 C1739.32,3452.09667 1734.53667,3442.06333 1727.89,3433.78 C1721.07873,3425.37922 1712.22185,3418.87086 1702.17,3414.88 C1691.67,3410.56 1678.72,3408.4 1663.32,3408.4 L1607.32,3408.4 L1607.32,3602.3 L1662.62,3602.3 L1662.62,3602.3 Z M1659.82,3380.4 C1698.32,3380.4 1727.95333,3390.2 1748.72,3409.8 C1769.48667,3429.4 1779.87,3459.26667 1779.87,3499.4 C1779.87,3520.4 1777.53667,3539.01 1772.87,3555.23 C1768.20333,3571.45 1760.97,3585.1 1751.17,3596.18 C1741.37,3607.26 1728.88667,3615.71667 1713.72,3621.55 C1698.55333,3627.38333 1680.58667,3630.3 1659.82,3630.3 L1574.07,3630.3 L1574.07,3380.4 L1659.82,3380.4 Z" id="Full_HD" fill="#FFFFFF"></path>
            <path d="M2558.28,511.885 C2564.36896,525.383421 2573.44788,537.320401 2584.83,546.793 C2596.43407,556.226709 2609.80569,563.2474 2624.16,567.443 C2639.79288,572.115582 2656.03411,574.435661 2672.35,574.327 C2705.78,574.327 2733.31333,564.493667 2754.95,544.827 C2776.58667,525.160333 2787.40333,497.627 2787.4,462.227 C2787.4,426.827 2776.42,400.113 2754.46,382.085 C2732.49,364.062333 2704.46333,355.048333 2670.38,355.043 C2654.39266,354.988774 2638.48587,357.308738 2623.18,361.927 C2608.09,366.521 2595.14333,373.404333 2584.34,382.577 C2573.46598,391.829199 2564.59782,403.206375 2558.28,416.01 C2551.72,429.130667 2548.44333,444.536333 2548.45,462.227 C2548.45,481.248333 2551.72667,497.801 2558.28,511.885 Z M2476.66,383.068 C2487.50908,361.471839 2502.94978,342.509534 2521.9,327.51 C2541.42491,312.160591 2563.58354,300.497741 2587.29,293.093 C2612.24933,285.167457 2638.29277,281.186209 2664.48,281.293 C2702.49,281.293 2734.94,286.373667 2761.83,296.535 C2788.69667,306.706333 2810.49333,320.145333 2827.22,336.852 C2843.53053,352.941849 2856.11884,372.409022 2864.1,393.885 C2871.89274,414.806629 2875.88873,436.951203 2875.9,459.277 C2876.13858,489.936275 2867.05001,519.943533 2849.84,545.318 C2832.46,571.222667 2809.02333,590.725667 2779.53,603.827 C2821.48,616.947667 2852.62,638.417 2872.95,668.235 C2893.26,698.073 2903.42,734.620333 2903.43,777.877 C2903.43,811.971 2897.36667,842.126333 2885.24,868.343 C2873.1,894.571 2856.71,916.696 2836.07,934.718 C2815.42,952.756 2791,966.359 2762.81,975.527 C2734.62,984.695 2704.46667,989.283667 2672.35,989.293 C2638.91,989.293 2607.77,985.032 2578.93,976.51 C2550.08,967.998 2525.00667,954.887 2503.71,937.177 C2482.4,919.477 2465.68333,897.352 2453.56,870.802 C2441.42,844.252 2435.35333,813.277 2435.36,777.877 C2435.36,736.577 2445.85,700.685333 2466.83,670.202 C2487.81,639.718667 2517.96667,617.593667 2557.3,603.827 C2528.31368,592.444195 2503.57543,572.344363 2486.5,546.302 C2468.8,519.752 2459.95,490.743667 2459.95,459.277 C2459.95,430.437 2465.52,405.034 2476.66,383.068 L2476.66,383.068 Z M2565.66,880.635 C2593.51,904.573 2629.07333,916.537 2672.35,916.527 C2693.32,916.527 2712.49333,913.085333 2729.87,906.202 C2746.6459,899.698732 2762.00738,890.015632 2775.11,877.685 C2787.82873,865.648491 2797.87882,851.07586 2804.61,834.91 C2811.49,818.531333 2814.93,800.503667 2814.93,780.827 C2815.108,762.668931 2811.2447,744.698627 2803.62,728.218 C2796.21431,712.345403 2785.68058,698.131161 2772.65,686.427 C2744.77603,661.582174 2708.69898,647.922831 2671.36,648.077 C2651.79943,647.954919 2632.35673,651.112328 2613.84,657.418 C2596.48859,663.256275 2580.45204,672.443993 2566.64,684.46 C2553.27066,696.163587 2542.54335,710.576771 2535.17,726.743 C2527.63,743.137 2523.86,761.492667 2523.86,781.81 C2523.86,823.771333 2537.79333,856.713 2565.66,880.635 L2565.66,880.635 Z M3112.88,276.377 L3112.88,626.443 L3468.85,276.377 L3589.8,276.377 L3293.81,559.577 L3601.6,978.477 L3483.6,978.477 L3229.9,623.493 L3112.88,732.643 L3112.88,978.477 L3019.46,978.477 L3019.46,276.377 L3112.88,276.377 Z M4339.09,926.852 C4291.23,971.762 4223.05333,994.214667 4134.56,994.21 C4044.09,994.21 3973.45333,972.740667 3922.65,929.802 C3871.84667,886.863333 3846.44333,818.521667 3846.44,724.777 L3846.44,276.377 L3939.86,276.377 L3939.86,724.777 C3939.86,787.710333 3956.57667,835.402 3990.01,867.852 C4023.44333,900.302 4071.62667,916.527 4134.56,916.527 C4194.2,916.527 4239.59667,900.302 4270.75,867.852 C4301.88,835.402 4317.45,787.710333 4317.46,724.777 L4317.46,276.377 L4410.87,276.377 L4410.87,724.777 C4410.87,814.597667 4386.94333,881.956 4339.09,926.852 Z M4635.06,276.377 L4635.06,978.477 L4551.48,978.477 L4551.48,276.377 L4635.06,276.377 Z M4982.16,470.093 L4982.16,543.843 L4880.88,543.843 L4880.88,859.493 C4880.88,869.327 4881.7,877.193667 4883.34,883.093 C4884.72352,888.643826 4888.0336,893.522823 4892.68,896.86 C4897.26,900.148 4903.65,902.278667 4911.85,903.252 C4922.4663,904.355237 4933.13721,904.847715 4943.81,904.727 L4982.16,904.727 L4982.16,978.477 L4918.24,978.477 C4896.61,978.477 4878.09333,977.002 4862.69,974.052 C4847.27,971.102 4834.81333,965.693667 4825.32,957.827 C4815.81,949.960333 4808.76333,938.815667 4804.18,924.393 C4799.58,909.981 4797.28333,890.97 4797.29,867.36 L4797.29,543.843 L4710.76,543.843 L4710.76,470.093 L4797.29,470.093 L4797.29,317.677 L4880.88,317.677 L4880.88,470.093 L4982.16,470.093 L4982.16,470.093 Z M5150.3,470.093 L5150.3,577.277 L5152.26,577.277 C5172.58,535.977 5197.49333,505.493667 5227,485.827 C5256.50667,466.160333 5293.87333,456.982333 5339.1,458.293 L5339.1,546.793 C5305.66,546.793 5277.14333,551.382 5253.55,560.56 C5229.95,569.748 5210.93667,583.187 5196.51,600.877 C5182.09,618.577 5171.60333,640.046333 5165.05,665.285 C5158.49667,690.523667 5155.21667,719.532 5155.21,752.31 L5155.21,978.477 L5071.63,978.477 L5071.63,470.093 L5150.3,470.093 L5150.3,470.093 Z M5852.39,911.61 C5842.56,914.236667 5834.03667,915.547667 5826.82,915.543 C5813.7,915.543 5806,910.964333 5803.72,901.807 C5801.41,892.649667 5800.26,878.258333 5800.27,858.633 L5800.27,597.619 C5800.27,568.196333 5794.7,544.325 5783.56,526.005 C5772.84189,508.116295 5757.57335,493.388452 5739.31,483.322 C5720.95,473.182 5700.46333,466.478 5677.85,463.21 C5655.21746,459.933598 5632.37846,458.290353 5609.51,458.293 C5580.65,458.293 5553.60667,461.243 5528.38,467.143 C5503.14,473.043 5480.68667,482.712667 5461.02,496.152 C5441.30078,509.655138 5425.1134,527.6972 5413.82,548.76 C5402.02,570.393333 5395.46667,596.943333 5394.16,628.41 L5477.74,628.41 C5479.71,591.043333 5492.49333,565.640667 5516.09,552.202 C5539.68667,538.763333 5569.18667,532.043667 5604.59,532.043 C5617.92061,532.059841 5631.23236,533.045773 5644.42,534.993 C5657.15159,536.732934 5669.47101,540.728787 5680.8,546.793 C5691.75207,552.821781 5700.91251,561.643057 5707.35,572.36 C5714.23,583.514667 5717.67,598.264667 5717.67,616.61 C5717.67,632.343333 5713.08333,644.307333 5703.91,652.502 C5694.72,660.706 5682.26333,666.933667 5666.54,671.185 C5650.81,675.456333 5632.62,678.734 5611.97,681.018 C5591.32,683.322667 5569.52,686.764333 5546.57,691.343 C5524.94,695.276333 5503.8,700.193 5483.15,706.093 C5463.43363,711.553934 5444.8048,720.369053 5428.08,732.152 C5411.82973,743.841823 5398.53063,759.161464 5389.24,776.893 C5379.41,795.254333 5374.49333,818.854333 5374.49,847.693 C5374.49,873.260333 5378.91667,895.057667 5387.77,913.085 C5396.62,931.123 5408.58333,945.709 5423.66,956.843 C5438.72667,967.998333 5456.59,976.193 5477.25,981.427 C5498.63471,986.758258 5520.60102,989.400665 5542.64,989.293 C5578.04,989.293 5610.98333,983.229333 5641.47,971.102 C5671.95667,958.974667 5698.67,939.144 5721.61,911.61 C5721.61,939.143333 5728,958.974 5740.78,971.102 C5753.57,983.224 5770.78,989.287667 5792.41,989.293 C5817.97,989.293 5837.96333,985.032 5852.39,976.51 L5852.39,911.61 L5852.39,911.61 Z M5716.69,801.062 C5716.69,812.8 5713.74,825.358 5707.84,838.736 C5701.94,852.102667 5692.76333,864.496667 5680.31,875.918 C5667.85667,887.339333 5651.79333,896.8 5632.12,904.3 C5612.46,911.798 5588.86,915.547 5561.32,915.547 C5548.76179,915.611558 5536.23412,914.303798 5523.96,911.647 C5512.93605,909.356685 5502.43202,905.043184 5492.98,898.925 C5484.09604,893.025109 5476.69388,885.154113 5471.35,875.925 C5465.77,866.458333 5462.98333,854.878667 5462.99,841.186 C5462.99,820.319333 5467.74333,803.848333 5477.25,791.773 C5486.74,779.697 5499.03,770.401333 5514.12,763.886 C5529.2,757.372 5546.24667,752.645 5565.26,749.705 C5584.26,746.771667 5603.10667,744.159667 5621.8,741.869 C5640.48,739.595 5658.34333,736.661667 5675.39,733.069 C5692.43667,729.476333 5706.20333,723.766 5716.69,715.938 L5716.69,801.073 L5716.69,801.062 Z M6212.28,276.377 L6212.28,578.26 L6582.01,578.26 L6582.01,276.377 L6675.43,276.377 L6675.43,978.477 L6582.01,978.477 L6582.01,656.927 L6212.28,656.927 L6212.28,978.477 L6118.86,978.477 L6118.86,276.377 L6212.28,276.377 L6212.28,276.377 Z M7077.6,899.81 C7090.74301,899.653127 7103.86972,898.83275 7116.93,897.352 C7132.66,895.723333 7149.37667,891.79 7167.08,885.552 C7185.7112,878.8485 7203.39513,869.758807 7219.69,858.51 C7237.05,846.71 7252.62,830.649 7266.4,810.327 C7280.16,790.015 7291.46667,764.612 7300.32,734.118 C7309.17,703.634667 7313.59667,666.759667 7313.6,623.493 C7313.6,581.547667 7309.5,544.017333 7301.3,510.902 C7293.1,477.806 7279.66333,449.617 7260.99,426.335 C7242.3,403.073 7218.20667,385.373 7188.71,373.235 C7159.21,361.112333 7122.82667,355.048333 7079.56,355.043 L6922.23,355.043 L6922.23,899.81 L7077.6,899.81 Z M7069.73,276.377 C7177.9,276.377 7261.15667,303.910333 7319.5,358.977 C7377.84333,414.043667 7407.01333,497.954667 7407.01,610.71 C7407.01,669.71 7400.45667,721.990667 7387.35,767.552 C7374.22,813.122667 7353.89667,851.472667 7326.38,882.602 C7298.85,913.746 7263.77667,937.509667 7221.16,953.893 C7178.54,970.287 7128.06333,978.481667 7069.73,978.477 L6828.81,978.477 L6828.81,276.377 L7069.73,276.377 Z" id="_8K_Ultra_HD" fill="#FFFFFF"></path>
            <path d="M1364.15,2387.3 L1363.15,2387.3 L1245.15,2560.8 L1364.15,2560.8 L1364.15,2387.3 Z M1452.15,2560.8 L1452.15,2598.3 L1404.15,2598.3 L1404.15,2681.3 L1364.15,2681.3 L1364.15,2598.3 L1208.65,2598.3 L1208.65,2557.3 L1370.15,2326.8 L1404.15,2326.8 L1404.15,2560.8 L1452.15,2560.8 Z M1542.7,2324.3 L1542.7,2502.3 L1723.7,2324.3 L1785.2,2324.3 L1634.7,2468.3 L1791.2,2681.3 L1731.2,2681.3 L1602.2,2500.8 L1542.7,2556.3 L1542.7,2681.3 L1495.2,2681.3 L1495.2,2324.3 L1542.7,2324.3 Z M2166.2,2655.05 C2141.86,2677.89 2107.19333,2689.30667 2062.2,2689.3 C2016.2,2689.3 1980.28333,2678.38333 1954.45,2656.55 C1928.61,2634.73 1915.69333,2599.98 1915.7,2552.3 L1915.7,2324.3 L1963.2,2324.3 L1963.2,2552.3 C1963.2,2584.3 1971.7,2608.55 1988.7,2625.05 C2005.7,2641.55 2030.2,2649.8 2062.2,2649.8 C2092.53333,2649.8 2115.61667,2641.55 2131.45,2625.05 C2147.28333,2608.55 2155.2,2584.3 2155.2,2552.3 L2155.2,2324.3 L2202.7,2324.3 L2202.7,2552.3 C2202.7,2597.98 2190.53333,2632.23 2166.2,2655.05 Z M2305.04,2324.3 L2305.04,2681.3 L2262.54,2681.3 L2262.54,2324.3 L2305.04,2324.3 Z M2471.53,2422.8 L2471.53,2460.3 L2420.03,2460.3 L2420.03,2620.8 C2419.92405,2624.8373 2420.34425,2628.87121 2421.28,2632.8 C2421.98855,2635.62036 2423.67092,2638.09964 2426.03,2639.8 C2428.36,2641.48 2431.61,2642.55 2435.78,2643.05 C2441.17784,2643.61088 2446.60344,2643.86129 2452.03,2643.8 L2471.53,2643.8 L2471.53,2681.3 L2439.03,2681.3 C2429.56392,2681.428 2420.10648,2680.67476 2410.78,2679.05 C2402.95,2677.55 2396.61667,2674.8 2391.78,2670.8 C2386.94333,2666.8 2383.36,2661.13333 2381.03,2653.8 C2378.69667,2646.48 2377.53,2636.81333 2377.53,2624.8 L2377.53,2460.3 L2333.53,2460.3 L2333.53,2422.8 L2377.53,2422.8 L2377.53,2345.3 L2420.03,2345.3 L2420.03,2422.8 L2471.53,2422.8 Z M2545.58,2422.8 L2545.58,2477.3 L2546.58,2477.3 C2556.9,2456.3 2569.56667,2440.8 2584.58,2430.8 C2599.58,2420.8 2618.58,2416.13333 2641.58,2416.8 L2641.58,2461.8 C2624.58,2461.8 2610.08,2464.13333 2598.08,2468.8 C2586.08,2473.48 2576.41333,2480.31333 2569.08,2489.3 C2561.74,2498.3 2556.40667,2509.21667 2553.08,2522.05 C2549.74,2534.89 2548.07333,2549.64 2548.08,2566.3 L2548.08,2681.3 L2505.58,2681.3 L2505.58,2422.8 L2545.58,2422.8 Z M2894.77,2647.3 C2890.54064,2648.52264 2886.17128,2649.19485 2881.77,2649.3 C2875.1,2649.3 2871.18333,2646.97333 2870.02,2642.32 C2868.85667,2637.66667 2868.27333,2630.35 2868.27,2620.37 L2868.27,2487.65 C2868.27,2472.69 2865.43667,2460.55 2859.77,2451.23 C2854.3207,2442.13442 2846.55682,2434.64659 2837.27,2429.53 C2827.55918,2424.25481 2816.97044,2420.78848 2806.02,2419.3 C2794.51144,2417.63593 2782.89824,2416.80045 2771.27,2416.8 C2757.39289,2416.71233 2743.5518,2418.22226 2730.02,2421.3 C2717.78665,2424.0478 2706.17199,2429.04973 2695.77,2436.05 C2685.74329,2442.91609 2677.51243,2452.09007 2671.77,2462.8 C2665.77,2473.8 2662.43667,2487.3 2661.77,2503.3 L2704.27,2503.3 C2705.27,2484.3 2711.77,2471.38333 2723.77,2464.55 C2735.77,2457.73 2750.77,2454.31333 2768.77,2454.3 C2775.54746,2454.30792 2782.31535,2454.80925 2789.02,2455.8 C2795.49452,2456.68342 2801.75941,2458.71528 2807.52,2461.8 C2813.08729,2464.86752 2817.74465,2469.35238 2821.02,2474.8 C2824.52,2480.48 2826.27,2487.98 2826.27,2497.3 C2826.27,2505.3 2823.93667,2511.38333 2819.27,2515.55 C2814.6,2519.73 2808.26667,2522.89667 2800.27,2525.05 C2791.16259,2527.42891 2781.88497,2529.10055 2772.52,2530.05 C2762.02,2531.23 2750.93667,2532.98 2739.27,2535.3 C2728.27,2537.3 2717.52,2539.8 2707.02,2542.8 C2696.99685,2545.58087 2687.52582,2550.0627 2679.02,2556.05 C2670.76034,2561.99785 2663.99858,2569.78671 2659.27,2578.8 C2654.27,2588.14 2651.77,2600.14 2651.77,2614.8 C2651.77,2627.8 2654.02,2638.88333 2658.52,2648.05 C2662.7015,2656.84164 2668.96622,2664.47945 2676.77,2670.3 C2684.94647,2676.21206 2694.20532,2680.45924 2704.02,2682.8 C2731.74208,2689.55399 2760.8622,2687.72308 2787.52,2677.55 C2803.02,2671.39 2816.60333,2661.30667 2828.27,2647.3 C2828.27,2661.3 2831.52,2671.38333 2838.02,2677.55 C2844.52,2683.71667 2853.27,2686.8 2864.27,2686.8 C2877.27,2686.8 2887.43667,2684.63333 2894.77,2680.3 L2894.77,2647.3 L2894.77,2647.3 Z M2825.77,2591.09 C2825.61984,2597.72025 2824.08714,2604.24613 2821.27,2610.25 C2817.96813,2617.45773 2813.20005,2623.89804 2807.27,2629.16 C2800.94,2634.96 2792.77333,2639.77 2782.77,2643.59 C2772.76667,2647.41 2760.76667,2649.31333 2746.77,2649.3 C2740.38342,2649.33466 2734.01221,2648.67072 2727.77,2647.32 C2722.16479,2646.15676 2716.82429,2643.96292 2712.02,2640.85 C2707.5026,2637.85174 2703.73822,2633.85124 2701.02,2629.16 C2698.19,2624.34 2696.77333,2618.45 2696.77,2611.49 C2696.77,2600.88 2699.18667,2592.50667 2704.02,2586.37 C2708.97187,2580.13539 2715.42255,2575.25696 2722.77,2572.19 C2731.09368,2568.68757 2739.83129,2566.26457 2748.77,2564.98 C2758.44,2563.48 2768.02333,2562.15 2777.52,2560.99 C2787.02,2559.84 2796.10333,2558.35 2804.77,2556.52 C2813.43667,2554.69 2820.43667,2551.78333 2825.77,2547.8 L2825.77,2591.09 L2825.77,2591.09 Z M3077.77,2324.3 L3077.77,2477.8 L3265.77,2477.8 L3265.77,2324.3 L3313.27,2324.3 L3313.27,2681.3 L3265.77,2681.3 L3265.77,2517.8 L3077.77,2517.8 L3077.77,2681.3 L3030.27,2681.3 L3030.27,2324.3 L3077.77,2324.3 Z M3507.01,2641.3 C3513.69354,2641.22236 3520.36881,2640.80515 3527.01,2640.05 C3535.71738,2639.06555 3544.27721,2637.05147 3552.51,2634.05 C3561.98372,2630.64266 3570.97542,2626.02076 3579.26,2620.3 C3588.09,2614.3 3596.00667,2606.13333 3603.01,2595.8 C3610.01,2585.48 3615.76,2572.56333 3620.26,2557.05 C3624.76,2541.55 3627.01,2522.8 3627.01,2500.8 C3627.01,2479.48 3624.92667,2460.39667 3620.76,2443.55 C3616.59,2426.73 3609.75667,2412.39667 3600.26,2400.55 C3590.76,2388.73 3578.51,2379.73 3563.51,2373.55 C3548.51,2367.39 3530.01,2364.30667 3508.01,2364.3 L3428.01,2364.3 L3428.01,2641.3 L3507.01,2641.3 L3507.01,2641.3 Z M3503.01,2324.3 C3558.01,2324.3 3600.34333,2338.3 3630.01,2366.3 C3659.67667,2394.3 3674.51,2436.96667 3674.51,2494.3 C3674.51,2524.3 3671.17667,2550.88333 3664.51,2574.05 C3657.84,2597.23 3647.50667,2616.73 3633.51,2632.55 C3619.51,2648.39 3601.67667,2660.47333 3580.01,2668.8 C3558.34,2677.14 3532.67333,2681.30667 3503.01,2681.3 L3380.51,2681.3 L3380.51,2324.3 L3503.01,2324.3 Z" id="_4K_Ultra_HD" fill="#FFFFFF"></path>
        </g>
    </g>
</svg>