<?xml version="1.0" encoding="utf-8"?>
<!-- Generator: Adobe Illustrator 26.0.1, SVG Export Plug-In . SVG Version: 6.00 Build 0)  -->
<svg version="1.1" xmlns="http://www.w3.org/2000/svg" xmlns:xlink="http://www.w3.org/1999/xlink" x="0px" y="0px"
	 viewBox="0 0 378.17 338.17" style="enable-background:new 0 0 378.17 338.17;" xml:space="preserve">
<style type="text/css">
	.st0{fill:#231F20;stroke:#231F20;stroke-miterlimit:10;}
	.st1{fill:#FFFFFF;}
</style>
<g id="Layer_1">
	<path class="st0" d="M128.49,70.67h-4.82c-4.15,0-7.51-3.36-7.51-7.51V8.01c0-4.15,3.36-7.51,7.51-7.51h4.82
		c4.15,0,7.51,3.36,7.51,7.51v55.15C136,67.3,132.64,70.67,128.49,70.67z"/>
	<path class="st0" d="M170.49,70.67h-4.82c-4.15,0-7.51-3.36-7.51-7.51V8.01c0-4.15,3.36-7.51,7.51-7.51h4.82
		c4.15,0,7.51,3.36,7.51,7.51v55.15C178,67.3,174.64,70.67,170.49,70.67z"/>
	<path class="st0" d="M212.49,70.67h-4.82c-4.15,0-7.51-3.36-7.51-7.51V8.01c0-4.15,3.36-7.51,7.51-7.51h4.82
		c4.15,0,7.51,3.36,7.51,7.51v55.15C220,67.3,216.64,70.67,212.49,70.67z"/>
	<path class="st0" d="M254.49,70.67h-4.82c-4.15,0-7.51-3.36-7.51-7.51V8.01c0-4.15,3.36-7.51,7.51-7.51h4.82
		c4.15,0,7.51,3.36,7.51,7.51v55.15C262,67.3,258.64,70.67,254.49,70.67z"/>
	<path class="st0" d="M128.49,337.67h-4.82c-4.15,0-7.51-3.36-7.51-7.51v-55.15c0-4.15,3.36-7.51,7.51-7.51h4.82
		c4.15,0,7.51,3.36,7.51,7.51v55.15C136,334.3,132.64,337.67,128.49,337.67z"/>
	<path class="st0" d="M170.49,337.67h-4.82c-4.15,0-7.51-3.36-7.51-7.51v-55.15c0-4.15,3.36-7.51,7.51-7.51h4.82
		c4.15,0,7.51,3.36,7.51,7.51v55.15C178,334.3,174.64,337.67,170.49,337.67z"/>
	<path class="st0" d="M212.49,337.67h-4.82c-4.15,0-7.51-3.36-7.51-7.51v-55.15c0-4.15,3.36-7.51,7.51-7.51h4.82
		c4.15,0,7.51,3.36,7.51,7.51v55.15C220,334.3,216.64,337.67,212.49,337.67z"/>
	<path class="st0" d="M254.49,337.67h-4.82c-4.15,0-7.51-3.36-7.51-7.51v-55.15c0-4.15,3.36-7.51,7.51-7.51h4.82
		c4.15,0,7.51,3.36,7.51,7.51v55.15C262,334.3,258.64,337.67,254.49,337.67z"/>
	<path class="st0" d="M70.67,229.68v4.82c0,4.15-3.36,7.51-7.51,7.51H8.01c-4.15,0-7.51-3.36-7.51-7.51v-4.82
		c0-4.15,3.36-7.51,7.51-7.51h55.15C67.3,222.17,70.67,225.53,70.67,229.68z"/>
	<path class="st0" d="M70.67,187.68v4.82c0,4.15-3.36,7.51-7.51,7.51H8.01c-4.15,0-7.51-3.36-7.51-7.51v-4.82
		c0-4.15,3.36-7.51,7.51-7.51h55.15C67.3,180.17,70.67,183.53,70.67,187.68z"/>
	<path class="st0" d="M70.67,145.68v4.82c0,4.15-3.36,7.51-7.51,7.51H8.01c-4.15,0-7.51-3.36-7.51-7.51v-4.82
		c0-4.15,3.36-7.51,7.51-7.51h55.15C67.3,138.17,70.67,141.53,70.67,145.68z"/>
	<path class="st0" d="M70.67,103.68v4.82c0,4.15-3.36,7.51-7.51,7.51H8.01c-4.15,0-7.51-3.36-7.51-7.51v-4.82
		c0-4.15,3.36-7.51,7.51-7.51h55.15C67.3,96.17,70.67,99.53,70.67,103.68z"/>
	<path class="st0" d="M377.67,229.68v4.82c0,4.15-3.36,7.51-7.51,7.51h-55.15c-4.15,0-7.51-3.36-7.51-7.51v-4.82
		c0-4.15,3.36-7.51,7.51-7.51h55.15C374.3,222.17,377.67,225.53,377.67,229.68z"/>
	<path class="st0" d="M377.67,187.68v4.82c0,4.15-3.36,7.51-7.51,7.51h-55.15c-4.15,0-7.51-3.36-7.51-7.51v-4.82
		c0-4.15,3.36-7.51,7.51-7.51h55.15C374.3,180.17,377.67,183.53,377.67,187.68z"/>
	<path class="st0" d="M377.67,145.68v4.82c0,4.15-3.36,7.51-7.51,7.51h-55.15c-4.15,0-7.51-3.36-7.51-7.51v-4.82
		c0-4.15,3.36-7.51,7.51-7.51h55.15C374.3,138.17,377.67,141.53,377.67,145.68z"/>
	<path class="st0" d="M377.67,103.68v4.82c0,4.15-3.36,7.51-7.51,7.51h-55.15c-4.15,0-7.51-3.36-7.51-7.51v-4.82
		c0-4.15,3.36-7.51,7.51-7.51h55.15C374.3,96.17,377.67,99.53,377.67,103.68z"/>
	<path class="st0" d="M280.57,258.21H98.8c-9.96,0-18.03-8.07-18.03-18.03V98.41c0-9.96,8.07-18.03,18.03-18.03h181.77
		c9.96,0,18.03,8.07,18.03,18.03v141.77C298.61,250.14,290.53,258.21,280.57,258.21z"/>
</g>
<g id="Layer_3">
	<g>
		<path class="st1" d="M138.4,167.72h20.98v24.91c-3.02,2.21-6.24,3.82-9.66,4.82c-3.42,1-6.99,1.5-10.71,1.5
			c-4.86,0-9.28-0.76-13.26-2.29c-3.98-1.52-7.39-3.63-10.23-6.32c-2.84-2.69-5.02-5.87-6.56-9.56c-1.54-3.69-2.31-7.69-2.31-12.01
			c0-4.4,0.73-8.44,2.19-12.13s3.54-6.86,6.26-9.54c2.71-2.67,5.99-4.75,9.84-6.24s8.15-2.23,12.9-2.23c2.46,0,4.77,0.2,6.93,0.61
			c2.16,0.41,4.15,0.96,5.97,1.66c1.82,0.7,3.49,1.54,5,2.51c1.51,0.97,2.86,2.03,4.05,3.16l-3.97,6.04
			c-0.62,0.95-1.42,1.53-2.41,1.74c-0.99,0.22-2.05-0.03-3.18-0.73c-1.08-0.65-2.1-1.21-3.06-1.68c-0.96-0.47-1.94-0.86-2.94-1.15
			c-1-0.3-2.05-0.51-3.16-0.65c-1.11-0.13-2.35-0.2-3.73-0.2c-2.57,0-4.87,0.45-6.93,1.36c-2.05,0.9-3.8,2.18-5.24,3.83
			c-1.44,1.65-2.56,3.62-3.34,5.93c-0.78,2.31-1.17,4.88-1.17,7.72c0,3.13,0.43,5.91,1.3,8.34c0.86,2.43,2.09,4.48,3.67,6.16
			s3.47,2.95,5.67,3.83c2.2,0.88,4.64,1.32,7.31,1.32c1.65,0,3.14-0.16,4.48-0.49s2.64-0.76,3.91-1.3v-8.95h-5.83
			c-0.86,0-1.54-0.23-2.02-0.69s-0.73-1.04-0.73-1.74V167.72z"/>
		<path class="st1" d="M189.38,139.29c4.16,0,7.73,0.49,10.71,1.48c2.98,0.99,5.44,2.34,7.37,4.07c1.93,1.73,3.35,3.77,4.27,6.12
			c0.92,2.35,1.38,4.89,1.38,7.61c0,2.94-0.47,5.64-1.42,8.1c-0.95,2.46-2.39,4.56-4.33,6.32c-1.94,1.76-4.41,3.12-7.39,4.11
			c-2.98,0.99-6.51,1.48-10.59,1.48h-7.13v19.72h-13.69v-59.01H189.38z M189.38,168.25c3.56,0,6.13-0.85,7.7-2.55
			c1.57-1.7,2.35-4.08,2.35-7.13c0-1.35-0.2-2.58-0.61-3.69c-0.4-1.11-1.02-2.06-1.84-2.86c-0.82-0.8-1.86-1.41-3.12-1.84
			c-1.26-0.43-2.75-0.65-4.48-0.65h-7.13v18.71H189.38z"/>
		<path class="st1" d="M244.71,187.48c1.84,0,3.48-0.3,4.92-0.91c1.44-0.61,2.67-1.48,3.67-2.61c1-1.13,1.76-2.52,2.29-4.15
			c0.53-1.63,0.79-3.49,0.79-5.57v-34.95h13.69v34.95c0,3.62-0.59,6.94-1.76,9.96c-1.17,3.02-2.86,5.63-5.04,7.82
			c-2.19,2.19-4.85,3.89-7.98,5.1c-3.13,1.21-6.66,1.82-10.57,1.82c-3.94,0-7.48-0.61-10.61-1.82s-5.79-2.92-7.98-5.1
			c-2.19-2.19-3.86-4.79-5.02-7.82c-1.16-3.02-1.74-6.34-1.74-9.96v-34.95h13.69v34.91c0,2.08,0.26,3.94,0.79,5.57
			c0.53,1.63,1.29,3.02,2.29,4.17c1,1.15,2.22,2.03,3.67,2.63S242.87,187.48,244.71,187.48z"/>
	</g>
</g>
</svg>
