<svg xmlns="http://www.w3.org/2000/svg" width="116.031" height="145" viewBox="0 0 116.031 145">
  <defs>
    <style>
      .cls-1 {
        fill-rule: evenodd;
      }
    </style>
  </defs>
  <path id="Shape_1_copy" data-name="Shape 1 copy" class="cls-1" d="M123.038,90.839c-0.406-.054.983,9.939-5.052,17.909a27.184,27.184,0,0,1-9.924,7.688c-1.3.582-10.769,4.661-19.667-.271a22.37,22.37,0,0,1-9.292-10.13,35.729,35.729,0,0,1-3.338-14.2A30.742,30.742,0,0,1,77.519,80.18c1.1-2.758,2.7-6.407,5.823-9.149C88.8,66.247,95.672,66.513,97.867,66.6a25.8,25.8,0,0,1,10.556,2.894,28.388,28.388,0,0,1,7.668,5.246c6.782,6.733,6.728,16.148,6.947,16.1,0.26-.058-0.1-13.342-6.676-30.209a123.348,123.348,0,0,0-13.623-25.054,161.163,161.163,0,0,0-11.1-14.381A78.477,78.477,0,0,0,82.8,12.24,53.916,53.916,0,0,0,76.4,7.627,13.871,13.871,0,0,0,70.983,6a21.181,21.181,0,0,0-6.5,1.357,65.235,65.235,0,0,0-9.112,5.427,91.04,91.04,0,0,0-7.488,6.241A208.008,208.008,0,0,0,32.009,36.118,124.665,124.665,0,0,0,18.838,56.74C10.4,73.4,8.079,86.976,8.282,87.04A26.566,26.566,0,0,1,15.41,73.563a26.518,26.518,0,0,1,15.517-6.422,20.834,20.834,0,0,1,16.329,7.236c4.665,5.444,4.892,11.244,5.052,15.738a35.988,35.988,0,0,1-2.436,13.3C48.833,106,46.455,112.725,38.6,116.254a22.926,22.926,0,0,1-14.344,1.176c-6.76-1.781-8.827-4.861-10.014-6.422C7.37,101.98,8.1,87.055,8.282,87.04c0.2-.017-2.5,15.29,5.413,31.2a62.873,62.873,0,0,0,14.886,18.994A57.584,57.584,0,0,0,45,147.187a60.1,60.1,0,0,0,43.755-.633,56.763,56.763,0,0,0,18.675-13.115,53.021,53.021,0,0,0,12.179-18.451C124.315,103.08,123.478,90.9,123.038,90.839Zm-76.91,1.153c0,10.527-8.508,19.062-18.337,19.062S10,102.519,10,91.992s7.967-19.062,17.8-19.062S46.128,81.464,46.128,91.992Zm71.181-.068A19.013,19.013,0,1,1,98.3,72.93,19,19,0,0,1,117.309,91.924Z" transform="translate(-7.969 -6)"/>
</svg>
