<?xml version="1.0" encoding="utf-8"?>
<!-- Generator: Adobe Illustrator 19.0.0, SVG Export Plug-In . SVG Version: 6.00 Build 0)  -->
<svg version="1.1" id="Layer_1" xmlns="http://www.w3.org/2000/svg" xmlns:xlink="http://www.w3.org/1999/xlink" x="0px" y="0px"
	 viewBox="-485 258 116 145" style="enable-background:new -485 258 116 145;" xml:space="preserve">
<style type="text/css">
	.st0{fill:#FFFFFF;}
</style>
<path id="Shape_1_copy" class="st0" d="M-369.9,342.8c-0.4-0.1,1,9.9-5.1,17.9c-2.7,3.3-6.1,5.9-9.9,7.7c-1.3,0.6-10.8,4.7-19.7-0.3
	c-4.1-2.3-7.3-5.9-9.3-10.1c-2.1-4.5-3.2-9.3-3.3-14.2c-0.2-4,0.4-7.9,1.8-11.7c1.1-2.8,2.7-6.4,5.8-9.1c5.5-4.8,12.3-4.5,14.5-4.4
	c3.7,0.2,7.3,1.2,10.6,2.9c2.8,1.3,5.4,3.1,7.7,5.2C-370.1,333.5-370.1,342.9-369.9,342.8c0.3-0.1-0.1-13.3-6.7-30.2
	c-3.6-8.8-8.1-17.3-13.6-25.1c-3.4-5-7.1-9.8-11.1-14.4c-2.7-3.2-5.7-6.2-8.8-9c-2-1.7-4.2-3.2-6.4-4.6c-1.7-0.9-3.5-1.5-5.4-1.6
	c-2.2,0.1-4.4,0.6-6.5,1.4c-3.2,1.6-6.2,3.4-9.1,5.4c-2.6,1.9-5.1,4-7.5,6.2c-5.6,5.4-10.9,11.1-15.9,17.1
	c-5.1,6.4-9.5,13.3-13.2,20.6c-8.4,16.7-10.8,30.2-10.6,30.3c1-5.1,3.5-9.8,7.1-13.5c4.3-3.8,9.8-6,15.5-6.4
	c6.3-0.2,12.2,2.5,16.3,7.2c4.7,5.4,4.9,11.2,5.1,15.7c0,4.5-0.8,9.1-2.4,13.3c-1,2.6-3.4,9.3-11.3,12.8c-4.5,1.9-9.6,2.3-14.3,1.2
	c-6.8-1.8-8.8-4.9-10-6.4c-6.9-9-6.1-24-6-24c0.2,0-2.5,15.3,5.4,31.2c3.7,7.2,8.7,13.7,14.9,19c4.9,4.2,10.4,7.6,16.4,10
	c14.1,5.3,29.8,5.1,43.8-0.6c7-3.1,13.4-7.5,18.7-13.1c5.3-5.2,9.5-11.5,12.2-18.5C-368.7,355.1-369.5,342.9-369.9,342.8z
	 M-446.8,344c0,10.5-8.5,19.1-18.3,19.1c-9.8,0-17.8-8.5-17.8-19.1c0-10.5,8-19.1,17.8-19.1S-446.8,333.5-446.8,344z M-375.7,343.9
	c0,10.5-8.5,19-19,19s-19-8.5-19-19s8.5-19,19-19c0,0,0,0,0,0C-384.2,324.9-375.7,333.4-375.7,343.9
	C-375.7,343.9-375.7,343.9-375.7,343.9z"/>
</svg>
