<?xml version="1.0" encoding="utf-8"?>
<!-- Generator: Adobe Illustrator 26.0.1, SVG Export Plug-In . SVG Version: 6.00 Build 0)  -->
<svg version="1.1" id="Ebene_1" xmlns="http://www.w3.org/2000/svg" xmlns:xlink="http://www.w3.org/1999/xlink" x="0px" y="0px"
	 viewBox="0 0 526.6 500.9" style="enable-background:new 0 0 526.6 500.9;" xml:space="preserve">
<style type="text/css">
	.st0{fill:url(#SVGID_1_);}
	.st1{fill:url(#SVGID_00000150065404124207721940000007502338423820382621_);}
	.st2{fill:url(#SVGID_00000133488870070731172610000004636939312641670297_);}
	.st3{fill:url(#SVGID_00000149357715131841692680000006743994260608803260_);}
	.st4{fill:url(#SVGID_00000041975270820467556300000014783302305281189778_);}
	.st5{fill:url(#SVGID_00000147935187903469112160000006666886250661938351_);}
	.st6{fill:url(#SVGID_00000034088019043628660950000008314458363789697441_);}
</style>
<g>
	
		<linearGradient id="SVGID_1_" gradientUnits="userSpaceOnUse" x1="257.048" y1="553.0667" x2="556.5276" y2="494.8538" gradientTransform="matrix(1 0 0 1 0 -326.8037)">
		<stop  offset="0" style="stop-color:#040404"/>
		<stop  offset="0.5" style="stop-color:#343434"/>
		<stop  offset="1" style="stop-color:#5B5B5B"/>
	</linearGradient>
	<path class="st0" d="M368.6,14.6h158.1L315.4,404.9c0,0-35.6-103.4-50.9-140.3"/>
	<g>
		
			<linearGradient id="SVGID_00000026151095489846102630000013961482218742584960_" gradientUnits="userSpaceOnUse" x1="466.6977" y1="829.1741" x2="509.5037" y2="339.8992" gradientTransform="matrix(1 0 0 1 0 -326.8037)">
			<stop  offset="0" style="stop-color:#181818"/>
			<stop  offset="0.5" style="stop-color:#444444"/>
			<stop  offset="1" style="stop-color:#757575"/>
		</linearGradient>
		<path style="fill:url(#SVGID_00000026151095489846102630000013961482218742584960_);" d="M407.6,497.2h119.1V14.6
			C526.6,266.8,420.6,497.2,407.6,497.2z"/>
	</g>
	
		<linearGradient id="SVGID_00000052785292714639496800000004651950710346919308_" gradientUnits="userSpaceOnUse" x1="218.9429" y1="348.0674" x2="106.019" y2="695.6113" gradientTransform="matrix(1 0 0 1 0 -326.8037)">
		<stop  offset="0" style="stop-color:#797979"/>
		<stop  offset="0.5" style="stop-color:#585858"/>
		<stop  offset="1" style="stop-color:#222222"/>
	</linearGradient>
	<path style="fill:url(#SVGID_00000052785292714639496800000004651950710346919308_);" d="M315.4,404.9h-98.3L0,14.6
		C38.5,9.7,115.4,3.1,153.5,0L315.4,404.9z"/>
	
		<linearGradient id="SVGID_00000014609635877914515620000017223261454012653459_" gradientUnits="userSpaceOnUse" x1="-26.9324" y1="744.8146" x2="162.6329" y2="683.2211" gradientTransform="matrix(1 0 0 1 0 -326.8037)">
		<stop  offset="0" style="stop-color:#0B0B0B"/>
		<stop  offset="0.5" style="stop-color:#191919"/>
		<stop  offset="1" style="stop-color:#2E2E2E"/>
	</linearGradient>
	<path style="fill:url(#SVGID_00000014609635877914515620000017223261454012653459_);" d="M125.9,250.8C93.3,379.6-0.1,501,0,500.9
		c108.2,0,131.5-15.7,131.5-24c0-4.6,0-148.3,0-216.3C129.6,257.4,127.8,254.1,125.9,250.8z"/>
	
		<linearGradient id="SVGID_00000109723165615468319540000011765083640655507128_" gradientUnits="userSpaceOnUse" x1="121.2788" y1="471.4594" x2="-121.2788" y2="697.648" gradientTransform="matrix(1 0 0 1 0 -326.8037)">
		<stop  offset="0" style="stop-color:#161616"/>
		<stop  offset="0.5" style="stop-color:#202020"/>
		<stop  offset="1" style="stop-color:#3E3E3E"/>
	</linearGradient>
	<path style="fill:url(#SVGID_00000109723165615468319540000011765083640655507128_);" d="M0,14.6v486.3
		c59.2-97.8,93.7-161.8,124.2-253C49,114.9,0,14.6,0,14.6z"/>
	
		<linearGradient id="SVGID_00000109743193656690585480000009324003306438080909_" gradientUnits="userSpaceOnUse" x1="345.6343" y1="747.4825" x2="469.5657" y2="647.1249" gradientTransform="matrix(1 0 0 1 0 -326.8037)">
		<stop  offset="0" style="stop-color:#1F1F1F"/>
		<stop  offset="0.5" style="stop-color:#171717"/>
		<stop  offset="1" style="stop-color:#020202"/>
	</linearGradient>
	<polyline style="fill:url(#SVGID_00000109743193656690585480000009324003306438080909_);" points="399.4,478.1 407.6,497.2 
		407.6,243.8 399.4,257.5 	"/>
	
		<linearGradient id="SVGID_00000124149767434474641390000009341822044333727901_" gradientUnits="userSpaceOnUse" x1="533.2316" y1="624.0587" x2="401.4379" y2="541.7047" gradientTransform="matrix(1 0 0 1 0 -326.8037)">
		<stop  offset="0" style="stop-color:#121212"/>
		<stop  offset="0.5" style="stop-color:#272727"/>
		<stop  offset="1" style="stop-color:#2D2D2D"/>
	</linearGradient>
	<path style="fill:url(#SVGID_00000124149767434474641390000009341822044333727901_);" d="M407.2,244.3v252.1l0.3,0.8
		c8.5,0,119.1-272.8,119.1-482.6C526.6,14.6,459.1,155.4,407.2,244.3z"/>
</g>
</svg>
