<?xml version="1.0"?>
<svg width="400" height="400" xmlns="http://www.w3.org/2000/svg">
 <!-- Created with Method Draw - http://github.com/duopixel/Method-Draw/ -->

 <g>
  <title>background</title>
  <rect fill="#ffffff" id="canvas_background" height="402" width="402" y="-1" x="-1"/>
 </g>
 <g>
  <title>Layer 1</title>
  <ellipse fill="#000000" stroke-width="1.5" cx="200.000006" cy="200.5" id="svg_1" rx="200" ry="200" stroke="#000"/>
  <line stroke-linecap="null" stroke-linejoin="null" id="svg_2" y2="243" x2="143.5" y1="120" x1="126.5" stroke-opacity="null" stroke-width="1.5" stroke="#000" fill="none"/>
  <rect id="svg_7" height="0" width="5" y="302" x="186.5" stroke-opacity="null" stroke-width="1.5" stroke="#000" fill="#000000"/>
  <path id="svg_10" d="m96.502998,148.895004c-2.945999,13.106995 -10.465996,25.634003 -10.973,39.149994c0.673004,7.826004 -6.004997,12.029999 -15.146896,11.882004c-9.833,8.013 1.212997,20.677002 12.339897,23.912003c11.354004,5.991989 25.439995,-0.705002 36.687996,4.67099c14.934998,9.178009 21.169998,25.451004 16.016998,39.718002c-5.123001,11.776001 21.102005,7.493988 11.238007,-1.92099c-7.619003,-9.201019 14.360001,-6.160004 8.733994,2.576996c-1.062988,7.013 6.57901,9.28299 3.178009,16.076996c8.860992,3.993988 -0.744003,6.230988 -6.139008,6.985992c-12.640991,4.951996 2.285004,-8.873993 -7.727997,-12.962982c-9.168991,1.565979 -2.955994,13.638 -6.104004,12.243988c-6.477997,-3.988983 -6.472992,-18.902008 -17.347992,-9.171997c-3.610001,-11.988007 2.975998,-24.476013 -2.096008,-36.395996c2.077011,-8.901001 -15.800995,-11.971008 -13.539993,-1.647003c0.903,15.757996 -5.184998,31.484009 -1.692001,47.162994c4.811996,9.671997 18.268997,14.029999 26.712006,21.492004c6.936996,5.755005 15.929001,11.907013 26.724991,10.095001c24.546997,-28.480988 11.110001,-28.580994 8.372009,-37.802002c-1.094009,-8.188995 3.623993,-16.773987 -2.787003,-24.415985c5.634003,3.814972 15.464005,-3.295013 9.985001,5.257996c35.056,-181.184509 13.315002,-182.228409 -7.48201,-180.768509c-18.395996,2.506104 -37.849991,5.149399 -52.502991,15.009499c-14.282005,6.616005 -27.961006,15.403 -33.606003,28.114998c-4.920998,10.240005 -13.537201,20.669998 -9.621498,32.046005c3.744499,9.483002 1.7584,19.330994 2.364899,29.024994c6.384598,11.078003 12.412598,-5.668991 11.814598,-11.207993c0.354004,-10.505005 7.403999,-19.802002 12.598,-29.126999l0,0zm28.665001,23.55899c15.231003,-2.12999 32.559006,5.299011 32.608994,18.553009c1.431,12.813004 -15.871994,15.322998 -27.675995,18.53299c-8.167999,4.146011 -16.651993,0.286011 -23.438995,-3.889999c-8.806,-7.246994 -6.217003,-21.847992 3.078995,-28.46199c4.51001,-2.624008 10.091003,-3.656006 15.427002,-4.734009zm52.115997,33.803009c-1.774002,34.496002 -2.841003,21.567993 -11.725998,27.655991c-8.334,-5.738998 -0.647995,-17.416 5.201996,-23.245987c1.92601,-1.679001 4.133011,-3.157013 6.524002,-4.410004z" fill-opacity="null" stroke-opacity="null" stroke-width="1.5" stroke="#000" fill="#ffffff"/>
  <path id="svg_11" d="m184.345001,179.449005c12.955002,-17.48201 22.927994,-33.363998 23.472,-47.088013c0.078995,-1.966995 5.490997,-0.721985 4.472992,0.477005c-1.62999,8.544998 -13.139999,32.535995 -14.041,33.408005c1.047012,7.481995 0.623001,7.992996 7.308014,13.811005c3.007996,-10.396011 9.416992,-19.220001 15.286987,-28.003006c6.629013,-9.863007 11.080017,-19.309006 18.382019,-29.575005c9.612,-13.040993 21.886993,-24.940498 33.130981,-32.043495c7.822998,-4.941605 20.928009,-9.178101 22.937012,-9.454102c3.721008,-0.5317 7.085999,-0.439301 11.496979,0.5261c6.51001,1.424202 12.867004,2.217697 19.701019,6.939804c6.425995,6.059296 4.20401,13.653694 3.005981,20.766693c-9.895996,16.064003 -20.034973,35.30201 -23.224976,54.983009c-1.075012,7.287994 -3.003998,19.845993 -7.559021,27.735001c-7.322998,12.132996 -16.286987,11.68399 -24.707001,13.329987c5.132019,2.162003 10.697021,9.220001 15.689026,16.315002c7.788971,11.158005 11.582977,22.600998 9.571991,35.058014c-0.429016,2.612 -7.854004,22.432983 -11.487,28.651978c-13.785004,23.678009 -32.553009,39.737 -47.679016,37.132019c-5.447998,-0.938995 -20.473984,-17.770996 -23.174988,-22.739014c-6.706009,-12.328979 -12.214996,-27.200989 -12.440002,-40.186005c-0.835007,-1.224976 -1.852997,-1.315979 -1.404999,-2.955994c-0.834,3.755005 -3.487,15.985016 -7.414993,23.71701c-5.678009,11.175995 -10.872009,-5.532013 -12.975006,-19.082001z" stroke-opacity="null" stroke-width="1.5" stroke="#000" fill="#ffffff"/>
  <rect id="svg_16" height="23" width="24" y="183" x="206.5" stroke-width="1.5" stroke="#ffffff" fill="#ffffff"/>
  <ellipse id="svg_17" cy="165" cx="183.5" fill-opacity="null" stroke-width="1.5" stroke="#ffffff" fill="#ffffff"/>
  <ellipse ry="31" rx="8" id="svg_18" cy="230" cx="213.5" fill-opacity="null" stroke-width="1.5" stroke="#ffffff" fill="#ffffff"/>
  <rect stroke="#ffffff" id="svg_19" height="23.999999" width="26" y="238.000001" x="194.5" stroke-width="1.5" fill="#ffffff"/>
  <rect stroke="#ffffff" id="svg_21" height="24.407008" width="17.051471" y="175.529854" x="177.201566" stroke-width="1.5" fill="#ffffff"/>
  <rect id="svg_23" height="61.519034" width="16.048444" y="198.599492" x="181.213677" fill-opacity="null" stroke-opacity="null" stroke-width="1.5" stroke="#ffffff" fill="#ffffff"/>
  <rect id="svg_24" height="17.720157" width="27.081749" y="242.398369" x="166.836947" fill-opacity="null" stroke-opacity="null" stroke-width="1.5" stroke="#ffffff" fill="#ffffff"/>
  <rect id="svg_25" height="7.355537" width="17.051471" y="235.711518" x="174.526826" fill-opacity="null" stroke-opacity="null" stroke-width="1.5" stroke="#ffffff" fill="#ffffff"/>
  <rect id="svg_26" height="20.060555" width="9.695935" y="218.325704" x="177.870252" fill-opacity="null" stroke-opacity="null" stroke-width="1.5" stroke="#ffffff" fill="#ffffff"/>
 </g>
</svg>