<?xml version="1.0" encoding="UTF-8" standalone="no"?>
<!DOCTYPE svg PUBLIC "-//W3C//DTD SVG 1.1//EN"
"http://www.w3.org/Graphics/SVG/1.1/DTD/svg11.dtd">


<!-- Page 1 -->
<svg x="0" y="0" width="660" height="220" viewBox="0 0 660 220" version="1.1" xmlns="http://www.w3.org/2000/svg" xmlns:xlink="http://www.w3.org/1999/xlink"
style="display: block;margin-left: auto;margin-right: auto;">
<defs>

<style type="text/css"><![CDATA[

.g1_1{
fill: #08759C;
}
.g2_1{
fill: #464341;
}


]]></style>

</defs>
<path d="M0,0
L0,220
L660,220
L660,0 Z " 
fill="#FFFFFF" stroke="none" />
<path d="M378,135.8l-0.9,0c-4.7,0,-5.3,-1.2,-5.3,-7.1l0,-28.1l6.2,0c13.5,0,15.9,9.8,15.9,17.5c0,7.9,-2.4,17.7,-15.9,17.7m-54.6,-18l0,-17.2l5.3,0c5.9,0,8.4,4,8.4,8.7c0,4.5,-2.5,8.5,-8.4,8.5ZM377.6,96.7l-23.1,0l0,2.5c7.2,0,8.4,1.5,8.4,10.7l0,16.6c0,9.2,-1.2,10.8,-8.4,10.8c-5.6,-0.7,-9.3,-3.7,-14.5,-9.4l-6,-6.5c8.1,-1.4,12.3,-6.4,12.3,-12.1c0,-7.1,-6.1,-12.6,-17.4,-12.6l-22.8,0l0,2.5c7.2,0,8.4,1.5,8.4,10.7l0,16.6c0,9.2,-1.2,10.8,-8.4,10.8l0,2.5l25.7,0l0,-2.5c-7.2,0,-8.4,-1.6,-8.4,-10.8l0,-4.7l2.2,0l14.4,18l37.6,0c18.5,0,26.5,-9.8,26.5,-21.6c0,-11.8,-8,-21.5,-26.5,-21.5Z" class="g1_1" />
<path d="M234.1,122.6L243,96.2c2.6,-7.6,1.4,-9.8,-6.8,-9.8l0,-2.6l24.3,0l0,2.6c-8.2,0,-10.1,1.9,-13.4,11.4L232.4,142l-1.7,0L217.5,101.5L204.1,142l-1.7,0L188.1,97.8C184.9,88.3,182.9,86.4,175.4,86.4l0,-2.6l28.7,0l0,2.6c-7.6,0,-9.7,1.8,-7,9.8l8.7,26.4l13,-38.8l2.5,0Z" class="g1_1" />
<path d="M278,99.1c-11.8,0,-16,10.7,-16,19.1c0,8.5,4.2,19.1,16,19.1c12.1,0,16.2,-10.6,16.2,-19.1c0,-8.4,-4.1,-19.1,-16.2,-19.1m0,42.4c-14.2,0,-25.8,-10.5,-25.8,-23.3c0,-12.7,11.6,-23.1,25.8,-23.1c14.3,0,25.9,10.4,25.9,23.1c0,12.8,-11.6,23.3,-25.9,23.3Z" class="g1_1" />
<path d="M433.2,88.5l-7.4,0l0,22.5l7.4,0c7.3,0,10.6,-5.1,10.6,-11.2c0,-6.2,-3.3,-11.3,-10.6,-11.3m2.9,48.7l0,2.6l-29.7,0l0,-2.6c8.7,0,10.3,-2.2,10.3,-15.1l0,-20.7c0,-12.9,-1.6,-15,-10.3,-15l0,-2.6l26.8,0c13.3,0,20.7,6.9,20.7,16c0,9,-7.4,15.9,-20.7,15.9l-7.4,0l0,6.4c0,12.9,1.6,15.1,10.3,15.1Z" class="g2_1" />
<path d="M474.2,117.8l0,-17.2l5.3,0c5.8,0,8.4,4,8.4,8.7c0,4.5,-2.6,8.5,-8.4,8.5Zm68.5,9.8l-0.6,2.4c-1.2,4.2,-2.6,5.8,-11.8,5.8l-1.8,0c-6.7,0,-7.9,-1.6,-7.9,-10.7l0,-6c10.1,0,10.9,0.9,10.9,7.6l2.4,0l0,-19.2l-2.4,0c0,6.7,-0.8,7.6,-10.9,7.6l0,-14.5l7.1,0c9.2,0,10.6,1.6,11.8,5.8l0.7,2.5l2,0L541.3,96.7l-38,0l0,2.5c7.2,0,8.4,1.5,8.4,10.7l0,16.6c0,8.4,-1,10.5,-6.7,10.8c-5.4,-0.8,-9.1,-3.8,-14.2,-9.4l-6,-6.5c8,-1.4,12.3,-6.4,12.3,-12.1c0,-7.1,-6.1,-12.6,-17.5,-12.6l-22.7,0l0,2.5c7.2,0,8.4,1.5,8.4,10.7l0,16.6c0,9.2,-1.2,10.8,-8.4,10.8l0,2.5l25.7,0l0,-2.5c-7.2,0,-8.4,-1.6,-8.4,-10.8l0,-4.7l2.2,0l14.4,18l53.1,0l0.8,-12.2Z" class="g2_1" />
<path d="M569,141.5c-5.2,0,-9.7,-2.7,-11.7,-4.4c-0.6,0.6,-1.8,2.6,-2,4.4l-2.5,0l0,-17.9l2.6,0c1,8.6,7,13.6,14.6,13.6c4.2,0,7.5,-2.3,7.5,-6.2c0,-3.4,-3,-5.9,-8.3,-8.4l-7.3,-3.5c-5.2,-2.4,-9.1,-6.7,-9.1,-12.4c0,-6.2,5.8,-11.5,13.9,-11.5c4.2,0,7.8,1.5,10,3.3c0.7,-0.5,1.3,-1.9,1.7,-3.4l2.5,0l0,15.2l-2.7,0C577.3,104.2,573.9,99.2,567,99.2c-3.6,0,-6.9,2.1,-6.9,5.3c0,3.4,2.7,5.2,8.9,8l7.1,3.5c6.2,3,8.7,7.8,8.7,11.6c0,8.2,-7.2,13.9,-15.8,13.9Z" class="g2_1" />
<path d="M608.8,141.5c-5.2,0,-9.7,-2.7,-11.6,-4.4c-0.7,0.6,-1.8,2.6,-2.1,4.4l-2.5,0l0,-17.9l2.6,0c1.1,8.6,7,13.6,14.6,13.6c4.2,0,7.5,-2.3,7.5,-6.2c0,-3.4,-2.9,-5.9,-8.2,-8.4l-7.4,-3.5c-5.2,-2.4,-9.1,-6.7,-9.1,-12.4c0,-6.2,5.9,-11.5,13.9,-11.5c4.3,0,7.9,1.5,10.1,3.3c0.6,-0.5,1.3,-1.9,1.7,-3.4l2.4,0l0,15.2l-2.7,0c-0.9,-6.1,-4.3,-11.1,-11.1,-11.1c-3.6,0,-7,2.1,-7,5.3c0,3.4,2.7,5.2,8.9,8l7.1,3.5c6.2,3,8.7,7.8,8.7,11.6c0,8.2,-7.1,13.9,-15.8,13.9Z" class="g2_1" />
<path d="M46.1,110.9c0,22.7,13.1,42.3,32.2,51.5L51,87.6c-3.2,7.2,-4.9,15,-4.9,23.3Z" class="g2_1" />
<path d="M141.9,108c0,-7,-2.5,-11.9,-4.7,-15.7c-2.9,-4.8,-5.6,-8.7,-5.6,-13.5c0,-5.2,4,-10.1,9.6,-10.1c0.2,0,0.5,0,0.7,0c-10.1,-9.3,-23.7,-15,-38.6,-15C83.3,53.7,65.7,64,55.5,79.5c1.3,0,2.6,0.1,3.7,0.1c5.9,0,15.2,-0.8,15.2,-0.8c3.1,-0.1,3.5,4.4,0.4,4.8c0,0,-3.1,0.3,-6.6,0.5l20.9,62l12.5,-37.6L92.7,84.1c-3.1,-0.2,-6,-0.5,-6,-0.5C83.6,83.4,84,78.7,87,78.8c0,0,9.5,0.8,15.1,0.8c6,0,15.3,-0.8,15.3,-0.8c3,-0.1,3.4,4.4,0.3,4.8c0,0,-3.1,0.3,-6.5,0.5l20.7,61.5l5.7,-19.1c2.4,-7.9,4.3,-13.6,4.3,-18.5Z" class="g2_1" />
<path d="M104.3,115.9L87.1,165.8c5.2,1.5,10.6,2.4,16.2,2.4c6.7,0,13,-1.2,19,-3.3c-0.2,-0.2,-0.3,-0.5,-0.4,-0.8Z" class="g2_1" />
<path d="M153.5,83.5c0.3,1.8,0.4,3.8,0.4,5.9c0,5.8,-1.1,12.3,-4.4,20.5l-17.4,50.5c17,-9.9,28.4,-28.4,28.4,-49.5c0,-9.9,-2.5,-19.3,-7,-27.4Z" class="g2_1" />
<path d="M103.3,174.6C68.2,174.6,39.6,146,39.6,110.9c0,-35.1,28.6,-63.6,63.7,-63.6c35.1,0,63.6,28.5,63.6,63.6c0,35.1,-28.5,63.7,-63.6,63.7m0,-130.4c-36.8,0,-66.7,29.9,-66.7,66.7c0,36.8,29.9,66.7,66.7,66.7c36.8,0,66.7,-29.9,66.7,-66.7C170,74.1,140.1,44.2,103.3,44.2Z" class="g2_1" />

</svg>
