<?xml version="1.0" encoding="utf-8"?>
<!-- Generator: Adobe Illustrator 23.0.3, SVG Export Plug-In . SVG Version: 6.00 Build 0)  -->
<svg version="1.1" id="Layer_1" xmlns="http://www.w3.org/2000/svg" xmlns:xlink="http://www.w3.org/1999/xlink" x="0px" y="0px"
	 viewBox="0 0 930 788" style="enable-background:new 0 0 930 788;" xml:space="preserve">
<style type="text/css">
	.st0{opacity:0.7;}
	.st1{fill:url(#SVGID_1_);}
	.st2{fill:#535461;}
	.st3{opacity:0.1;}
	.st4{fill:#E0E0E0;}
	.st5{fill:url(#SVGID_2_);}
	.st6{fill:url(#SVGID_3_);}
	.st7{fill:url(#SVGID_4_);}
	.st8{fill:url(#SVGID_5_);}
	.st9{fill:#EEEEEE;}
	.st10{fill:#E6E6FA;}
	.st11{fill:url(#SVGID_6_);}
	.st12{fill:url(#SVGID_7_);}
	.st13{fill:url(#SVGID_8_);}
	.st14{fill:url(#SVGID_9_);}
	.st15{fill:url(#SVGID_10_);}
	.st16{fill:url(#SVGID_11_);}
	.st17{fill:url(#SVGID_12_);}
	.st18{fill:url(#SVGID_13_);}
	.st19{fill:url(#SVGID_14_);}
	.st20{fill:url(#SVGID_15_);}
	.st21{fill:url(#SVGID_16_);}
	.st22{fill:url(#SVGID_17_);}
	.st23{fill:url(#SVGID_18_);}
	.st24{fill:url(#SVGID_19_);}
	.st25{fill:url(#SVGID_20_);}
	.st26{fill:url(#SVGID_21_);}
	.st27{opacity:0.25;fill:#535461;enable-background:new    ;}
	.st28{fill:url(#SVGID_22_);}
	.st29{opacity:0.4;}
	.st30{fill:url(#SVGID_23_);}
	.st31{opacity:0.2;fill:#E6E6FA;enable-background:new    ;}
	.st32{opacity:0.1;fill:#F55F44;enable-background:new    ;}
</style>
<title>To the stars</title>
<g class="st0">
	
		<linearGradient id="SVGID_1_" gradientUnits="userSpaceOnUse" x1="672.9125" y1="728.2901" x2="672.9125" y2="74.4659" gradientTransform="matrix(1 0 0 1 -137.41 -67.04)">
		<stop  offset="0" style="stop-color:#808080;stop-opacity:0.25"/>
		<stop  offset="0.54" style="stop-color:#808080;stop-opacity:0.12"/>
		<stop  offset="1" style="stop-color:#808080;stop-opacity:0.1"/>
	</linearGradient>
	<path class="st1" d="M678.7,309.6c0.1-24.7-5.9-49-17.2-70.8c-5.4-10.2-10.3-16.7-14.2-20.5c-2.9-3.1-7.6-4-11.5-2.3
		c-1.5,0.5-2.9,1.4-4,2.6c-5.2,5.4-9.8,12.3-13.9,19.8c-11.9,22.4-18.2,47.4-18.1,72.8v15.3H590V149.3c0-37.1-8.3-73.8-24.6-106.3
		c-7.7-15.4-14.8-25-20.1-30.9c-5.1-5.8-14-6.4-19.7-1.3c-0.5,0.4-0.9,0.8-1.3,1.3c-7.3,8-14,18.5-19.7,29.7
		c-17.1,33.2-25.8,70.8-25.8,109.1v175.5h-8.4v-16c0.1-25.4-6.1-50.4-18.1-72.8c-4-7.5-8.7-14.5-13.8-19.8c-3-3.2-7.8-4-11.7-2.1
		l0.4,0.2c-1.2,0.5-2.3,1.3-3.3,2.3c-3.8,3.9-8.7,10.3-14.2,20.5c-11.3,21.9-17.3,46.2-17.2,70.8v264.8h30.2l-3.3,21.8v65.1h24.8
		v-65.1l-3.3-21.8h29.8V333.2h8.4v240.1h24.1l-3.4,22.9v65.1h24.7v-65.1l-3.4-22.9h32.5l-3.4,22.9v65.1h24.7v-65.1l-3.4-22.9h19.2
		V333.2h9.8v241.5h7.9v-0.4h26.2l-3.3,21.8v65.2h24.7v-65.1l-3.3-21.8h26.6V309.6z"/>
</g>
<polygon class="st2" points="448.9,583.5 425.5,583.5 429.6,555.1 444.6,555.1 "/>
<g class="st3">
	<polygon points="428.5,566.4 445.8,566.4 444.6,558.4 429.6,558.4 	"/>
</g>
<polygon class="st2" points="649,583.5 625.6,583.5 629.8,555.1 644.8,555.1 "/>
<g class="st3">
	<polygon points="628.6,566.4 645.9,566.4 644.8,558.4 629.8,558.4 	"/>
</g>
<polygon class="st2" points="524.7,583.5 501.4,583.5 505.5,555.1 520.5,555.1 "/>
<g class="st3">
	<polygon points="504.3,566.4 521.7,566.4 520.5,558.4 505.5,558.4 	"/>
</g>
<polygon class="st2" points="572.2,583.5 548.9,583.5 553.1,555.1 568.1,555.1 "/>
<g class="st3">
	<polygon points="551.9,566.4 569.2,566.4 568.1,558.4 553.1,558.4 	"/>
</g>
<rect x="448.9" y="320.8" class="st2" width="166.8" height="6.7"/>
<path class="st4" d="M641.4,215.4c-3.4-3.8-9.4-4.1-13.3-0.6c-0.2,0.2-0.4,0.4-0.6,0.6c-4.9,5.2-9.2,12-13.1,19.3
	c-11.3,21.9-17.2,46.2-17.1,70.8v256.8h73.8V304.5c0.1-24-5.5-47.7-16.3-69C649.7,225.4,645,219.2,641.4,215.4z"/>
<path class="st4" d="M429.7,215.4c3.4-3.8,9.4-4.1,13.3-0.6c0.2,0.2,0.4,0.4,0.6,0.6c4.9,5.2,9.2,12,13.1,19.3
	c11.3,21.9,17.2,46.2,17.1,70.8v256.8H400V304.5c-0.1-24,5.5-47.7,16.3-69C421.4,225.4,426.1,219.2,429.7,215.4z"/>
<polygon class="st2" points="400.5,309.9 418,310 418,331.6 400.5,331.6 "/>
<polygon class="st2" points="456.4,309.9 473.9,310 473.9,331.6 456.4,331.6 "/>
<polygon class="st2" points="597.2,309.9 614.8,310 614.8,331.6 597.2,331.6 "/>
<polygon class="st2" points="653.1,309.9 670.6,310 670.6,331.6 653.1,331.6 "/>
<g class="st3">
	<path d="M456.8,234.3c-3.8-7.3-8.2-14.2-13.1-19.3c-2.8-3.1-7.4-3.9-11.1-2.1c1,0.5,2,1.2,2.8,2.1c4.9,5.2,9.2,12,13.1,19.3
		c11.3,21.9,17.2,46.2,17.1,70.8V562h8.3V305.2C474,280.6,468.1,256.2,456.8,234.3z"/>
</g>
<g class="st3">
	<path d="M621,235c3.8-7.3,8.2-14.2,13.1-19.3c0.9-1,2-1.7,3.2-2.3c-3.7-1.6-8-0.7-10.7,2.3c-4.9,5.2-9.2,12-13.1,19.3
		c-11.3,21.9-17.2,46.2-17.1,70.8v256.8h7.5V305.9C603.8,281.3,609.7,256.9,621,235z"/>
</g>
<linearGradient id="SVGID_2_" gradientUnits="userSpaceOnUse" x1="437.1749" y1="585.6093" x2="437.1749" y2="648.968" gradientTransform="matrix(1 0 0 1 0 -2.09)">
	<stop  offset="0" style="stop-color:#E0E0E0"/>
	<stop  offset="0.31" style="stop-color:#FCCC63"/>
	<stop  offset="0.77" style="stop-color:#F55F44"/>
</linearGradient>
<rect x="425.5" y="583.5" class="st5" width="23.4" height="63.4"/>
<linearGradient id="SVGID_3_" gradientUnits="userSpaceOnUse" x1="513.084" y1="585.6093" x2="513.084" y2="648.968" gradientTransform="matrix(1 0 0 1 0 -2.09)">
	<stop  offset="0" style="stop-color:#E0E0E0"/>
	<stop  offset="0.31" style="stop-color:#FCCC63"/>
	<stop  offset="0.77" style="stop-color:#F55F44"/>
</linearGradient>
<rect x="501.4" y="583.5" class="st6" width="23.4" height="63.4"/>
<linearGradient id="SVGID_4_" gradientUnits="userSpaceOnUse" x1="560.5525" y1="585.6093" x2="560.5525" y2="648.968" gradientTransform="matrix(1 0 0 1 0 -2.09)">
	<stop  offset="0" style="stop-color:#E0E0E0"/>
	<stop  offset="0.31" style="stop-color:#FCCC63"/>
	<stop  offset="0.77" style="stop-color:#F55F44"/>
</linearGradient>
<rect x="548.9" y="583.5" class="st7" width="23.4" height="63.4"/>
<linearGradient id="SVGID_5_" gradientUnits="userSpaceOnUse" x1="637.2712" y1="585.6093" x2="637.2712" y2="648.968" gradientTransform="matrix(1 0 0 1 0 -2.09)">
	<stop  offset="0" style="stop-color:#E0E0E0"/>
	<stop  offset="0.31" style="stop-color:#FCCC63"/>
	<stop  offset="0.77" style="stop-color:#F55F44"/>
</linearGradient>
<rect x="625.6" y="583.5" class="st8" width="23.4" height="63.4"/>
<path class="st9" d="M544.8,14.1c-4.7-5.5-12.9-6.2-18.3-1.6c-0.6,0.5-1.1,1-1.6,1.6c-6.9,7.8-13.2,18-18.6,28.9
	c-16.2,32.3-24.4,69-24.4,106.2v412h105.4V147.5c0-36.1-7.9-71.9-23.3-103.4C556.6,29.1,550,19.8,544.8,14.1z"/>
<path class="st10" d="M517.4,59.8h32.8c6.2,0,11.1,5,11.1,11.1v2.9c0,6.2-5,11.1-11.1,11.1h-32.7c-6.2,0-11.1-5-11.1-11.1V71
	C506.3,64.8,511.3,59.8,517.4,59.8z"/>
<g class="st0">
	
		<linearGradient id="SVGID_6_" gradientUnits="userSpaceOnUse" x1="673.004" y1="805.3127" x2="673.004" y2="615.7819" gradientTransform="matrix(1 0 0 1 -137.41 -67.04)">
		<stop  offset="0" style="stop-color:#808080;stop-opacity:0.25"/>
		<stop  offset="0.54" style="stop-color:#808080;stop-opacity:0.12"/>
		<stop  offset="1" style="stop-color:#808080;stop-opacity:0.1"/>
	</linearGradient>
	<path class="st11" d="M779.9,639.9L779.9,639.9c-7.6-45.7-50.8-76.7-96.7-69.1c-40.7,6.8-70.5,42.1-70.2,83.4c0,0.4,0,0.8,0,1.2
		l0,0c-3.1,0.5-6.2,1.1-9.2,2c-10.3-41.1-52-66.1-93.1-55.8c-22.7,5.7-41.5,21.5-51.2,42.7c-6.8-2.6-14-4.3-21.2-4.9l0,0
		c-1.1-6.6-3.1-13-5.8-19c-2.7-42.3-39.3-74.3-81.6-71.6c-37.7,2.4-67.9,32-71.4,69.5c-3.9,8.4-6.5,17.4-7.5,26.7l0,0
		c-36.4,15.2-55.5,55.4-44,93.1h615c12.2-40.6-10.7-83.4-51.3-95.6C787.8,641.3,783.9,640.5,779.9,639.9z"/>
</g>
<linearGradient id="SVGID_7_" gradientUnits="userSpaceOnUse" x1="363.037" y1="554.5372" x2="363.037" y2="701.902" gradientTransform="matrix(1 0 0 1 0 -2.09)">
	<stop  offset="0" style="stop-color:#F2F2F2"/>
	<stop  offset="0.31" style="stop-color:#E6E6E6"/>
	<stop  offset="0.77" style="stop-color:#CCCCCC"/>
</linearGradient>
<circle class="st12" cx="363" cy="626.1" r="73.7"/>
<linearGradient id="SVGID_8_" gradientUnits="userSpaceOnUse" x1="362.7334" y1="575.0832" x2="362.7334" y2="736.6177" gradientTransform="matrix(1 0 0 1 0 -2.09)">
	<stop  offset="0" style="stop-color:#F2F2F2"/>
	<stop  offset="0.31" style="stop-color:#E6E6E6"/>
	<stop  offset="0.77" style="stop-color:#CCCCCC"/>
</linearGradient>
<circle class="st13" cx="362.7" cy="653.8" r="80.8"/>
<linearGradient id="SVGID_9_" gradientUnits="userSpaceOnUse" x1="690.7619" y1="575.0832" x2="690.7619" y2="736.6177" gradientTransform="matrix(1 0 0 1 0 -2.09)">
	<stop  offset="0" style="stop-color:#F2F2F2"/>
	<stop  offset="0.31" style="stop-color:#E6E6E6"/>
	<stop  offset="0.77" style="stop-color:#CCCCCC"/>
</linearGradient>
<circle class="st14" cx="690.8" cy="653.8" r="80.8"/>
<linearGradient id="SVGID_10_" gradientUnits="userSpaceOnUse" x1="686.6122" y1="589.1517" x2="686.6122" y2="736.5165" gradientTransform="matrix(1 0 0 1 0 -2.09)">
	<stop  offset="0" style="stop-color:#F2F2F2"/>
	<stop  offset="0.31" style="stop-color:#E6E6E6"/>
	<stop  offset="0.77" style="stop-color:#CCCCCC"/>
</linearGradient>
<circle class="st15" cx="686.6" cy="660.7" r="73.7"/>
<linearGradient id="SVGID_11_" gradientUnits="userSpaceOnUse" x1="667.0072" y1="668.0995" x2="667.0072" y2="801.5677" gradientTransform="matrix(1 0 0 1 -137.41 -67.04)">
	<stop  offset="0" style="stop-color:#F2F2F2"/>
	<stop  offset="0.31" style="stop-color:#E6E6E6"/>
	<stop  offset="0.77" style="stop-color:#CCCCCC"/>
</linearGradient>
<path class="st16" d="M603.3,674.8c0,23.7-11.3,45.8-30.5,59.7h-86.4c-33-23.9-40.4-69.9-16.6-102.9c23.9-33,69.9-40.4,102.9-16.6
	C592,628.9,603.4,651.1,603.3,674.8L603.3,674.8z"/>
<linearGradient id="SVGID_12_" gradientUnits="userSpaceOnUse" x1="573.4595" y1="706.4283" x2="573.4595" y2="801.4665" gradientTransform="matrix(1 0 0 1 -137.41 -67.04)">
	<stop  offset="0" style="stop-color:#F2F2F2"/>
	<stop  offset="0.31" style="stop-color:#E6E6E6"/>
	<stop  offset="0.77" style="stop-color:#CCCCCC"/>
</linearGradient>
<path class="st17" d="M509.8,713.1c0,7.3-1,14.5-3.1,21.4H365.5 M365.5,734.4c-11.7-39,10.2-80.1,49.2-91.9c6.8-2,13.8-3.1,20.8-3.1
	h0.5c2,0,4.1,0.1,6.2,0.3c7,0.6,13.8,2.1,20.3,4.7c28.4,10.9,47.3,38.4,47.3,68.8L365.5,734.4z"/>
<linearGradient id="SVGID_13_" gradientUnits="userSpaceOnUse" x1="758.4874" y1="721.2103" x2="758.4874" y2="801.4716" gradientTransform="matrix(1 0 0 1 -137.41 -67.04)">
	<stop  offset="0" style="stop-color:#F2F2F2"/>
	<stop  offset="0.31" style="stop-color:#E6E6E6"/>
	<stop  offset="0.77" style="stop-color:#CCCCCC"/>
</linearGradient>
<path class="st18" d="M694.8,727.8c0,2.2-0.1,4.4-0.3,6.6v0.1H547.6c-0.2-2.2-0.3-4.4-0.3-6.6c0-36.4,26.6-67.4,62.7-72.9
	c3.6-0.5,7.3-0.8,11-0.8c1.9,0,3.7,0.1,5.6,0.2c26.9,2,50.5,18.6,61.6,43.2c0.3,0.7,0.6,1.3,0.9,2
	C692.9,708.6,694.8,718.1,694.8,727.8z"/>
<linearGradient id="SVGID_14_" gradientUnits="userSpaceOnUse" x1="897.7961" y1="706.4283" x2="897.7961" y2="801.4665" gradientTransform="matrix(1 0 0 1 -137.41 -67.04)">
	<stop  offset="0" style="stop-color:#F2F2F2"/>
	<stop  offset="0.31" style="stop-color:#E6E6E6"/>
	<stop  offset="0.77" style="stop-color:#CCCCCC"/>
</linearGradient>
<path class="st19" d="M834.1,713.1c0,7.3-1,14.5-3.1,21.4H689.9l0,0c-3.4-11.3-4-23.3-1.9-34.9c0.1-0.6,0.2-1.3,0.4-1.9
	c7.3-34,37.3-58.2,72.1-58.2c2.3,0,4.6,0.1,6.9,0.3c1,0.1,2,0.2,3,0.3C806.9,645.1,834.1,676.2,834.1,713.1z"/>
<linearGradient id="SVGID_15_" gradientUnits="userSpaceOnUse" x1="448.1553" y1="706.4784" x2="448.1553" y2="801.5678" gradientTransform="matrix(1 0 0 1 -137.41 -67.04)">
	<stop  offset="0" style="stop-color:#F2F2F2"/>
	<stop  offset="0.31" style="stop-color:#E6E6E6"/>
	<stop  offset="0.77" style="stop-color:#CCCCCC"/>
</linearGradient>
<path class="st20" d="M381.3,734.5c0.2-0.8,0.5-1.5,0.7-2.3c10.5-39.4-12.9-79.8-52.2-90.3c-12.7-3.3-26-3.3-38.7,0.2
	c-2.9,0.8-5.8,1.8-8.6,2.9c-35,14.6-53.2,53.2-42.3,89.5L381.3,734.5L381.3,734.5z"/>
<g class="st0">
	
		<linearGradient id="SVGID_16_" gradientUnits="userSpaceOnUse" x1="806.0425" y1="585.002" x2="806.0425" y2="557.9581" gradientTransform="matrix(1 0 0 1 0 -2.09)">
		<stop  offset="0" style="stop-color:#808080;stop-opacity:0.25"/>
		<stop  offset="0.54" style="stop-color:#808080;stop-opacity:0.12"/>
		<stop  offset="1" style="stop-color:#808080;stop-opacity:0.1"/>
	</linearGradient>
	<circle class="st21" cx="806" cy="569.3" r="13.6"/>
</g>
<linearGradient id="SVGID_17_" gradientUnits="userSpaceOnUse" x1="806.0425" y1="558.9348" x2="806.0425" y2="583.9949" gradientTransform="matrix(1 0 0 1 0 -2.09)">
	<stop  offset="0" style="stop-color:#F2F2F2"/>
	<stop  offset="0.31" style="stop-color:#E6E6E6"/>
	<stop  offset="0.77" style="stop-color:#CCCCCC"/>
</linearGradient>
<circle class="st22" cx="806" cy="569.3" r="12.6"/>
<g class="st0">
	
		<linearGradient id="SVGID_18_" gradientUnits="userSpaceOnUse" x1="867.9843" y1="716.6789" x2="867.9843" y2="687.1857" gradientTransform="matrix(1 0 0 1 0 -2.09)">
		<stop  offset="0" style="stop-color:#808080;stop-opacity:0.25"/>
		<stop  offset="0.54" style="stop-color:#808080;stop-opacity:0.12"/>
		<stop  offset="1" style="stop-color:#808080;stop-opacity:0.1"/>
	</linearGradient>
	<circle class="st23" cx="868" cy="699.8" r="14.8"/>
</g>
<linearGradient id="SVGID_19_" gradientUnits="userSpaceOnUse" x1="867.9843" y1="687.9347" x2="867.9843" y2="715.9502" gradientTransform="matrix(1 0 0 1 0 -2.09)">
	<stop  offset="0" style="stop-color:#F2F2F2"/>
	<stop  offset="0.31" style="stop-color:#E0E0E0"/>
	<stop  offset="0.77" style="stop-color:#B3B3B3"/>
</linearGradient>
<circle class="st24" cx="868" cy="699.8" r="14"/>
<g class="st0">
	
		<linearGradient id="SVGID_20_" gradientUnits="userSpaceOnUse" x1="237.028" y1="634.0898" x2="237.028" y2="601.702" gradientTransform="matrix(1 0 0 1 0 -2.09)">
		<stop  offset="0" style="stop-color:#808080;stop-opacity:0.25"/>
		<stop  offset="0.54" style="stop-color:#808080;stop-opacity:0.12"/>
		<stop  offset="1" style="stop-color:#808080;stop-opacity:0.1"/>
	</linearGradient>
	<circle class="st25" cx="237" cy="615.8" r="16.2"/>
</g>
<linearGradient id="SVGID_21_" gradientUnits="userSpaceOnUse" x1="237.028" y1="602.4105" x2="237.028" y2="633.3813" gradientTransform="matrix(1 0 0 1 0 -2.09)">
	<stop  offset="0" style="stop-color:#F2F2F2"/>
	<stop  offset="0.31" style="stop-color:#E6E6E6"/>
	<stop  offset="0.77" style="stop-color:#CCCCCC"/>
</linearGradient>
<circle class="st26" cx="237" cy="615.8" r="15.5"/>
<circle class="st27" cx="818.6" cy="307.7" r="5.2"/>
<circle class="st27" cx="130.4" cy="443.3" r="5.2"/>
<circle class="st27" cx="379.2" cy="228.1" r="5.2"/>
<circle class="st27" cx="362.3" cy="109.4" r="5.2"/>
<circle class="st27" cx="216.4" cy="344.6" r="5.2"/>
<polygon class="st27" points="134.7,239.6 130.2,239.6 130.2,234.9 128.2,234.9 128.2,239.6 123.7,239.6 123.7,241.4 128.2,241.4 
	128.2,246.1 130.2,246.1 130.2,241.4 134.7,241.4 "/>
<polygon class="st27" points="695.9,103 691.3,103 691.3,98.3 689.4,98.3 689.4,103 684.8,103 684.8,104.8 689.4,104.8 689.4,109.4 
	691.3,109.4 691.3,104.8 695.9,104.8 "/>
<polygon class="st27" points="896.4,324.8 891.8,324.8 891.8,320.3 889.9,320.3 889.9,324.8 885.3,324.8 885.3,326.6 889.9,326.6 
	889.9,331.3 891.8,331.3 891.8,326.6 896.4,326.6 "/>
<polygon class="st27" points="728.3,477.3 723.8,477.3 723.8,472.8 721.8,472.8 721.8,477.3 717.3,477.3 717.3,479.3 721.8,479.3 
	721.8,483.8 723.8,483.8 723.8,479.3 728.3,479.3 "/>
<polygon class="st27" points="258,162.7 253.4,162.7 253.4,158 251.5,158 251.5,162.7 246.9,162.7 246.9,164.5 251.5,164.5 
	251.5,169.1 253.4,169.1 253.4,164.5 258,164.5 "/>
<polygon class="st27" points="321.4,410.3 316.8,410.3 316.8,405.7 315,405.7 315,410.3 310.4,410.3 310.4,412.2 315,412.2 
	315,416.8 316.8,416.8 316.8,412.2 321.4,412.2 "/>
<linearGradient id="SVGID_22_" gradientUnits="userSpaceOnUse" x1="867.9843" y1="687.9347" x2="867.9843" y2="715.9502" gradientTransform="matrix(1 0 0 1 0 -2.09)">
	<stop  offset="0" style="stop-color:#F2F2F2"/>
	<stop  offset="0.31" style="stop-color:#E6E6E6"/>
	<stop  offset="0.77" style="stop-color:#CCCCCC"/>
</linearGradient>
<circle class="st28" cx="868" cy="699.8" r="14"/>
<g class="st29">
	
		<linearGradient id="SVGID_23_" gradientUnits="userSpaceOnUse" x1="479.8102" y1="412.2605" x2="479.8102" y2="369.9167" gradientTransform="matrix(1 0 0 1 -137.41 -67.04)">
		<stop  offset="0" style="stop-color:#808080;stop-opacity:0.25"/>
		<stop  offset="0.54" style="stop-color:#808080;stop-opacity:0.12"/>
		<stop  offset="1" style="stop-color:#808080;stop-opacity:0.1"/>
	</linearGradient>
	<path class="st30" d="M359.3,311.4L359.3,311.4c-1.7-2.2-3.8-4.1-6.3-5.6l0,0c-10.1-5.9-23.1-2.4-28.9,7.7s-2.4,23.1,7.7,28.9
		c3.2,1.9,7,2.9,10.7,2.8c0.4,0,0.9,0,1.3,0c11.6-0.7,20.5-10.8,19.7-22.5C363.2,318.6,361.7,314.6,359.3,311.4L359.3,311.4z"/>
</g>
<path class="st31" d="M362.3,324.1c0,10.5-8.2,19.3-18.7,19.9c-0.4,0-0.8,0-1.3,0c-11,0-20-9-19.9-20c0-11,9-20,20-19.9
	c3.5,0,7,0.9,9.9,2.6l0,0c2.3,1.3,4.4,3.1,6,5.3l0,0C361,315.5,362.4,319.8,362.3,324.1z"/>
<path class="st32" d="M337.4,311.4c-1,0.4-2,1-3,1.5c-0.6,0.3-1.2,0.8-1.6,1.4c-0.4,0.6-0.4,1.4,0,2c0.6,0.6,1.4,0.9,2.2,0.8
	c1.5,0.3,3-0.2,4-1.3l1.7-1.5c0.6-0.5,1.2-1.3,1-2c-0.3-0.6-0.8-0.9-1.4-1c-1.5-0.3-3,0-4.4,0.8"/>
<circle class="st32" cx="330.2" cy="332" r="1"/>
<circle class="st32" cx="351.7" cy="325.3" r="3.8"/>
<path class="st32" d="M358.4,312.1L358.4,312.1c0,2.9-2.4,5.3-5.4,5.2c-2.9,0-5.3-2.4-5.2-5.4c0-2.6,2-4.8,4.6-5.2l0,0
	C354.6,308.1,356.8,309.9,358.4,312.1z"/>
<path class="st32" d="M358.7,335.7c-3.4,5-9,8.1-15.1,8.4c0-0.3,0-0.5,0-0.8c0-5.3,4.3-9.5,9.4-9.5
	C355.1,333.7,357.2,334.3,358.7,335.7L358.7,335.7z"/>
<g class="st3">
	<rect x="482.4" y="163.3" width="104.2" height="4"/>
</g>
</svg>
