<?xml version="1.0" encoding="utf-8"?>
<!-- Generator: Adobe Illustrator 23.0.3, SVG Export Plug-In . SVG Version: 6.00 Build 0)  -->
<svg version="1.1" id="Layer_1" xmlns="http://www.w3.org/2000/svg" xmlns:xlink="http://www.w3.org/1999/xlink" x="0px" y="0px"
	 viewBox="0 0 930 788" style="enable-background:new 0 0 930 788;" xml:space="preserve">
<style type="text/css">
	.st0{opacity:0.1;fill:#E6E6FA;enable-background:new    ;}
	.st1{opacity:0.1;}
	.st2{fill:#E6E6FA;}
	.st3{fill:#3F3D56;}
	.st4{fill:#65617D;}
	.st5{opacity:0.2;enable-background:new    ;}
	.st6{opacity:0.1;enable-background:new    ;}
	.st7{fill:#D4DFEC;}
	.st8{fill:#FBBEBE;}
	.st9{fill:url(#SVGID_1_);}
	.st10{fill:none;stroke:#E6E6FA;stroke-width:2;stroke-miterlimit:10;}
</style>
<title>programming</title>
<path class="st0" d="M1027.8,576c-1.4,3-2.7,5.9-4.1,8.8c-2.1,4.5-4.2,8.9-6.3,13.2c-0.9,1.9-1.8,3.8-2.7,5.7
	c-10.2,20.8-19.7,39.2-27.8,54.4c-14.9,28-43.9,45.5-75.6,45.9l-179.7,2h-1.9l-15.4,0.2l-13.2,0.1l-40.4,0.4h-1.6l-20.6,0.2h-0.6
	l-126.8,1.4l-113.2,1.2l-13.2,0.1l-81.8,0.9h-0.1l-53,0.6h-0.6l-167.7,1.8l-50.2,0.5c-10.7,0.1-21.4-1.4-31.6-4.5
	c-17.8-5.4-33.8-15.5-46.3-29.3C-68.3,655.7-84,628-94.5,598c-1.5-4.3-2.9-8.7-4.3-13.2c-36.5-123.4,8-282.7,88.1-389.3
	c3.4-4.5,6.8-8.8,10.2-13l0.1-0.1c24.6-30.2,52.3-55.5,81.7-73.5c52.1-31.9,109.9-40.9,166.8-14.1c48.1,22.7,93,33.3,136.5,36.2
	c4.4,0.3,8.8,0.5,13.2,0.6c99.8,3.1,193.4-32.8,303.2-56c4.4-0.9,8.8-1.8,13.2-2.7c78.4-15.6,165.3-23.8,268.7-6.5
	c10.7,1.8,21.3,4.3,31.7,7.6c4.6,1.5,9,3,13.2,4.7c49.3,20.1,76.3,57.2,87.7,103.7c1.1,4.3,2,8.7,2.8,13.2
	C1138.5,307.4,1079.2,466,1027.8,576z"/>
<g class="st1">
	<path class="st2" d="M81.3,108.9v604l-50.2,0.5c-10.7,0.1-21.4-1.4-31.6-4.5V182.4h0.1C24.3,152.1,51.9,126.9,81.3,108.9z"/>
	<path class="st2" d="M1118.3,195.6h-1129c3.4-4.5,6.8-8.8,10.2-13v-0.1h1116C1116.6,186.7,1117.5,191.1,1118.3,195.6z"/>
	<path class="st2" d="M1027.8,78.7v506.1h-4.1c-2.1,4.5-4.2,8.9-6.3,13.2c-0.9,1.9-1.8,3.8-2.7,5.7V74
		C1019.1,75.4,1023.5,77,1027.8,78.7z"/>
	<path class="st2" d="M714.2,72.9v633.2l-13.2,0.1V75.6C705.3,74.7,709.7,73.8,714.2,72.9z"/>
	<path class="st2" d="M397.7,131.6v577.9l-13.2,0.1V131C389,131.3,393.4,131.5,397.7,131.6z"/>
	<path class="st2" d="M1023.6,584.8c-2.1,4.5-4.2,8.9-6.3,13.2H-94.5c-1.5-4.3-2.9-8.7-4.3-13.2H1023.6z"/>
</g>
<rect x="139" y="371.7" class="st3" width="22.5" height="68.3"/>
<rect x="745" y="368.2" class="st3" width="22.5" height="72.3"/>
<polygon class="st4" points="911.2,689.2 911.2,704.6 731.1,706.2 729.2,706.3 660.8,706.9 659.1,706.9 638.3,707.1 637.7,707.1 
	510.9,708.3 302.8,710.2 302.6,710.2 249.7,710.7 249.1,710.7 14,712.9 14,695.1 69.3,661.9 180.2,661 182.6,661 183.4,660.9 
	185.7,660.9 239,660.5 241.4,660.5 242.1,660.4 244.5,660.4 261.6,660.3 262,660.3 304.2,659.9 304.5,659.9 633.3,657.2 
	641.3,657.1 642.1,657.1 648.3,657 692.9,656.7 695.3,656.6 697.5,656.6 698.6,656.6 712.5,656.5 715.2,656.5 718.9,656.4 
	730.5,656.3 748.8,656.2 751.2,656.2 755.3,656.1 756.1,656.1 844.6,655.4 "/>
<polygon class="st5" points="911.2,689.2 911.2,704.6 731.1,706.2 729.2,706.3 660.8,706.9 659.1,706.9 638.3,707.1 637.7,707.1 
	510.9,708.3 302.8,710.2 302.6,710.2 249.7,710.7 249.1,710.7 14,712.9 14,695.1 69.3,661.9 180.2,661 182.6,661 183.4,660.9 
	185.7,660.9 239,660.5 241.4,660.5 242.1,660.4 244.5,660.4 261.6,660.3 262,660.3 304.2,659.9 304.5,659.9 633.3,657.2 
	641.3,657.1 642.1,657.1 648.3,657 692.9,656.7 695.3,656.6 697.5,656.6 698.6,656.6 712.5,656.5 715.2,656.5 718.9,656.4 
	730.5,656.3 748.8,656.2 751.2,656.2 755.3,656.1 756.1,656.1 844.6,655.4 "/>
<path class="st3" d="M239.2,629.9v29c0,2.8-1.6,5.4-4.1,6.6c-0.9,0.4-1.9,0.7-3,0.7l-41.4,0.9c-1.1,0-2.2-0.2-3.2-0.7
	c-2.6-1.2-4.2-3.8-4.2-6.6v-29.9H239.2z"/>
<path class="st6" d="M239.2,629.9v29c0,2.8-1.6,5.4-4.1,6.6c-0.9,0.4-1.9,0.7-3,0.7l-41.4,0.9c-1.1,0-2.2-0.2-3.2-0.7
	c-2.6-1.2-4.2-3.8-4.2-6.6v-29.9H239.2z"/>
<path class="st3" d="M241.5,629.9v29c0,2.8-1.6,5.4-4.1,6.6c-0.9,0.4-1.9,0.7-3,0.7l-41.4,0.9c-1.1,0-2.2-0.2-3.2-0.7
	c-2.6-1.2-4.2-3.8-4.2-6.6v-29.9H241.5z"/>
<rect x="695.3" y="629.9" class="st3" width="55.9" height="37.3"/>
<rect x="695.3" y="629.9" class="st6" width="55.9" height="37.3"/>
<rect x="692.9" y="629.9" class="st3" width="55.9" height="37.3"/>
<polygon class="st6" points="161.6,371.7 161.6,378.5 139,377.9 139,371.7 "/>
<path class="st4" d="M309.8,180.4l-27.1,194.4c-0.4,2.6-2.6,4.5-5.2,4.4l-216.6-5.6l-4.1-0.1c-2.8-0.1-5-2.4-5-5.2
	c0-0.2,0-0.4,0-0.6l30.4-203.5c0.4-2.6,2.7-4.5,5.4-4.3L305,174.6c2.8,0.2,4.9,2.6,4.8,5.4C309.8,180.2,309.8,180.3,309.8,180.4z"/>
<polygon class="st2" points="96.8,174.2 73.8,353.6 273,359.9 297.4,186.8 "/>
<path class="st4" d="M350.4,171.4h229.9c3.5,0,6.3,2.8,6.3,6.3v192.8c0,3.5-2.8,6.3-6.3,6.3H350.4c-3.5,0-6.3-2.8-6.3-6.3V177.8
	C344.1,174.3,346.9,171.4,350.4,171.4z"/>
<rect x="355.5" y="185.3" class="st2" width="220.4" height="171.1"/>
<polygon class="st6" points="767.6,368.2 767.6,372.7 745,373.1 745,368.2 "/>
<path class="st4" d="M869.2,364.4c0.1,2-1.4,3.7-3.4,3.9c-0.1,0-0.1,0-0.2,0l-221.9,4.6c-1.9,0-3.5-1.4-3.7-3.3L621,171.3
	c-0.2-2,1.3-3.8,3.3-4c0.1,0,0.1,0,0.2,0l220.2-11l2.4-0.1c2-0.1,3.6,1.4,3.8,3.3L869.2,364.4z"/>
<polygon class="st2" points="633.6,179 834.7,169.1 851.7,349.2 652.2,354 "/>
<path class="st6" d="M869.2,364.4c0.1,2-1.4,3.7-3.4,3.9c-0.1,0-0.1,0-0.2,0l-21-211.9l2.4-0.1c2-0.1,3.6,1.4,3.8,3.3L869.2,364.4z"
	/>
<path class="st6" d="M87.6,159.9L60.9,373.6l-4.1-0.1c-2.8-0.1-5-2.4-5-5.2c0-0.2,0-0.4,0-0.6l30.4-203.5
	C82.6,161.6,85,159.7,87.6,159.9z"/>
<rect x="139" y="419.8" class="st6" width="22.5" height="20.2"/>
<polygon class="st6" points="241.5,629.9 241.5,635.8 185.6,637.3 185.6,629.9 "/>
<path class="st4" d="M340.2,426.9v199.3c0,2.5-2,4.6-4.6,4.7l-227.1,6h-0.1c-2.6,0-4.6-2.1-4.7-4.7V426.9c0-2.6,2.1-4.6,4.7-4.7
	h227.1C338.1,422.2,340.2,424.3,340.2,426.9z"/>
<path class="st6" d="M108.5,422.2V637h-0.1c-2.6,0-4.6-2.1-4.7-4.7V426.9C103.8,424.3,105.9,422.2,108.5,422.2L108.5,422.2z"/>
<polygon class="st7" points="118.9,434.9 329.3,434.9 329.3,610.6 118.9,615.4 "/>
<rect x="745" y="419.8" class="st6" width="22.5" height="20.6"/>
<polygon class="st6" points="748.8,629.9 748.8,637.5 692.9,636 692.9,629.9 "/>
<path class="st4" d="M822.6,426.9v205.4c0,2.6-2.1,4.7-4.7,4.7l0,0l-227.2-6c-2.5-0.1-4.5-2.2-4.6-4.7V426.9c0-2.6,2.1-4.6,4.7-4.7
	h227.1C820.4,422.2,822.5,424.3,822.6,426.9z"/>
<path class="st6" d="M822.6,426.9v205.4c0,2.6-2.1,4.7-4.7,4.7l0,0V422.2l0,0C820.4,422.2,822.5,424.3,822.6,426.9z"/>
<polygon class="st7" points="807.5,434.9 597.1,434.9 597.1,610.6 807.5,615.4 "/>
<path class="st4" d="M580.2,426.9v199.3c0,2.5-2,4.6-4.6,4.7l-227.1,6l0,0c-2.6,0-4.7-2.1-4.7-4.7V426.9c0-2.6,2.1-4.6,4.7-4.7
	h227.1C578.1,422.2,580.2,424.3,580.2,426.9z"/>
<polygon class="st7" points="358.9,434.9 569.2,434.9 569.2,610.6 358.9,615.4 "/>
<polygon class="st6" points="911.2,689.2 911.2,704.6 731.1,706.2 729.2,706.3 660.8,706.9 659.1,706.9 638.3,707.1 637.7,707.1 
	510.9,708.3 302.8,710.2 302.6,710.2 249.7,710.7 249.1,710.7 14,712.9 14,695.1 254,693.5 254.6,693.5 303.2,693.2 303.4,693.2 
	638.9,691 639.2,691 639.4,690.9 640,690.9 645.7,690.9 647.4,690.9 735.7,690.3 740.9,690.3 742,690.3 "/>
<circle class="st8" cx="465.7" cy="379.2" r="60.8"/>
<linearGradient id="SVGID_1_" gradientUnits="userSpaceOnUse" x1="582.0314" y1="-94.6087" x2="582.0314" y2="352.7353" gradientTransform="matrix(1 0 0 -1 -79.34 616.92)">
	<stop  offset="0" style="stop-color:#808080;stop-opacity:0.25"/>
	<stop  offset="0.54" style="stop-color:#808080;stop-opacity:0.12"/>
	<stop  offset="1" style="stop-color:#808080;stop-opacity:0.1"/>
</linearGradient>
<path class="st9" d="M249,711.1c0-0.1,0.1-0.3,0.1-0.4c1.2-4.3,3.3-11.4,4.9-17.2c0.2-0.7,0.4-1.4,0.6-2.1c1.7-6.5,5.1-21.7,7-31.1
	c0.7-3.3,1.2-5.9,1.3-7.2c0.2-2,3.8-10.6,7.8-20.4c2.8-6.9,5.9-14.5,8.2-20.9c1.5-3.8,2.6-7.7,3.5-11.7c0.2-0.8,0.2-1.7,0-2.5
	c-0.4-1.4-0.5-2.7-0.6-4.1l0,0c-0.3-7.3,1.9-19,5.3-23.8c4.1-5.9,7.1-28,7.1-28s6.1,0.9,7.1-4.2c0.1-0.5,0.1-1.1,0.1-1.7
	c0-0.4,0-0.9-0.1-1.3c-1.1-7.4,17.4-15.3,27.9-17c1.2-0.2,2.4-0.3,3.6-0.3c2.5-0.3,5-0.8,7.4-1.7c1.1-0.3,2.3-0.7,3.6-1.2
	c4.4-1.5,9.6-3.4,15.1-5.5c20.8-8.1,46-19,46-19c0.2-0.8,0.4-1.6,0.6-2.4c2.5-10.1,9.7-18.5,19.4-22.4l0,0c0-0.8,0-1.6,0-2.4
	c0-4.1-0.2-8.3-0.4-12.5c0-0.8-0.1-1.6-0.1-2.5c0-0.2,0-0.5,0-0.7s0-0.4,0-0.6c0-0.8-0.1-1.7-0.1-2.5l-0.2-0.2
	c-1.8-1.4-3.4-3.1-4.6-5c-0.7-1.1-1.3-2.3-1.7-3.6c-1.5-4-1.8-8.5-2.8-12.7l-0.2-0.9c-1.3-4.3-2.9-8.5-4.7-12.5
	c-2.6-6.4-4.6-13-6.6-19.7c-1.2-4.1-2.4-8.1-3.7-12.2l-1.9-6.2c-0.4-1.2-0.7-2.4-1-3.6l0,0c-0.1-0.5-0.2-1.1-0.3-1.7l0,0
	c-0.3-1.8-0.2-3.7,0.3-5.5c0.5-1.2,1-2.4,1.6-3.6c0.2-0.5,0.4-1.1,0.6-1.6l0,0c0-0.1,0.1-0.3,0.1-0.4c0.1-0.4,0.1-0.9,0.1-1.3
	c0-1.6-0.2-3.1-0.6-4.6c0,0,0,0,0-0.1c0-0.1,0-0.2-0.1-0.3c-0.2-1.2-0.4-2.4-0.4-3.6c-0.4-6.4,1-12.8,4.1-18.5l0.2-0.4
	c0.7-1.1,1.4-2.2,2.2-3.3l0,0c0.4-0.5,0.7-1,1.2-1.4c-1.7,1.6-4.4,0.9-5.9-0.8c-0.3-0.3-0.5-0.6-0.7-0.9c-0.1-0.2-0.2-0.3-0.3-0.5
	c-0.1-0.1-0.1-0.3-0.2-0.5c-0.8-2.9,0.6-6,2.5-8.4c1.9-2.3,4.2-4.2,6.8-5.6l0,0c0.2-0.1,0.3-0.2,0.5-0.2c1-0.5,2.1-0.9,3.1-1.3l0,0
	c0.6-0.2,1.3-0.4,1.9-0.5l-4.4-0.4l-1.8-0.2c1.8-7.2,8-12.4,15.4-12.9h1.3c0.6,0,1.2,0.1,1.9,0.2c-2-0.9-3.3-2.9-3.1-5.1
	c3.1,2.4,7,3.7,10.9,3.6h0.5c-0.2-1.3-0.3-2.6-0.4-3.9l0,0l0,0l0,0c-0.1-1.8-0.1-3.5,0-5.3c2.1,2,5.1,3,8,2.7l-2.5-3.4
	c2.2,1.8,5,2.6,7.8,2.4l0.6-0.1c0.5,0,0.9-0.1,1.4-0.3h0.1c-0.2-0.3-0.4-0.6-0.6-0.9l-0.1-0.1c-0.5-0.8-0.9-1.6-1.2-2.5
	c-0.1-0.3-0.2-0.7-0.3-1l0,0c-0.5-2.2-0.3-4.4,0.5-6.5c3.8,3.2,8,7.6,13,4.3c5-3.3,5.2-9.4,13-8.8c4.4,0.4,8.2,3.2,10,7.3
	c2.3-2.6,5.9-3.4,9.1-2.1c3.1,1.5,4.9,4.7,4.6,8.2c3.3-0.8,6.8-1.6,9.9-0.4s5.1,5.2,3.4,7.9c0,0.1-0.1,0.2-0.2,0.2
	c-1.5,1.9-4.7,2.9-4.3,5.3l0.5,0.4l1.5,1.1l0,0c6,4.4,11.9,8.9,17.7,13.7c2.9,2.5,6.1,5.4,6.3,9.3c0,0.9-0.1,1.9-0.3,2.8l0,0
	c-0.2,0.9-0.5,1.8-0.7,2.8c-0.5,2.4-0.6,4.8-0.4,7.2l0,0c0.1,0.7,0.2,1.4,0.3,2.1c1.8,9.2,9.1,16.7,9.9,26.1v0.7c0,1,0,2-0.1,3
	c-0.5,5.7-3.2,11.2-5.3,16.6c-0.1,0.3-0.3,0.7-0.4,1c-4.1,10.7-6.5,22-8.3,33.4c-0.6,4-1.4,8-2.4,12c-1.1,4.5-3.1,8.7-6,12.4
	c-1.2,1.4-2.5,2.6-4,3.6c-1,0.6-2.1,1.2-3.1,1.7c0,0,0,0,0,0.1c0.1,0.7,0.2,1.4,0.4,2.2c0.1,0.4,0.1,0.8,0.2,1.2l0,0c0,0,0,0,0,0.1
	c1,5.6,2.1,11.1,3.3,16.3l0.6,2.6c14.9,5.4,16.7,16.4,16.8,20.7c0,0.6,0,1.1,0,1.7c0,0,22.5,0.6,31.4,7.1c1.7,1.1,3.5,2,5.3,2.7
	c3.6,1.4,7.2,2.5,11,3.4c1.9,0.5,3.9,1,5.9,1.5c3.6,0.8,7.3,1.6,11,2.4c9.7,2,18.8,3.6,23.5,4.7c11.1,2.8,36.3,27,36.3,27
	s3,24.5,5.9,28s8.3,16.1,8.3,16.1l19.6,34.9l8.3,14.7h5.3c0.7,0,2.2,1,3.8,2.5c1.4,1.3,3,2.8,4.3,4.2l2.3,2.4l1.4,1.6
	c0,0,8.6,0.2,11,7c7-0.2,15.6,0.3,21.7,3c0.8,0.4,1.6,0.8,2.4,1.3c2.5,1.4,4.3,3.9,4.9,6.7c0.1,0.6,0.2,1.1,0.2,1.7c0,0.7,0,1.4,0,2
	c-0.4,9-6.3,16.4-11.6,21.5l0.4,0.7c0,0-0.2,0.4-0.5,1.2c-0.1,0.2-0.2,0.5-0.3,0.8l0,0c-0.7,1.5-1.8,3.7-3.3,6.4
	c-3.1,5.7-6.9,10.9-11.3,15.6l-0.3,0.4l-68.4,0.6l-0.2-0.2l-13.3-15.8l-6.6-7.9l-0.2-0.2l-0.2,1.9l-0.6,6.3l-1.5,15.2l-0.1,0.8v0.2
	l-0.2,1.8l0.1-1.8h-0.3l-126.8,1.2l-208.1,2.3v1h-0.2v-1l-53,0.6L249,711.1z"/>
<path class="st8" d="M526.6,503.7c0,0-117.9,14.2-106.7,0c4.1-5.1,5.2-20.4,5-37.7c-0.1-5.3-0.3-10.7-0.5-16.2
	c-1.3-26.1-4.4-51.6-4.4-51.6s103.1-48.6,91.3-10.1c-4.7,15.6-3.2,37.4,0.4,57.9c1.1,6,2.3,11.9,3.6,17.4
	C518.3,477.1,522.1,490.5,526.6,503.7z"/>
<path class="st6" d="M526.6,503.7c0,0-117.9,14.2-106.7,0c4.1-5.1,5.2-20.4,5-37.7c18-7.7,40.9-2,40.9-2c24.1-4.8,39.5-3.9,49.4-0.5
	C518.3,477.1,522.1,490.5,526.6,503.7z"/>
<path class="st2" d="M302.8,711.5v-1l208.1-2.3l126.8-1.2h0.4l-0.1,1.8l0.2-1.8h0.2v-0.2l1.6-15.9l0.6-6l0.2-1.9l0.2-1.6l7.3-24.4
	l7.3-24.4l6.2-20.5l9.4-31.4c0,0-5.3-12.4-8.3-16c-3-3.6-5.9-27.9-5.9-27.9s-25.3-24.1-36.3-26.9c-4.6-1.2-13.8-2.8-23.5-4.7
	c-3.6-0.7-7.4-1.5-11-2.4c-2-0.5-4-0.9-5.9-1.4c-3.7-0.9-7.4-2.1-11-3.4c-1.9-0.7-3.7-1.6-5.3-2.7c-8.7-6.4-30.5-7.1-31.4-7.1l0,0
	c0,0,0-0.1,0-0.1V488c0-0.5,0-1,0-1.5c0-0.5,0-1-0.1-1.7c0-0.2,0-0.4-0.1-0.6c-0.1-0.4-0.1-0.9-0.2-1.4c0-0.2-0.1-0.4-0.1-0.6
	c-0.3-1.4-0.8-2.8-1.5-4.1c-0.1-0.2-0.2-0.4-0.3-0.6c-0.6-1.1-1.3-2.1-2-3.1c-0.2-0.2-0.3-0.4-0.5-0.6c-1-1.1-2.1-2.2-3.2-3.1
	c-0.3-0.2-0.7-0.5-1-0.7c-0.2-0.2-0.4-0.3-0.6-0.4l-1.1-0.7l-1-0.6c-0.9-0.5-1.8-0.9-2.8-1.4c-0.3-0.1-0.6-0.3-1-0.4
	c-0.3-0.1-0.9-0.3-1.3-0.5h-0.1l-0.9-0.4c-0.7-0.2-1.4-0.4-2.1-0.6l-1.1-0.3l-1.2-0.3l-1.2-0.2c-1.2-0.2-2.5-0.5-3.8-0.6l-1.4-0.2
	l-1.4-0.1l-1.4-0.1l-2-0.1l-2.4-0.1c-10.5,0-20.9,1.1-31.1,3.3c-7.1-1.6-14.4-2.2-21.6-2h-1l-1.2,0.1h-0.8l-1.5,0.1
	c-0.5,0-1,0.1-1.5,0.2s-1,0.1-1.6,0.2l-0.8,0.1c-0.8,0.1-1.6,0.3-2.4,0.4c-0.3,0-0.5,0.1-0.8,0.2c-1,0.2-2.1,0.5-3.1,0.8
	c-0.5,0.1-1,0.3-1.5,0.5c-0.3,0.1-0.5,0.2-0.8,0.3l-0.8,0.3l-0.7,0.3l-0.9,0.4c-0.5,0.2-0.9,0.4-1.3,0.6c-0.2,0.1-0.5,0.2-0.7,0.4
	c-0.2,0.1-0.5,0.2-0.7,0.4c-2.7,1.4-5.2,3.1-7.4,5.2l-0.6,0.6l-0.6,0.6c-0.2,0.2-0.4,0.4-0.6,0.6c-0.8,0.8-1.5,1.7-2.2,2.7
	c-0.2,0.2-0.4,0.5-0.5,0.8c-0.8,1.1-1.4,2.3-2,3.5c-0.2,0.3-0.3,0.6-0.4,0.9c-1,2-1.8,4.1-2.4,6.2c-0.2,0.8-0.4,1.6-0.6,2.4
	c-0.3,1.2-25.1,11.1-45.9,19.1c-5.5,2.1-10.7,4.1-15.1,5.5c-1.3,0.4-2.5,0.8-3.6,1.2c-2.4,0.9-4.9,1.4-7.4,1.7
	c-1.2,0-2.4,0.1-3.6,0.3c-9.6,1.6-26,8.3-27.7,15.1c-0.1,0.5-0.2,1.1-0.1,1.7c0,0,0,0.1,0,0.1c1.2,8.3-7.1,7.1-7.1,7.1
	s-3,21.9-7.1,27.9c-3,4.3-5,13.8-5.3,21l0,0c-0.1,2.2,0,4.5,0.5,6.7c0,0.1,0,0.1,0,0.2c0.5,1.6-0.7,5.9-2.6,11.5
	c-2.1,6.1-5.2,13.7-8.1,20.8c-4.4,10.8-8.6,20.6-8.9,22.8c-0.1,1-0.4,2.7-0.8,4.9c-1.7,9-5.6,26.2-7.5,33.2
	c-1.4,5.2-3.5,12.3-4.9,17.2c0,0.1-0.1,0.3-0.1,0.4l53.1-0.5L302.8,711.5L302.8,711.5L302.8,711.5z"/>
<path class="st6" d="M322.1,571.8c0,0,67.6,35,91.8,30.8L322.1,571.8z"/>
<path class="st6" d="M459.6,557.6c0,0,65.8,21.3,87.7,24.3C569.2,584.9,459.6,557.6,459.6,557.6z"/>
<path class="st6" d="M532.6,489c-34.4,6.3-99.1,5-127,4c10.3-36.7,60.2-24.2,60.2-24.2C527.6,456.4,532.4,482,532.6,489z"/>
<path class="st2" d="M532.6,486.6c-34.4,6.3-99.1,5-127,4c10.3-36.7,60.2-24.2,60.2-24.2C527.6,454,532.4,479.6,532.6,486.6z"/>
<path class="st8" d="M715,648.6c0,0,40.5-6.2,41.3,11.6s-20.6,30.2-20.6,30.2L715,648.6z"/>
<path class="st6" d="M511.6,446.1c-1.7,0.8-3.5,1.5-5.3,2.1c-12.8,4.4-25.7,8.9-39.1,10.5c-13.5,1.6-27.6,0.2-39.3-6.5
	c-1.2-0.7-2.4-1.5-3.6-2.3c-1.3-26.1-4.4-51.6-4.4-51.6s103.1-48.6,91.3-10.1C506.4,403.7,508,425.6,511.6,446.1z"/>
<path class="st3" d="M449,284.2c-3.4,0.9-7.1,0.1-9.9-2.1l2.5,3.4c-2.9,0.3-5.9-0.6-8-2.7c-0.2,3.1-0.1,6.1,0.4,9.2
	c-4.1,0.2-8.1-1.1-11.3-3.6c-0.1,2.2,1.1,4.2,3.1,5.1c-8.5-1-16.4,4.4-18.5,12.7l6.2,0.6c-4.9,1-9.2,3.7-12.4,7.5
	c-1.9,2.4-3.3,5.4-2.5,8.3c0.8,2.9,4.8,4.7,7,2.7c-6.3,7.5-8.9,17.4-7.2,27c0.6,2,0.7,4.1,0.5,6.2c-0.4,2-1.6,3.7-2.2,5.6
	c-1.2,3.5-0.1,7.2,1,10.7l5.6,18.3c2,6.6,4,13.2,6.6,19.6c1.9,4,3.4,8.2,4.7,12.5c1.5,5.7,1.6,12,4.7,17c2.2,3.2,5.1,5.7,8.5,7.5
	c11.7,6.7,25.9,8.1,39.3,6.5c13.4-1.6,26.3-6.1,39.1-10.5c2.8-0.9,5.6-2,8.1-3.6c8.8-5.8,10.8-17.6,12.4-28
	c1.8-11.6,4.3-23.2,8.6-34.1c2.6-6.5,5.9-13.1,5.4-20.1c-0.7-9.3-8-16.8-9.9-25.9c-0.6-3-0.6-6.2,0.1-9.2c0.6-1.8,0.9-3.7,0.9-5.6
	c-0.2-3.8-3.3-6.8-6.3-9.2c-6.4-5.3-13-10.4-19.7-15.1c-0.3-2.4,2.9-3.4,4.3-5.3c2.1-2.6-0.1-6.8-3.2-8.1c-3.1-1.2-6.6-0.4-9.9,0.4
	c0.5-4.3-2.5-8.2-6.8-8.7c-2.6-0.3-5.2,0.7-6.9,2.7c-1.8-4-5.6-6.8-10-7.2c-7.9-0.6-8,5.4-13,8.7c-5,3.3-9.2-1.1-13-4.2
	C446,276.9,446.6,281.1,449,284.2z"/>
<path class="st2" d="M745,684.1c0,0-1.1,2.5-3,6.2c-2.9,5.6-6.5,10.8-10.7,15.6l-0.3,0.3h-1.9l-68.4,0.6h-1.6l-0.2-0.2l-13.3-15.8
	l-5-5.9l-0.2-0.2l-0.4-0.5l-0.2-0.3l-0.3-0.4l-9.7-11.5l3.6-14.8l6.1-25l0.2-0.6l1.2-4.7l0.8-3.6l2.8-11.6l9.7-39.9l17.2,8.9
	l18.1,32l9.7,17.2h5.3c1,0,3.3,1.9,5.6,4.2c0.8,0.8,1.7,1.6,2.4,2.4c2.1,2.2,3.8,4.1,3.8,4.1s8.6,0.2,11,7c0.1,0.3,0.2,0.7,0.3,1
	c0.8,2.7,1.8,5.3,3,7.8c1.5,3.3,3.4,7.1,5.4,10.9c3.6,6.9,7.3,13.5,8.6,15.9l0.2,0.3L745,684.1z"/>
<path class="st6" d="M643.2,630.6l-0.1,1.7v0.1l-0.2,2.7l-1.6,21.9l-1.9,26.4l-0.5,7.4l-1.2,15.9v0.2l-126.8,1.2l-208.1,2.3v1h-0.2
	v-1v-0.3l0.5-17l1-33.3l0.9-28.2l0.1-2.8c0.2-6.9,6-12.3,12.9-12.1c0.2,0,0.5,0,0.7,0c5.6,0.5,12.9,1.1,21.5,1.7l3.6,0.3
	c50.2,3.5,142.9,8,236.4,2.4c2-0.1,3.9-0.2,5.9-0.4c14.5-0.9,29-2.1,43.4-3.6c6.9-0.7,13,4.3,13.7,11.1
	C643.3,629.1,643.3,629.8,643.2,630.6L643.2,630.6z"/>
<path class="st3" d="M302.8,711.5v-1l208.1-2.3l126.8-1.2h0.4v-0.2l1.2-15.9l0.5-7.1l1.9-26.8l1.5-21.2v-0.5c0.1-1,0-2-0.1-2.9
	c0,0,0-0.1,0-0.1c-0.3-2-1.1-3.9-2.4-5.5c-2.7-3.4-6.9-5.2-11.2-4.7c-14.4,1.5-28.8,2.6-43.4,3.6c-2,0.1-4,0.3-5.9,0.4
	c-93.6,5.6-186.3,1.1-236.4-2.4l-3.6-0.3c-8.7-0.6-16-1.2-21.5-1.7c-6.4-0.5-12.1,3.8-13.3,10.1c-0.1,0.6-0.2,1.3-0.2,1.9l-0.8,26.3
	l-1.1,33.3l-0.5,17v0.3L302.8,711.5L302.8,711.5z"/>
<path class="st6" d="M643.6,638.9l-1.5,18.2l-2.2,27.1l-0.5,6.8l-1.2,15.2l-0.1,0.8v0.2l0,0l-0.2,1.8l0.1-1.8h-0.3L511,708.3
	l-208.2,2.3v-0.3l0.6-17l1.2-33.3l0.8-22.1c0.1-2.6,1.4-4.9,3.6-6.2c1.3-0.8,2.9-1.2,4.5-1.1c2.5,0.2,5.5,0.4,9.1,0.7
	c5.8,0.4,12.9,0.9,21.3,1.4c15.4,1,34.7,2,56.9,2.9c61.6,2.4,144.8,3.2,223.9-3.8c3.6-0.3,7.2-0.7,10.8-1c1.4-0.1,2.9,0.1,4.1,0.8
	c0.4,0.2,0.7,0.4,1,0.6c1,0.7,1.8,1.8,2.4,2.9c0.1,0.2,0.2,0.5,0.3,0.7C643.5,636.8,643.7,637.9,643.6,638.9z"/>
<path class="st6" d="M241.5,655.2v3.8c0,2.8-1.6,5.4-4.1,6.6l-47.5,0.9c-2.6-1.2-4.2-3.8-4.2-6.6v-3.6L241.5,655.2z"/>
<polygon class="st3" points="242.1,667.7 180.2,668.9 180.2,658.6 242.1,657.5 "/>
<polygon class="st6" points="242.1,667.7 180.2,668.9 180.2,658.6 242.1,657.5 "/>
<polygon class="st3" points="244.5,667.7 182.6,668.9 182.6,658.6 244.5,657.5 "/>
<g class="st1">
	<path d="M449.5,280.3c-1.2-1.5-1.9-3.3-2.2-5.1c-0.3,1.8-0.1,3.7,0.5,5.5C448.4,280.5,449,280.4,449.5,280.3z"/>
	<path d="M434.5,288.1c-0.2-1.5-0.4-2.9-0.4-4.4c0,1.5,0,2.9,0,4.4L434.5,288.1z"/>
	<path d="M531.1,327.7c0.1-1.1,0.2-2.1,0.4-3.1c0.6-1.8,0.9-3.7,0.9-5.6c0-0.4-0.1-0.8-0.2-1.3c-0.2,1.1-0.5,2.2-0.8,3.3
		C531,323.2,530.9,325.5,531.1,327.7z"/>
	<path d="M506.4,291.1l1.3,0.9c1.1-0.8,2.1-1.7,3-2.6c0.9-1.3,1.1-2.9,0.5-4.3c-0.1,0.3-0.3,0.5-0.5,0.8
		C509.3,287.7,506.1,288.7,506.4,291.1z"/>
	<path d="M409,302.5c-0.4,0.9-0.8,1.8-1,2.7c1.9-1,3.9-1.8,5.9-2.2L409,302.5z"/>
	<path d="M425.4,289.6c-0.8-0.4-1.5-0.9-2.2-1.5c0,0.5,0,0.9,0.1,1.4C424,289.5,424.7,289.5,425.4,289.6z"/>
	<path d="M541.3,359.4c-0.5,5.7-3.2,11.3-5.3,16.7c-4.3,10.9-6.8,22.5-8.6,34.1c-1.6,10.4-3.6,22.2-12.4,28
		c-2.5,1.5-5.3,2.7-8.1,3.6c-12.8,4.4-25.7,8.9-39.1,10.5s-27.6,0.2-39.3-6.5c-3.4-1.8-6.3-4.3-8.5-7.5c-3.2-5-3.2-11.3-4.7-17
		c-1.3-4.3-2.9-8.4-4.7-12.5c-2.6-6.4-4.6-13-6.6-19.6c-1.9-6.1-3.7-12.2-5.6-18.3c-0.6-1.8-1.1-3.7-1.4-5.6c-0.5,3,0.4,6.2,1.4,9.2
		c1.8,6.1,3.7,12.2,5.6,18.3c2,6.6,4,13.2,6.6,19.6c1.9,4,3.4,8.2,4.7,12.5c1.5,5.7,1.6,12,4.7,17c2.2,3.2,5.1,5.7,8.5,7.5
		c11.7,6.7,25.9,8.1,39.3,6.5c13.4-1.6,26.3-6,39.1-10.5c2.8-0.8,5.6-2,8.1-3.6c8.8-5.8,10.8-17.6,12.4-28
		c1.8-11.6,4.3-23.2,8.6-34.1c2.6-6.5,5.9-13.1,5.4-20.1C541.3,359.5,541.3,359.5,541.3,359.4z"/>
	<path d="M399.4,354.8c0,0,0-0.1,0-0.1c0.2-2.1,0-4.2-0.5-6.2c-0.2-1.3-0.4-2.6-0.5-3.9c-0.1,2.5,0,5,0.5,7.5
		C399,352.9,399.3,353.9,399.4,354.8z"/>
	<path d="M403,325.8c0.9-1.5,1.9-3,3.1-4.3c-2.2,2.1-6.2,0.2-7-2.7c-0.3,1.2-0.3,2.4,0,3.6C399.7,324.2,401.2,325.5,403,325.8z"/>
</g>
<path class="st6" d="M699,629.9c0,0,3.8,13.6,0,25.5C695.3,667.2,699,629.9,699,629.9z"/>
<path class="st6" d="M715,643.8c0,0,1.6,17.3-2,20.4C709.5,667.3,715,643.8,715,643.8z"/>
<line class="st10" x1="124.1" y1="463" x2="244.5" y2="461.9"/>
<line class="st10" x1="124.1" y1="477.8" x2="244.5" y2="476.6"/>
<line class="st10" x1="124.1" y1="492.6" x2="244.5" y2="491.4"/>
</svg>
