<?xml version="1.0" encoding="utf-8"?>
<!-- Generator: Adobe Illustrator 21.0.0, SVG Export Plug-In . SVG Version: 6.00 Build 0)  -->
<svg version="1.1" id="Calque_1" xmlns="http://www.w3.org/2000/svg" xmlns:xlink="http://www.w3.org/1999/xlink" x="0px" y="0px"
	 viewBox="0 0 323 196" style="enable-background:new 0 0 323 196;" xml:space="preserve">
<style type="text/css">
	.st0{fill:none;}
	.st1{fill:#FFFFFF;}
	.st2{fill:url(#SVGID_1_);}
	.st3{fill:url(#SVGID_2_);}
	.st4{fill:url(#SVGID_3_);}
	.st5{fill:url(#SVGID_4_);}
	.st6{fill:url(#SVGID_5_);}
	.st7{fill:#91C021;}
	.st8{fill:url(#SVGID_6_);}
	.st9{fill:#3F4795;}
	.st10{font-family:'HelveticaNeue-Thin';}
	.st11{font-size:80.0637px;}
	.st12{letter-spacing:4;}
	.st13{fill:#C73B65;}
</style>
<path class="st0" d="M204.1,29.7l-9.3-11.4l-0.1-0.1h0l0,0l-0.1-0.1l-0.3-0.4c-0.3-0.3-0.7-0.7-1.2-1.1c-1.1-0.8-2.8-1.7-5.2-1.7
	c-0.7,0-1.5,0.1-2.4,0.3l-72.2,15.2l-11.7,12.6c-0.4,0.4-0.5,0.8-0.5,1.2c0,0.5,0.2,0.9,0.5,1.3c0.3,0.3,0.7,0.6,1.3,0.6l25.6,1.3
	l72.2-15.1l0,0l0,0c0.1,0,0.8-0.2,1.7-0.2c0.4,0,0.8,0,1.2,0.2c0.4,0.1,0.7,0.3,1,0.6c0.1-0.4,0.2-0.8,0.2-1.1
	C204.9,30.6,204.2,29.7,204.1,29.7L204.1,29.7z"/>
<path class="st0" d="M218.9,63.2c0.4-0.4,0.5-0.8,0.5-1.2c0-0.5-0.2-0.9-0.5-1.3c-0.3-0.3-0.7-0.6-1.3-0.6l-25.3-1.6l-72.2,15.1
	c-0.1,0-0.8,0.2-1.7,0.2c-0.4,0-0.8,0-1.2-0.2c-0.4-0.1-0.7-0.3-1-0.6c-0.1,0.4-0.2,0.8-0.2,1.1c0,1.1,0.7,2,0.7,2.1l0,0l9.3,11.4
	l0.1,0.1l0,0l0.1,0.1l0.3,0.4c0.3,0.3,0.7,0.7,1.2,1.1c1.1,0.8,2.8,1.7,5.2,1.7c0.7,0,1.5-0.1,2.4-0.3l72.2-15.2L218.9,63.2z"/>
<path class="st0" d="M135,17c0-0.1,0-0.1-0.1-0.1L135,17L135,17z"/>
<ellipse transform="matrix(0.832 -0.5547 0.5547 0.832 13.3706 77.6576)" class="st1" cx="134.9" cy="16.7" rx="0" ry="0"/>
<path class="st1" d="M135,16.9c0,0,0-0.1,0-0.1L135,17l0,0L135,16.9z"/>
<linearGradient id="SVGID_1_" gradientUnits="userSpaceOnUse" x1="372.7301" y1="273.6629" x2="446.2328" y2="273.6629" gradientTransform="matrix(1.1177 1.006452e-05 -6.258446e-06 1.1176 -337.8784 -290.4686)">
	<stop  offset="0" style="stop-color:#3F4694;stop-opacity:0"/>
	<stop  offset="0.2617" style="stop-color:#794686;stop-opacity:0.2617"/>
	<stop  offset="0.508" style="stop-color:#9E4278;stop-opacity:0.508"/>
	<stop  offset="0.7209" style="stop-color:#B63E6E;stop-opacity:0.7209"/>
	<stop  offset="0.892" style="stop-color:#C33C68;stop-opacity:0.892"/>
	<stop  offset="1" style="stop-color:#C73B65"/>
</linearGradient>
<path class="st2" d="M136.7,16.7c-0.1-0.3-0.5-1.6-1.3-2.7c-0.5-0.6-1.1-1.1-1.9-1.5l16.2-3.4c0.9-0.2,1.7-0.3,2.4-0.3
	c2.4,0,4.1,0.8,5.2,1.7c0.6,0.4,1,0.8,1.2,1.1l0.3,0.4l0,0l2-0.4c-0.4-0.5-1.5-1.7-2.5-2.5c-1.3-1-3.4-2-6.2-2
	c-0.9,0-1.8,0.1-2.8,0.3L127.4,12c0,0,0,0,0,0c0,0,0,0,0,0l-48,10c-0.5,0.1-0.8,0.6-0.7,1c0.1,0.5,0.6,0.8,1,0.7l0,0l48-10
	c0.8-0.2,1.6-0.2,2.2-0.2c2.2,0,3.4,0.9,4.1,1.7c0.3,0.4,0.6,0.8,0.7,1.2c0.1,0.2,0.1,0.3,0.1,0.4l0.1,0.2c0,0,0,0.1,0.1,0.1
	L136.7,16.7z"/>
<linearGradient id="SVGID_2_" gradientUnits="userSpaceOnUse" x1="520.8781" y1="332.2679" x2="444.1768" y2="350.0874" gradientTransform="matrix(1.1177 1.006452e-05 -6.258446e-06 1.1176 -337.8784 -290.4686)">
	<stop  offset="0" style="stop-color:#3F4694;stop-opacity:0"/>
	<stop  offset="1" style="stop-color:#C73B65"/>
</linearGradient>
<path class="st3" d="M242.5,84.8c-0.1-0.5-0.6-0.8-1-0.7l0,0L193,94.3c-0.6,0.1-1.2,0.2-1.8,0.2c-2.3,0-3.4-0.9-4.2-1.7
	c-0.4-0.4-0.6-0.9-0.7-1.2c-0.1-0.2-0.1-0.3-0.1-0.4l0-0.1l0,0l-0.1-0.4l-1.7,0.4c0,0.2,0.4,1.6,1.4,2.8c0.5,0.6,1.1,1.1,2,1.6
	l-17.2,3.6c-0.9,0.2-1.7,0.3-2.4,0.3c-2.4,0-4.1-0.8-5.2-1.7c-0.6-0.4-1-0.8-1.2-1.1l-0.5-0.6l-1.8,0.4c0,0.1,0,0.1,0.1,0.2
	c0,0.1,1.1,1.5,2.4,2.6c1.3,1,3.4,2,6.2,2c0.9,0,1.8-0.1,2.8-0.3l22.4-4.7c0.1,0,0.3,0,0.4-0.1c0,0,0.1,0,0.1,0l48-10.1
	C242.3,85.7,242.6,85.2,242.5,84.8z"/>
<linearGradient id="SVGID_3_" gradientUnits="userSpaceOnUse" x1="435.1042" y1="332.7379" x2="477.9091" y2="275.6" gradientTransform="matrix(1.1177 1.006452e-05 -6.258446e-06 1.1176 -337.8784 -290.4686)">
	<stop  offset="0" style="stop-color:#3F4694"/>
	<stop  offset="3.127664e-02" style="stop-color:#58468F"/>
	<stop  offset="8.512700e-02" style="stop-color:#784686"/>
	<stop  offset="0.1454" style="stop-color:#91447E"/>
	<stop  offset="0.2118" style="stop-color:#A44276"/>
	<stop  offset="0.2862" style="stop-color:#B23F70"/>
	<stop  offset="0.3725" style="stop-color:#BC3D6B"/>
	<stop  offset="0.4781" style="stop-color:#C23C68"/>
	<stop  offset="0.6236" style="stop-color:#C63B66"/>
	<stop  offset="1" style="stop-color:#C73B65"/>
</linearGradient>
<polygon class="st4" points="166.3,58.4 179.2,42.6 176.5,43.1 163.6,58.9 "/>
<linearGradient id="SVGID_4_" gradientUnits="userSpaceOnUse" x1="458.3765" y1="284.4755" x2="409.9546" y2="338.7081" gradientTransform="matrix(1.1177 1.006452e-05 -6.258446e-06 1.1176 -337.8784 -290.4686)">
	<stop  offset="0" style="stop-color:#3F4694"/>
	<stop  offset="3.127664e-02" style="stop-color:#58468F"/>
	<stop  offset="8.512700e-02" style="stop-color:#784686"/>
	<stop  offset="0.1454" style="stop-color:#91447E"/>
	<stop  offset="0.2118" style="stop-color:#A44276"/>
	<stop  offset="0.2862" style="stop-color:#B23F70"/>
	<stop  offset="0.3725" style="stop-color:#BC3D6B"/>
	<stop  offset="0.4781" style="stop-color:#C23C68"/>
	<stop  offset="0.6236" style="stop-color:#C63B66"/>
	<stop  offset="1" style="stop-color:#C73B65"/>
</linearGradient>
<path class="st5" d="M144.5,62.9l12.9-15.8c0,0,0,0,0,0l-2.7,0.6l-12.9,15.8L144.5,62.9z"/>
<linearGradient id="SVGID_5_" gradientUnits="userSpaceOnUse" x1="393.3185" y1="305.5598" x2="491.9068" y2="285.416" gradientTransform="matrix(1.1177 1.006452e-05 -6.258446e-06 1.1176 -337.8784 -290.4686)">
	<stop  offset="0" style="stop-color:#3F4694"/>
	<stop  offset="1" style="stop-color:#C73B65"/>
</linearGradient>
<path class="st6" d="M205.5,28.6L205.5,28.6l-9.3-11.4c-0.1-0.2-0.7-1.1-2-2c-1.3-1-3.4-2-6.2-2c-0.4,0-0.8,0-1.2,0.1l0,0
	l-74.4,15.7c0,0-0.1,0-0.1,0.1c0,0,0,0-0.1,0l0,0l-11.9,12.8c-0.7,0.7-1,1.6-1,2.4c0,0.9,0.3,1.8,0.9,2.4c0.6,0.7,1.5,1.1,2.5,1.2
	l25.7,1.4c0,0,0.1,0,0.1,0c0,0,0.1,0,0.1,0l0,0L201,34l0,0l0.1,0c0.2,0,0.8-0.1,1.3-0.1c0,0,0.1,0,0.1,0c0.4,0,0.7,0.1,0.8,0.1
	l0.1,0.1l0,0.1c0,0.2-0.2,0.9-1.1,2.1c0,0,0,0.1,0,0.1l-1.5,1.9l-12.9,15.8l2.7-0.6l12.9-15.8l1.8-2.2c0.7-0.8,1-1.6,1.2-2.4
	c0.1-0.4,0.2-0.9,0.2-1.3C206.6,29.9,205.6,28.8,205.5,28.6z M204.6,32.9c-0.3-0.3-0.7-0.5-1-0.6c-0.4-0.1-0.8-0.1-1.2-0.2
	c-0.9,0-1.7,0.2-1.7,0.2l0,0l0,0l-72.2,15.1l-25.6-1.3c-0.6,0-1-0.3-1.3-0.6c-0.3-0.3-0.5-0.8-0.5-1.3c0-0.4,0.1-0.9,0.5-1.2
	l11.7-12.6l72.2-15.2c0.9-0.2,1.7-0.3,2.4-0.3c2.4,0,4.1,0.8,5.2,1.7c0.6,0.4,1,0.8,1.2,1.1l0.3,0.4l0.1,0.1l0,0h0l0.1,0.1l9.3,11.4
	l0,0c0,0,0.7,0.9,0.7,2.1C204.8,32.1,204.8,32.5,204.6,32.9z"/>
<polygon class="st7" points="158.9,12.1 158.9,12.1 158.9,12.1 "/>
<linearGradient id="SVGID_6_" gradientUnits="userSpaceOnUse" x1="502.7098" y1="307.2944" x2="400.2477" y2="329.7625" gradientTransform="matrix(1.1177 1.006452e-05 -6.258446e-06 1.1176 -337.8784 -290.4686)">
	<stop  offset="0" style="stop-color:#3F4694"/>
	<stop  offset="1" style="stop-color:#C73B65"/>
</linearGradient>
<path class="st8" d="M199.6,79l8.5-1.8c0,0,0.1,0,0.1,0c0.1,0,0.1,0,0.2-0.1c0,0,0.1-0.1,0.1-0.1c0,0,0.1,0,0.1-0.1l0,0l11.6-12.5
	c0.7-0.7,1-1.6,1-2.4c0-0.9-0.3-1.7-0.9-2.4c-0.6-0.7-1.4-1.1-2.5-1.2l-25.1-1.6l-67.4,14l0,0l-5.5,1.1l0,0l-0.1,0
	c-0.2,0-0.8,0.1-1.3,0.1c-0.4,0-0.8-0.1-0.9-0.1l-0.1-0.1l0-0.1c0-0.2,0.2-0.9,1-1.9l14.9-17.8l-2.7,0.6l-13.3,16c0,0,0,0,0,0
	c0,0-0.1,0.1-0.1,0.1l-1.4,1.7l0,0c-1,1.3-1.4,2.5-1.4,3.6c0,1.8,1,3,1.1,3.2l0,0l9.3,11.4c0.1,0.2,0.7,1.1,2,2c1.3,1,3.4,2,6.2,2
	c0.9,0,1.8-0.1,2.8-0.3l7.3-1.5l0,0L199.6,79z M135.2,90.8c-0.9,0.2-1.7,0.3-2.4,0.3c-2.4,0-4.1-0.8-5.2-1.7c-0.6-0.4-1-0.8-1.2-1.1
	l-0.3-0.4l-0.1-0.1l0,0l-0.1-0.1l-9.3-11.4l0,0c0,0-0.7-0.9-0.7-2.1c0-0.3,0.1-0.7,0.2-1.1c0.3,0.3,0.7,0.5,1,0.6
	c0.4,0.1,0.8,0.1,1.2,0.2c0.9,0,1.7-0.2,1.7-0.2l72.2-15.1l25.3,1.6c0.5,0,1,0.3,1.3,0.6c0.3,0.3,0.5,0.8,0.5,1.3
	c0,0.4-0.1,0.9-0.5,1.2l-11.4,12.3L135.2,90.8z"/>
<text transform="matrix(1 0 0 1 6.28 174.1318)"><tspan x="0" y="0" class="st9 st10 st11 st12">tweag</tspan><tspan x="225.7" y="0" class="st13 st10 st11 st12">.io</tspan></text>
</svg>
