<svg id="Calque_1" data-name="Calque 1" xmlns="http://www.w3.org/2000/svg" viewBox="0 0 1275.58 749.02"><title>Plan de travail 1</title><polyline points="527.29 39.65 527.28 39.63 527.29 39.65" style="fill:#fff"/><polyline points="527.48 40.12 527.29 39.65 527.7 40.74 527.71 40.74 527.48 40.12" style="fill:#fff"/><path d="M964.64,315.57l-.74.07L765.24,357.59a42.42,42.42,0,0,1-7.21.72c-9.27-.05-14.06-3.63-17-7.16a19.55,19.55,0,0,1-3-4.94l-.57-1.57-.11-.4,0-.07-.48-1.47-7,1.47a32.08,32.08,0,0,0,5.6,11.49,25.23,25.23,0,0,0,8.08,6.49L673.28,377a48.3,48.3,0,0,1-9.93,1.07A34.69,34.69,0,0,1,642,371.22a31.43,31.43,0,0,1-5-4.68l-2-2.41-7.42,1.57.26.72a51,51,0,0,0,9.9,10.46,41.75,41.75,0,0,0,25.54,8.28h.05a54.57,54.57,0,0,0,11.39-1.23l92-19.4,1.68-.27.38-.17L965.37,322.6a3.55,3.55,0,0,0-.74-7" style="fill:#fff"/><polygon points="655.8 210.18 708.86 145.4 697.8 147.7 644.74 212.48 655.8 210.18" style="fill:#fff"/><polygon points="566.47 228.9 619.18 164.27 619.24 164.17 608.24 166.46 555.43 231.19 566.47 228.9" style="fill:#fff"/><path d="M816.38,88.2h0l-38-46.8a34.32,34.32,0,0,0-8.06-8.25,41.86,41.86,0,0,0-25.62-8.28c-1.55,0-3.19.1-4.87.26h0l-305,64.2-.37.27-.28.2L385.52,142.2a14.51,14.51,0,0,0-4,9.95,14.93,14.93,0,0,0,3.78,9.92,14.54,14.54,0,0,0,10.16,4.83l105.36,5.55.44-.07h.47L798,110.24h0l.42-.08a29.38,29.38,0,0,1,5.24-.52l.37,0a9.29,9.29,0,0,1,3.42.55l.41.27,0,.29c.08.78-.9,3.81-4.69,8.47l-.18.32-6.24,7.66-52.79,64.73,11-2.3,52.78-64.72,7.25-8.9a25.25,25.25,0,0,0,5-9.72,19.9,19.9,0,0,0-3.82-18.11ZM813,105.72a9.31,9.31,0,0,0-4.2-2.58,18.79,18.79,0,0,0-5.09-.61,37.09,37.09,0,0,0-7.16.76h0l-295.76,62-104.89-5.53a7.39,7.39,0,0,1-5.24-2.47,7.86,7.86,0,0,1-2-5.19,7.4,7.4,0,0,1,2.05-5.11l48-51.57L734.81,33A48.14,48.14,0,0,1,744.72,32a34.74,34.74,0,0,1,21.35,6.86,32,32,0,0,1,5,4.68L772.26,45l.26.37.05.07.25.36,38.05,46.87.07.09a14.15,14.15,0,0,1,2.9,8.42A13.51,13.51,0,0,1,813,105.72Z" style="fill:#fff"/><polygon points="625.6 20.57 625.62 20.58 625.61 20.57 625.6 20.57" style="fill:#90bf21"/><path d="M792.22,294.89l34.89-7.36.33-.14.68-.29.56-.4.31-.22,47.5-51.42a14.57,14.57,0,0,0,3.93-9.92,15,15,0,0,0-3.75-9.87,14.51,14.51,0,0,0-10.06-4.87l-102.92-6.48L487.53,261.38v0L465.18,266h0l-.43.08a30.93,30.93,0,0,1-5.25.52,9.93,9.93,0,0,1-3.78-.58l-.41-.27,0-.29c-.08-.74.87-3.56,4.21-7.81l61-73-11.19,2.33-54.63,65.39-.18.15-.42.57-5.88,7,0,0c-4.26,5.17-5.83,10.42-5.8,14.86a20.79,20.79,0,0,0,4.57,13h0l38,46.8a34.64,34.64,0,0,0,8.06,8.24,41.82,41.82,0,0,0,25.6,8.28,55.16,55.16,0,0,0,11.4-1.23l30.06-6.34v0ZM528.41,343.23a48.34,48.34,0,0,1-9.93,1.08,34.68,34.68,0,0,1-21.34-6.85,32.16,32.16,0,0,1-5-4.68L491,331.3l-.26-.37-.05-.07-.25-.36-38-46.87-.07-.1a14.12,14.12,0,0,1-2.9-8.41,13.69,13.69,0,0,1,.82-4.55,9.28,9.28,0,0,0,4.19,2.58,18.83,18.83,0,0,0,5.09.62,37.14,37.14,0,0,0,7.17-.76l295.77-62,103.77,6.54a7.36,7.36,0,0,1,5.18,2.49,7.82,7.82,0,0,1,2,5.16,7.46,7.46,0,0,1-2,5.11l-46.74,50.59Z" style="fill:#fff"/><path d="M80.4,526.85H43.65V644.66q0,10.18,2.3,16.08a18.34,18.34,0,0,0,7.06,9,25,25,0,0,0,11.49,3.77,117,117,0,0,0,15.59.33V684.7a116.82,116.82,0,0,1-18.54-.16,37.18,37.18,0,0,1-15.92-4.92,28.82,28.82,0,0,1-11-12.31q-4.11-8.2-3.45-22.64V526.85H0V516H31.18V463.52H43.65V516H80.4Z" style="fill:#fff"/><path d="M165.1,670.26h.66L211.7,516h16.74l46.27,154.24h.66L322.62,516H336.4L282.25,684.7H266.83L220.56,531.78h-.66L173.3,684.7H157.55L104.06,516h13.45Z" style="fill:#fff"/><path d="M378.06,602v2A99.59,99.59,0,0,0,382,632.19a72.08,72.08,0,0,0,11.68,23.63,55.41,55.41,0,0,0,19.41,16.08q11.67,5.91,27.15,5.91,25.33,0,40.14-13.29t20.4-36.92h12.47q-5.58,29.54-24.12,45.29t-49.06,15.75q-18.7,0-32.65-6.73a66.36,66.36,0,0,1-23.3-18.38A77.94,77.94,0,0,1,370.19,636a123,123,0,0,1-4.59-34.29,120.15,120.15,0,0,1,4.76-34,85.26,85.26,0,0,1,14.27-28.55,70.7,70.7,0,0,1,23.79-19.69q14.27-7.38,33.64-7.38,17.72,0,31.34,6.56a65.73,65.73,0,0,1,22.81,17.88,79.61,79.61,0,0,1,13.95,26.25,104.94,104.94,0,0,1,4.76,32c0,1.1-.06,2.35-.16,3.77s-.16,2.57-.16,3.45Zm124-10.83a100.93,100.93,0,0,0-4.6-26.09,64.65,64.65,0,0,0-11.68-21.66,58.17,58.17,0,0,0-18.76-14.93,55,55,0,0,0-25.17-5.58q-15.14,0-26.65,5.74a60.2,60.2,0,0,0-19.41,15.1,67.26,67.26,0,0,0-12.17,21.82,102.19,102.19,0,0,0-5.27,25.6Z" style="fill:#fff"/><path d="M675.37,651.23h-.66a52,52,0,0,1-8.53,14.28,60.45,60.45,0,0,1-13.62,12,67.54,67.54,0,0,1-18.21,8.2,79.85,79.85,0,0,1-22.31,3q-26.91,0-41.68-11.65t-14.77-35.93q0-14.77,5.91-24.12a44.76,44.76,0,0,1,14.93-14.77,64.06,64.06,0,0,1,20-7.71,196.72,196.72,0,0,1,21.17-3.28L637,589.53q13.45-1,21.17-3.12t11.65-5.91a16.82,16.82,0,0,0,4.92-9.68,92.18,92.18,0,0,0,1-14.77,31.19,31.19,0,0,0-2.62-12.8,28.77,28.77,0,0,0-8.2-10.5,40.71,40.71,0,0,0-14.44-7.22q-8.86-2.62-21.66-2.62-22.64,0-36.59,11.16t-15.26,33.8H564.46Q565.76,540,582.34,526t47.09-13.95q30.52,0,44.47,12t13.95,31.34v98.12q0,3.62.16,7.22a24.08,24.08,0,0,0,1.15,6.56,9.82,9.82,0,0,0,3.28,4.76q2.29,1.81,6.56,1.81a59.9,59.9,0,0,0,9.19-1v10.5A39.25,39.25,0,0,1,698,684.7q-7.55,0-12-2a15.73,15.73,0,0,1-6.73-5.25,19.34,19.34,0,0,1-3.12-7.71,53.07,53.07,0,0,1-.82-9.68Zm0-62.35q-4.6,5.58-13.95,7.55a173.49,173.49,0,0,1-20.84,3l-21,2q-9.19,1-18.38,2.79a53.57,53.57,0,0,0-16.57,6.07,33.92,33.92,0,0,0-12,11.65q-4.6,7.38-4.59,19.2,0,18.7,11.81,27.73t32.49,9q21.33,0,33.8-7.71t19-17.72A54.53,54.53,0,0,0,673.57,633q1.8-9.35,1.8-12.63Z" style="fill:#fff"/><path d="M886,516V675.84a114.06,114.06,0,0,1-3.28,27.4,61,61,0,0,1-11.3,23.46q-8,10.17-22.1,16.24T813.69,749a109.38,109.38,0,0,1-25.21-2.79,60.82,60.82,0,0,1-20.62-8.86,45.14,45.14,0,0,1-14.24-16.08q-5.4-10-6.06-24.78H760a45.24,45.24,0,0,0,5.58,19,40,40,0,0,0,12,13,50.6,50.6,0,0,0,16.57,7.38,81.09,81.09,0,0,0,19.69,2.3q17.39,0,29-5.25a50.26,50.26,0,0,0,18.54-13.62,49.17,49.17,0,0,0,9.68-19,84.82,84.82,0,0,0,2.79-21.5V640.07h-1q-8.84,18.7-24.07,28.55T812,678.46q-18.66,0-32.25-6.4a62.28,62.28,0,0,1-22.59-17.72,76.34,76.34,0,0,1-13.42-26.42,116.29,116.29,0,0,1-4.42-32.82,105.21,105.21,0,0,1,4.76-31.83,79.19,79.19,0,0,1,13.95-26.42,67.35,67.35,0,0,1,22.81-18q13.61-6.72,31.34-6.73a70.31,70.31,0,0,1,36.92,10.17,56.51,56.51,0,0,1,24.12,28.88h.66V516Zm-73.84,6.89q-15.43,0-26.75,6.23a56.47,56.47,0,0,0-18.71,16.41,74.43,74.43,0,0,0-11.16,23.14,94,94,0,0,0-3.77,26.42,102.19,102.19,0,0,0,3.77,28.06,66.43,66.43,0,0,0,11.49,23.13,56,56,0,0,0,19,15.59q11.32,5.75,26.09,5.74,15.42,0,26.91-5.91a55.78,55.78,0,0,0,19.2-16.08,70.58,70.58,0,0,0,11.49-23.13,100.76,100.76,0,0,0,0-54.64,68.65,68.65,0,0,0-11.49-23.14,56.61,56.61,0,0,0-19.2-15.92Q827.63,522.92,812.21,522.92Z" style="fill:#fff"/><path d="M962.18,650.9h16.74v33.8H962.18Z" style="fill:#fff"/><path d="M1056.69,484.19v-33.8h12.47v33.8Zm0,200.51V516h12.47V684.7Z" style="fill:#fff"/><path d="M1120.69,600.36a110.86,110.86,0,0,1,5.09-34,85.27,85.27,0,0,1,14.93-28.06,71,71,0,0,1,24.28-19.2q14.44-7.05,33.14-7.06t33.14,7.06a71,71,0,0,1,24.28,19.2,85.34,85.34,0,0,1,14.93,28.06,111,111,0,0,1,5.09,34,112.53,112.53,0,0,1-5.09,34.13,83.16,83.16,0,0,1-14.93,28.06,71.74,71.74,0,0,1-24.28,19q-14.44,7.05-33.14,7.05T1165,681.58a71.69,71.69,0,0,1-24.28-19,83.09,83.09,0,0,1-14.93-28.06A112.38,112.38,0,0,1,1120.69,600.36Zm12.47,0a98.66,98.66,0,0,0,4.27,29,78.64,78.64,0,0,0,12.47,24.78,60.66,60.66,0,0,0,20.35,17.23q12.14,6.4,27.89,6.4t27.89-6.4a60.77,60.77,0,0,0,20.35-17.23,78.85,78.85,0,0,0,12.47-24.78,101,101,0,0,0,0-58.08,78.91,78.91,0,0,0-12.47-24.78A60.78,60.78,0,0,0,1226,529.31q-12.15-6.4-27.89-6.4t-27.89,6.4a60.67,60.67,0,0,0-20.35,17.23,78.7,78.7,0,0,0-12.47,24.78A98.71,98.71,0,0,0,1133.16,600.36Z" style="fill:#fff"/><path d="M597.68,0a55.29,55.29,0,0,0-11.32,1.23L496.54,20h0L299.67,61.15a3.55,3.55,0,0,0,.72,7l.73-.07h0L498,27a43.76,43.76,0,0,1,9-1c9.2.05,13.89,3.54,16.78,7a19,19,0,0,1,2.86,4.78l.55,1.52.32.92.27.61,6.92-1.47a31,31,0,0,0-5.45-10.88,24.92,24.92,0,0,0-7.88-6.31L587.83,8.18a48,48,0,0,1,9.94-1.08A34.71,34.71,0,0,1,619.11,14a31.21,31.21,0,0,1,5,4.68l1.17,1.47.06.06,8.21-1.72A66.8,66.8,0,0,0,623.38,8.29,41.81,41.81,0,0,0,597.83,0h-.15" style="fill:#fff"/></svg>